<svg xmlns="http://www.w3.org/2000/svg" viewBox="0 0 631.48 385.49"><defs><style>.cls-1{fill:#1ba796;}.cls-2{fill:#ed6b3c;}.cls-3{font-size:21.37px;fill:#1d1d1b;font-family:Poppins-Bold, Poppins;font-weight:700;letter-spacing:0.01em;}.cls-4{fill:#777;}.cls-5,.cls-6{font-size:10.02px;font-family:Poppins-SemiBold, Poppins;font-weight:600;}.cls-5,.cls-6,.cls-7{fill:#fff;}.cls-5{letter-spacing:0.02em;}.cls-6{letter-spacing:0.01em;}.cls-8{fill:#28ade4;}.cls-10,.cls-11,.cls-9{fill:none;stroke:#b3b2b4;stroke-miterlimit:10;stroke-width:2px;}.cls-10{stroke-dasharray:11.79 11.79;}.cls-11{stroke-dasharray:11.72 11.72;}</style></defs><g id="Capa_2" data-name="Capa 2"><g id="Capa_1-2" data-name="Capa 1"><rect class="cls-1" x="45.02" y="258.03" width="83.28" height="83.28" rx="16.85"/><rect class="cls-1" x="155.6" y="237.93" width="124.06" height="136.99" rx="16.85"/><rect class="cls-1" x="286.84" y="237.93" width="107.69" height="127.22" rx="16.85"/><rect class="cls-1" x="398.7" y="237.93" width="107.69" height="68.49" rx="16.85"/><rect class="cls-1" x="534.55" y="237.93" width="96.92" height="124.35" rx="16.85"/><circle class="cls-2" cx="76.96" cy="130" r="76.96"/><rect class="cls-2" x="185.7" y="90.65" width="83.28" height="83.28" rx="16.85"/><rect class="cls-2" x="293.74" y="90.65" width="83.28" height="83.28" rx="16.85"/><rect class="cls-2" x="410.91" y="90.65" width="83.28" height="83.28" rx="16.85"/><rect class="cls-2" x="535.94" y="90.65" width="83.28" height="83.28" rx="16.85"/><text class="cls-3" transform="translate(421.19 30.84) scale(0.73 1)">Leading <tspan x="-10.42" y="25.64">Indicators</tspan></text><text class="cls-3" transform="translate(539.41 30.84) scale(0.73 1)">Lagging <tspan x="-19.49" y="25.64">Indicators</tspan></text><rect class="cls-4" x="446.41" y="71.1" width="39.76" height="3.74"/><polygon class="cls-4" points="438.11 72.97 446.41 77.76 446.41 68.17 438.11 72.97"/><rect class="cls-4" x="554.95" y="72.97" width="39.76" height="3.74" transform="translate(1149.66 149.68) rotate(-180)"/><polygon class="cls-4" points="603.01 74.84 594.71 79.63 594.71 70.05 603.01 74.84"/><text class="cls-5" transform="translate(556.28 130.93) scale(0.73 1)">Measures<tspan x="6.54" y="12.02">Results</tspan></text><text class="cls-5" transform="translate(436.99 130.93) scale(0.73 1)">Behavior<tspan x="1.52" y="12.02">(action)</tspan></text><text class="cls-6" transform="translate(321.03 130.93) scale(0.73 1)">Physical<tspan x="-6.55" y="12.02">Conditions</tspan></text><text class="cls-6" transform="translate(210.82 130.93) scale(0.73 1)">Program<tspan x="-1.22" y="12.02">Elements</tspan></text><text class="cls-6" transform="translate(61.1 125.32) scale(0.73 1)">Attitudes<tspan x="-23.51" y="12.02">(set up conditions</tspan><tspan x="-4.4" y="24.05">behavior))</tspan></text><text class="cls-6" transform="translate(58.51 297.9) scale(0.73 1)">Perception<tspan x="0" y="12.02">Surveys</tspan></text><text class="cls-6" transform="translate(172.29 267.71) scale(0.73 1)">Training<tspan x="0" y="15.03">Accountability</tspan><tspan x="0" y="30.06">Communications</tspan><tspan x="0" y="45.09">Planning &amp; Evaluation</tspan><tspan x="0" y="60.12">Roles &amp; Procedures</tspan><tspan x="0" y="75.15">Acicdent Invetigation</tspan></text><polygon class="cls-7" points="168.09 265.6 166.18 266.87 164.12 265.84 163.97 263.54 165.89 262.27 167.95 263.3 168.09 265.6"/><polygon class="cls-7" points="168.09 295.77 166.18 297.05 164.12 296.02 163.97 293.72 165.89 292.45 167.95 293.48 168.09 295.77"/><polygon class="cls-7" points="168.09 325.96 166.18 327.23 164.12 326.2 163.97 323.9 165.89 322.63 167.95 323.66 168.09 325.96"/><polygon class="cls-7" points="168.09 280.69 166.18 281.96 164.12 280.93 163.97 278.63 165.89 277.36 167.95 278.39 168.09 280.69"/><polygon class="cls-7" points="168.09 310.87 166.18 312.14 164.12 311.11 163.97 308.81 165.89 307.54 167.95 308.57 168.09 310.87"/><polygon class="cls-7" points="168.09 341.05 166.18 342.32 164.12 341.29 163.97 339 165.89 337.73 167.95 338.75 168.09 341.05"/><text class="cls-6" transform="translate(303.82 271.71) scale(0.73 1)">Inspection<tspan x="0" y="15.03">Audits</tspan><tspan x="0" y="30.06">Risk Assements</tspan><tspan x="0" y="45.09">Prevention &amp; Control</tspan></text><polygon class="cls-7" points="300.04 269.67 298.08 270.88 296.05 269.8 295.98 267.5 297.94 266.29 299.96 267.37 300.04 269.67"/><polygon class="cls-7" points="300.04 299.84 298.08 301.05 296.05 299.97 295.98 297.67 297.94 296.45 299.96 297.54 300.04 299.84"/><polygon class="cls-7" points="300.04 284.75 298.08 285.97 296.05 284.88 295.98 282.58 297.94 281.37 299.96 282.46 300.04 284.75"/><polygon class="cls-7" points="300.04 314.92 298.08 316.14 296.05 315.05 295.98 312.75 297.94 311.54 299.96 312.62 300.04 314.92"/><text class="cls-5" transform="translate(548.42 274.75) scale(0.73 1)">OSHA<tspan x="0" y="15.03">Recordables</tspan><tspan x="0" y="30.06">Lost Workdays</tspan><tspan x="0" y="45.09">Restricted Workdays</tspan></text><polygon class="cls-7" points="544.63 272.71 542.68 273.92 540.65 272.83 540.58 270.54 542.53 269.32 544.56 270.41 544.63 272.71"/><polygon class="cls-7" points="544.63 302.88 542.68 304.09 540.65 303 540.58 300.7 542.53 299.49 544.56 300.57 544.63 302.88"/><polygon class="cls-7" points="544.63 287.79 542.68 289 540.65 287.92 540.58 285.62 542.53 284.41 544.56 285.49 544.63 287.79"/><polygon class="cls-7" points="544.63 317.96 542.68 319.17 540.65 318.09 540.58 315.79 542.53 314.57 544.56 315.66 544.63 317.96"/><text class="cls-5" transform="translate(416.18 263.84) scale(0.73 1)">Observations<tspan x="0" y="15.03">FeedbackLoops</tspan></text><polygon class="cls-7" points="412.4 261.8 410.44 263.01 408.42 261.93 408.34 259.63 410.3 258.41 412.32 259.5 412.4 261.8"/><polygon class="cls-7" points="412.4 276.88 410.44 278.1 408.42 277.01 408.34 274.71 410.3 273.5 412.32 274.58 412.4 276.88"/><rect class="cls-8" x="162.42" y="131.01" width="10.85" height="4.48"/><polygon class="cls-8" points="176.62 132.94 168.93 126.88 168.93 139 176.62 132.94"/><rect class="cls-8" x="85.71" y="218.59" width="1.26" height="22.49"/><polygon class="cls-8" points="86.33 248.03 90.42 241.08 82.25 241.08 86.33 248.03"/><polygon class="cls-8" points="86.33 211.61 82.25 218.57 90.42 218.57 86.33 211.61"/><rect class="cls-8" x="217.82" y="191.25" width="1.26" height="22.49"/><polygon class="cls-8" points="218.45 220.69 222.53 213.74 214.36 213.74 218.45 220.69"/><polygon class="cls-8" points="218.45 184.28 214.36 191.23 222.53 191.23 218.45 184.28"/><rect class="cls-8" x="340.06" y="191.25" width="1.26" height="22.49"/><polygon class="cls-8" points="340.69 220.69 344.78 213.74 336.61 213.74 340.69 220.69"/><polygon class="cls-8" points="340.69 184.28 336.61 191.23 344.78 191.23 340.69 184.28"/><rect class="cls-8" x="451.92" y="191.25" width="1.26" height="22.49"/><polygon class="cls-8" points="452.55 220.69 456.63 213.74 448.46 213.74 452.55 220.69"/><polygon class="cls-8" points="452.55 184.28 448.46 191.23 456.63 191.23 452.55 184.28"/><rect class="cls-8" x="579.78" y="191.25" width="1.26" height="22.49"/><polygon class="cls-8" points="580.41 220.69 584.49 213.74 576.32 213.74 580.41 220.69"/><polygon class="cls-8" points="580.41 184.28 576.32 191.23 584.49 191.23 580.41 184.28"/><rect class="cls-8" x="275.23" y="131.01" width="10.85" height="4.48"/><polygon class="cls-8" points="289.43 132.94 281.74 126.88 281.74 139 289.43 132.94"/><rect class="cls-8" x="387.6" y="131.01" width="10.85" height="4.48"/><polygon class="cls-8" points="401.81 132.94 394.11 126.88 394.11 139 401.81 132.94"/><rect class="cls-8" x="510.6" y="131.01" width="10.85" height="4.48"/><polygon class="cls-8" points="524.81 132.94 517.11 126.88 517.11 139 524.81 132.94"/><line class="cls-9" x1="516.03" y1="152.55" x2="516.03" y2="158.55"/><line class="cls-10" x1="516.03" y1="170.34" x2="516.03" y2="353.02"/><line class="cls-9" x1="516.03" y1="358.91" x2="516.03" y2="364.91"/><line class="cls-9" x1="516.03" x2="516.03" y2="6"/><line class="cls-11" x1="516.03" y1="17.72" x2="516.03" y2="105.61"/><line class="cls-9" x1="516.03" y1="111.47" x2="516.03" y2="117.47"/></g></g></svg>