<svg xmlns="http://www.w3.org/2000/svg" xmlns:xlink="http://www.w3.org/1999/xlink" viewBox="0 0 485.37 386.52"><defs><style>.cls-1{fill:#f28e72;}.cls-2{clip-path:url(#clip-path);}.cls-3{fill:#fff;}.cls-4{fill:#ef6c45;}.cls-5{fill:#7c1810;}.cls-6{fill:#db2852;}.cls-7{fill:#421b37;}.cls-8{fill:#a1794c;}.cls-9{fill:#ecc288;}.cls-10{fill:#c7944e;}.cls-11{fill:#eb4f15;}.cls-12{fill:#213a5a;}.cls-13{fill:#e69325;}.cls-14{fill:#c25e18;}.cls-15{fill:#0b141f;}.cls-16{fill:#eaada9;}.cls-17{fill:#803920;}.cls-18{fill:#733221;}.cls-19{fill:#7a88b0;}.cls-20{fill:#535e78;}.cls-21{fill:#323847;}.cls-22{fill:#e1787f;}.cls-23{fill:#5c171a;}.cls-24{fill:#eec19f;}.cls-25{fill:#e59066;}.cls-26{fill:#5caaf8;}.cls-27{fill:#a1360e;}.cls-28{fill:#8a4a29;}.cls-29{fill:#cf9b61;}.cls-30{fill:#592b14;}.cls-31{fill:#1f0e07;}</style><clipPath id="clip-path" transform="translate(43.99)"><path class="cls-1" d="M439.77,250.92c-5.65,29.08-25.85,55.26-55.36,68.21-15.36,6.74-31.36,7.69-47.73,9.74a481.12,481.12,0,0,1-67.76,3.59c-31.4-.49-63.13-.37-94.47-2.84-32.68-2.57-67.1-5.2-97.39-19A124.65,124.65,0,0,1,4,205.36a128.19,128.19,0,0,1,11.75-62.19c9-19.48,27.75-36.71,43.34-51.3A343.8,343.8,0,0,1,240.71,3.64c26.42-4,52.27-7.18,77.22,4.6,19.36,9.13,35.51,26.28,40.4,47.12,3.26,13.88,1.5,28.46,3.57,42.56,2.6,17.7,9.72,33.12,23.07,44.54,16,13.68,31.82,28.07,43.09,46A85.58,85.58,0,0,1,439.77,250.92Z"/></clipPath></defs><g id="Capa_2" data-name="Capa 2"><g id="OBJECTS"><path class="cls-1" d="M439.77,250.92c-5.65,29.08-25.85,55.26-55.36,68.21-15.36,6.74-31.36,7.69-47.73,9.74a481.12,481.12,0,0,1-67.76,3.59c-31.4-.49-63.13-.37-94.47-2.84-32.68-2.57-67.1-5.2-97.39-19A124.65,124.65,0,0,1,4,205.36a128.19,128.19,0,0,1,11.75-62.19c9-19.48,27.75-36.71,43.34-51.3A343.8,343.8,0,0,1,240.71,3.64c26.42-4,52.27-7.18,77.22,4.6,19.36,9.13,35.51,26.28,40.4,47.12,3.26,13.88,1.5,28.46,3.57,42.56,2.6,17.7,9.72,33.12,23.07,44.54,16,13.68,31.82,28.07,43.09,46A85.58,85.58,0,0,1,439.77,250.92Z" transform="translate(43.99)"/><g class="cls-2"><path class="cls-3" d="M374.37,125.24C342.22,136,300.56,149,267.84,156.32,205.62,170.26,69.92,162.52,26.09,178c-30.84,10.89-56.91,28.16-69.66,37.43a120.85,120.85,0,0,1,0-20.14C-15,176.17,46.46,139.35,108,131c77.87-10.52,202.85-14,264.26-49.37-4,12.93-7.86,24.23-7.13,31.08C365.61,117.73,369,121.75,374.37,125.24Z" transform="translate(43.99)"/><path class="cls-3" d="M438.52,149A698.94,698.94,0,0,1,340,176.45c-67.18,13.42-241.76,18.09-272.3,21.48C41.59,200.83-13,230.61-35.56,244.66A71.13,71.13,0,0,1-38.62,238C-16.85,222.74,35.6,190.81,100,185.74c80.85-6.37,238.58-15.54,314.09-45.18C422.15,143.11,430.51,145.83,438.52,149Z" transform="translate(43.99)"/><rect class="cls-4" x="69.5" y="218.16" width="24.86" height="94.37"/><rect class="cls-4" x="88.13" y="240.73" width="48.43" height="71.81"/><rect class="cls-4" x="182.67" y="179.93" width="37.93" height="132.6"/><rect class="cls-4" x="228.05" y="234.4" width="39.21" height="78.13"/><rect class="cls-4" x="296.1" y="218.16" width="37.93" height="94.37"/><rect class="cls-3" x="330.79" y="242.81" width="29.68" height="69.73"/><rect class="cls-4" x="379.04" y="224.77" width="22.07" height="87.77"/><rect class="cls-4" x="427.61" y="191.15" width="33.5" height="121.38"/></g><path class="cls-5" d="M.23,330.74s95.31-6.42,128.69-2.93c28.38,3,56.76,6,85.24,7.86,34.39,2.2,70-1.69,104.45-2.87l121-4.13a23.23,23.23,0,0,0-33-15.93,13.5,13.5,0,0,0,8-10.07c3-18.27-24-12.7-34.42-10,0,0-2.22-5.18-9.41-4.56s-14.61.62-14.61.62,2.19-18.27-13.23-14.06S320,284.35,320,284.35s-2.85-13.71-21.17-9.32-30.58,21.62-30.58,21.62-11-4.95-20.33.5S236,309.2,236,309.2s-2.1-27-17.93-23.83-24.87,17.46-24.87,17.46-4.62-4.65-14.65-2.55-12,5.21-12,5.21-.07-11.48-11.94-8.84-16.81,8.84-16.81,8.84,5.62-18.08-8.82-21.14-21.72,2.42-21.72,2.42-3.08-6.92-9.23-6.07-12.37,5.55-12.37,5.55.06-27.92-16.34-25.41A45.62,45.62,0,0,0,43.14,275s-6.27-3.88-11.94-.39-9.55,10.73-9.55,10.73S17.26,273,11.07,280.7s0,29.21,0,29.21S.75,310.1.23,316.05A125.68,125.68,0,0,0,.23,330.74Z" transform="translate(43.99)"/><rect class="cls-6" x="251.03" y="79.2" width="15.35" height="259.83"/><rect class="cls-7" x="251.72" y="79.2" width="14.67" height="259.83"/><path class="cls-6" d="M214.83,142a.25.25,0,0,1-.25-.25v-58a.25.25,0,1,1,.5,0v58A.25.25,0,0,1,214.83,142Z" transform="translate(43.99)"/><path class="cls-6" d="M214.83,261.12a.25.25,0,0,1-.25-.25v-110a.25.25,0,0,1,.5,0v110A.25.25,0,0,1,214.83,261.12Z" transform="translate(43.99)"/><rect class="cls-6" x="124.83" y="59.55" width="16.52" height="279.48"/><rect class="cls-7" x="125.58" y="59.55" width="7.65" height="279.48"/><rect class="cls-8" x="263.25" y="156.32" width="144.18" height="2.52"/><rect class="cls-9" x="136.96" y="156.32" width="144.18" height="2.52"/><rect class="cls-8" x="263.25" y="248.96" width="144.18" height="2.52"/><rect class="cls-9" x="136.96" y="248.96" width="144.18" height="2.52"/><rect class="cls-6" x="276.58" y="46.9" width="16.52" height="292.13"/><rect class="cls-7" x="277.32" y="46.9" width="7.65" height="292.13"/><path class="cls-3" d="M240.84,78.5a.36.36,0,0,1-.37-.37V53.61a.36.36,0,0,1,.37-.37.37.37,0,0,1,.38.37V78.13A.37.37,0,0,1,240.84,78.5Z" transform="translate(43.99)"/><path class="cls-3" d="M240.84,334.67a.37.37,0,0,1-.37-.37V93.1a.37.37,0,0,1,.37-.38.38.38,0,0,1,.38.38V334.3A.38.38,0,0,1,240.84,334.67Z" transform="translate(43.99)"/><rect class="cls-6" x="399.93" y="24.32" width="16.52" height="314.71"/><rect class="cls-7" x="400.67" y="24.32" width="7.65" height="314.71"/><path class="cls-9" d="M191.35,343.21H330.94a43.42,43.42,0,0,1-7.68-11.1c-2.55-5.85-1.77-10.7-8.35-12.92a70.63,70.63,0,0,1-13.42-6.66s-3.41-15.85-11.58-16-12.36-.46-19.43,6.12-12.07,7.51-18.1,6.56-9.09-6.22-13.73,0-6.45,17.19-11.93,16.93-14-4.65-18.44-.9-4.34,4.16-7.95,5.51S191.29,335.4,191.35,343.21Z" transform="translate(43.99)"/><path class="cls-9" d="M119.81,335.14h53.81a9.82,9.82,0,0,0-4.46-5.32c-3.29-1.63-7.16-1.46-9.09-2.51s-3.87-7.2-8.52-6.84-10,.58-10,.58-7.44-5.59-12.08-5-12.91,5.78-12.91,5.78l-12.6,6L93,334Z" transform="translate(43.99)"/><rect class="cls-10" x="444.06" y="269.04" width="3.28" height="80.31"/><rect class="cls-10" x="387.92" y="269.04" width="3.28" height="80.31"/><rect class="cls-3" x="368.72" y="294.84" width="104.37" height="15.07"/><path class="cls-11" d="M352,294.84l-10.91,15.07h7.41l10.91-15.07Zm17.69,0L358.8,309.91h7.41l10.91-15.07Zm-35.38,0-9.6,13.25v1.82h6.09l10.92-15.07Zm53.07,0-10.91,15.07h7.41l10.91-15.07Zm35.39,0-10.92,15.07h7.41l9.82-13.56v-1.51Zm-17.69,0-10.92,15.07h7.41l10.91-15.07Z" transform="translate(43.99)"/><rect class="cls-3" x="368.72" y="273.63" width="104.37" height="15.07"/><path class="cls-11" d="M352,273.63,341.11,288.7h7.41l10.91-15.07Zm17.69,0L358.8,288.7h7.41l10.91-15.07Zm-35.38,0-9.6,13.25v1.82h6.09l10.92-15.07Zm53.07,0L376.49,288.7h7.41l10.91-15.07Zm35.39,0L411.87,288.7h7.41l9.82-13.56v-1.51Zm-17.69,0L394.18,288.7h7.41l10.91-15.07Z" transform="translate(43.99)"/><path class="cls-12" d="M374.31,286l-.91,2-5.52,12.3h0l-9.86,22L360,350l-2.65-.35a71.33,71.33,0,0,1-10.13-1.78s-3.41-31.54-3.25-33.25c.14-1.51,12-31.8,14.52-38.38.24-.57.39-1,.46-1.14l0-.11.16.11,5.72,4.1Z" transform="translate(43.99)"/><path class="cls-13" d="M360.61,351.13a35.24,35.24,0,0,1-.9,4.13s-15.29,1.64-23.89-.09c-.44-.08-.87-.18-1.27-.29a3.26,3.26,0,0,1,0-.39,2.44,2.44,0,0,1,0-.26,4.11,4.11,0,0,1,3.49-4,63.34,63.34,0,0,1,8.91-1.16l-2.2-22.19,9.84,1,4.61.45S360.61,350.36,360.61,351.13Z" transform="translate(43.99)"/><path class="cls-14" d="M353.42,352.15a.25.25,0,0,1-.16-.06,11.1,11.1,0,0,0-5-2,.25.25,0,0,1-.21-.28.24.24,0,0,1,.27-.22,11.48,11.48,0,0,1,5.26,2.09.24.24,0,0,1,0,.35A.25.25,0,0,1,353.42,352.15Z" transform="translate(43.99)"/><path class="cls-14" d="M348.49,349.15a.25.25,0,0,1-.11-.47,13.28,13.28,0,0,1,3.67-1.19.24.24,0,0,1,.27.23.26.26,0,0,1-.24.27,13.43,13.43,0,0,0-3.49,1.14Z" transform="translate(43.99)"/><path class="cls-12" d="M396.78,346.45a7.18,7.18,0,0,1-1,.46c-.2.09-.41.17-.64.25a23.36,23.36,0,0,1-2.65.75,62.1,62.1,0,0,1-7.55,1.15S370.89,319,370.37,316.75c-.39-1.7-3.59-23.88-5.07-34.25-.35-2.48-.6-4.29-.7-5,0-.2-.05-.3-.05-.3l2.06.39,18,3.43s-1.69,27.28-1.15,29.33S396.78,346.45,396.78,346.45Z" transform="translate(43.99)"/><path class="cls-13" d="M398.42,355.13c-.52.26-20.52,1-25.29-.25a6.19,6.19,0,0,1,1-2.87h0a4.73,4.73,0,0,1,2.11-1.78c3-1.29,8.75-1.17,8.75-1.17l-9.53-19.34,11.44-1.93,3.92-.66s6.58,20.26,7.09,21.94S398.94,354.88,398.42,355.13Z" transform="translate(43.99)"/><path class="cls-14" d="M391.36,351.57a.3.3,0,0,1-.16-.05,13.62,13.62,0,0,0-5.21-2.08.24.24,0,0,1-.2-.29.24.24,0,0,1,.29-.2,13.91,13.91,0,0,1,5.43,2.18.24.24,0,0,1,0,.35A.25.25,0,0,1,391.36,351.57Z" transform="translate(43.99)"/><path class="cls-14" d="M386.71,348.57a.24.24,0,0,1-.24-.19.24.24,0,0,1,.18-.3,15.35,15.35,0,0,1,2.87-.49.25.25,0,0,1,0,.5,15.8,15.8,0,0,0-2.74.47Z" transform="translate(43.99)"/><path class="cls-14" d="M385.94,346.35a.2.2,0,0,1-.13,0,.25.25,0,0,1-.09-.34,5.83,5.83,0,0,1,3.24-2.24.25.25,0,0,1,.31.16.24.24,0,0,1-.16.31,5.49,5.49,0,0,0-3,2A.24.24,0,0,1,385.94,346.35Z" transform="translate(43.99)"/><path class="cls-15" d="M366.87,295a.24.24,0,0,1-.24-.22l-1.58-12.2a.24.24,0,0,1,.21-.28.25.25,0,0,1,.28.21l1.58,12.21a.25.25,0,0,1-.21.28Z" transform="translate(43.99)"/><path class="cls-15" d="M365.36,290.89a.25.25,0,0,1-.21-.11,35.81,35.81,0,0,1-2.87-6,.26.26,0,0,1,.16-.32.23.23,0,0,1,.31.15,34.71,34.71,0,0,0,2.82,5.95.26.26,0,0,1-.08.35A.31.31,0,0,1,365.36,290.89Z" transform="translate(43.99)"/><path class="cls-16" d="M354.59,250.21l-.94,3.64s-8.36,7.08-10.49,9.6-8.51,8.52-10.54,9.78l3.58,4.64s15.67-10,18.09-12.19,5.71-5.91,5.71-5.91l3.78-8.71Z" transform="translate(43.99)"/><path class="cls-12" d="M336.49,277.87s-2.52,2.42-3,2.87c-.12.1-.33.27-.61.47,0,0,0,0,0,0a13.94,13.94,0,0,1-9.45,3.26,1.43,1.43,0,0,1-.74-.13,9.4,9.4,0,0,1-1.42-3.71,11.55,11.55,0,0,1,2-3.87c.81-.71,9.33-3.64,9.33-3.64Z" transform="translate(43.99)"/><path class="cls-17" d="M312.92,284.51s20.52-7.94,21.87-7.84,2.71,5.32,2.42,5.71-2.81.87-2.81.87-1-3.19-1.93-3.19-19.65,6.77-19.65,6.77Z" transform="translate(43.99)"/><path class="cls-12" d="M332.84,281.21s0,0,0,0a13.94,13.94,0,0,1-9.45,3.26,5.25,5.25,0,0,1-.09-1.77,2.47,2.47,0,0,1,1.5-1.74c.39-.22,5-2,5.35-2.13s.94-.32,1.3,0A10.27,10.27,0,0,1,332.84,281.21Z" transform="translate(43.99)"/><path class="cls-12" d="M333.05,276.32a1.25,1.25,0,0,1-.31,1.07,3.37,3.37,0,0,1-1.77,1.06,7,7,0,0,1-1.58.16,4.8,4.8,0,0,1-.62,2.31,1.87,1.87,0,0,1-1.89.7c-.8-.14-.58-.94-.53-1.72a8.47,8.47,0,0,1,.39-2.27,35.06,35.06,0,0,1,2.83-2.4C329.86,275,332.76,273.66,333.05,276.32Z" transform="translate(43.99)"/><path class="cls-15" d="M323.39,284.35a.14.14,0,0,1-.12-.09c0-.08-.53-1.9.49-2.71a8,8,0,0,1,2.4-1.25.12.12,0,0,1,.16.06.12.12,0,0,1-.07.17,8,8,0,0,0-2.33,1.21c-.89.72-.41,2.43-.41,2.45a.11.11,0,0,1-.09.15Z" transform="translate(43.99)"/><path class="cls-15" d="M332.52,280.67a.13.13,0,0,1-.12-.08c-.14-.4-.83-1.71-1.36-1.82a5,5,0,0,0-1.63.46.13.13,0,0,1-.16-.08.12.12,0,0,1,.07-.16c1.47-.53,1.7-.48,1.77-.47.73.15,1.46,1.75,1.55,2a.13.13,0,0,1-.08.16Z" transform="translate(43.99)"/><path class="cls-15" d="M327.24,281.81h0a1.1,1.1,0,0,1-.92-.39c-.4-.62.11-3.38.25-3.76a20.46,20.46,0,0,1,3.11-2.57.12.12,0,0,1,.17,0,.12.12,0,0,1,0,.17,21.56,21.56,0,0,0-3,2.46c-.18.49-.58,3.06-.27,3.54a.87.87,0,0,0,.71.27h0a1.78,1.78,0,0,0,1.4-.63,5.77,5.77,0,0,0,.62-2.33.14.14,0,0,1,.05-.08.1.1,0,0,1,.1,0,4,4,0,0,0,3.52-1.5.13.13,0,0,1,.18,0,.14.14,0,0,1,0,.18,4.19,4.19,0,0,1-3.63,1.61,5.7,5.7,0,0,1-.66,2.32A2,2,0,0,1,327.24,281.81Z" transform="translate(43.99)"/><path class="cls-12" d="M332.32,273.07s1-1.17,1.55-.94,4,4.1,4,4.68-1.13,1.32-1.39,1.29A35.24,35.24,0,0,1,332.32,273.07Z" transform="translate(43.99)"/><path class="cls-3" d="M354.59,250.21s3.91-18,7.32-22.33l2.42,23.93S357.78,252.34,354.59,250.21Z" transform="translate(43.99)"/><path class="cls-15" d="M334.84,276.13a.11.11,0,0,1-.1-.05c-.48-.62-1.77-2.2-1.79-2.22a.13.13,0,0,1,.2-.16s1.31,1.61,1.79,2.23a.14.14,0,0,1,0,.18Z" transform="translate(43.99)"/><path class="cls-16" d="M368.25,223.34s.41-.34,3.75-1a39.5,39.5,0,0,1,7.16-.53,16.39,16.39,0,0,1-3.38,3.24c-1.89,1.26-3.54,2.56-5,2.47s-3.09-.05-3.43-1S367.1,224,368.25,223.34Z" transform="translate(43.99)"/><path class="cls-3" d="M368.25,223.34s-1.09,2.72,2.78,1.76a41.75,41.75,0,0,0,8.13-3.26s-5,6.48-6.32,7.51a47.36,47.36,0,0,1-6.26,3.1S364.3,226.74,368.25,223.34Z" transform="translate(43.99)"/><path class="cls-13" d="M387.49,226l-8.33-4.16c-3.48,1.26-11.61,9.39-11.61,9.39s-.74-5,.7-7.89a11.37,11.37,0,0,0-6.8,5.27c-2.51,4.36-4.16,19-3.48,25.65,0,0-2.46,22.47-2.39,24.49s4.94,3.67,8.78,3.67v.1c-.1.29.38.87,1.26.87s19.64,0,19.93-1,.34-22,.39-23.23,2.42-11.61,2.42-15.67S387.49,226,387.49,226Z" transform="translate(43.99)"/><path class="cls-14" d="M356,273.84c-.16,1.73-.28,3.16-.34,4.05,4.8-1.57,23.75-7.82,30.26-10.5,0-4.17.05-7.7.07-8.2a4.4,4.4,0,0,1,.08-.63Z" transform="translate(43.99)"/><path class="cls-3" d="M380.66,274c1.75,0,3.47-.07,5.14-.18,0-.49,0-1,0-1.48a109.63,109.63,0,0,1-15.27-.28c.11-3.79.63-21.55,1.23-28.65s5.87-17,9.89-20.29l-1.43-.72c-4.22,3.91-9.33,13.5-9.95,20.89-.6,7.08-1.13,24.68-1.24,28.65-3-.27-5.78-.59-8-.89.24-4.36,1.81-32.09,3-37.44a41.74,41.74,0,0,1,3.63-10.05,11,11,0,0,0-1.72.76,42.94,42.94,0,0,0-3.09,9c-1.16,5.47-2.71,32.73-3,37.53-1.55-.22-2.76-.41-3.54-.53-.05.51-.1,1-.15,1.49A169.06,169.06,0,0,0,380.66,274Z" transform="translate(43.99)"/><path class="cls-14" d="M363.81,280.7h0a.25.25,0,0,1-.25-.25c0-.21.26-20.61.52-28.65a123.28,123.28,0,0,1,2.58-18.63.25.25,0,0,1,.3-.19.25.25,0,0,1,.19.3,122.51,122.51,0,0,0-2.57,18.53c-.26,8-.52,28.44-.52,28.64A.25.25,0,0,1,363.81,280.7Z" transform="translate(43.99)"/><path class="cls-16" d="M375.29,252.52,375,256a52.62,52.62,0,0,0-9.29,6.29c-3.58,3.29-13,9.39-16.64,10.94l2.61,5.41s17.13-7.93,24-11.51,9.68-6.29,9.68-6.29a19.83,19.83,0,0,0,1.35-2.52c0-.29.78-6.77.78-6.77Z" transform="translate(43.99)"/><path class="cls-3" d="M375.29,252.52s1-21.2,3.39-24.68,5.9-3.87,8.81-1.84,3.48,19.93,2.22,25.74A22.79,22.79,0,0,1,375.29,252.52Z" transform="translate(43.99)"/><path class="cls-17" d="M324.13,287.56s20.52-7.94,21.87-7.84,2.71,5.32,2.42,5.71-2.81.87-2.81.87-1-3.2-1.93-3.2S324,289.88,324,289.88Z" transform="translate(43.99)"/><path class="cls-12" d="M348.61,273.07s-8.48,3.51-9.51,4-5.61,5.22-5.81,5.93,1.87,3.23,2.84,3.87,4.2,1.23,4.84.78,4.32-4.65,5.1-5.23,5.09-3,5.09-3Z" transform="translate(43.99)"/><path class="cls-12" d="M351.15,279.85s-3.34-6.62-3.1-6.92,1.74-1.16,2.23-.87,3.09,6.05,3.09,6.63S351.58,280.05,351.15,279.85Z" transform="translate(43.99)"/><path class="cls-15" d="M350.81,278.71a.12.12,0,0,1-.11-.08c-.8-1.72-2.31-4.77-2.33-4.8a.13.13,0,0,1,.23-.11s1.52,3.08,2.32,4.81a.12.12,0,0,1-.06.16Z" transform="translate(43.99)"/><path class="cls-15" d="M266.55,348.77a1.19,1.19,0,0,1-.76-.26,1.24,1.24,0,0,1-.23-1.75c1.65-2.14,6.09-8.15,6.77-10.21.83-2.49.84-7.94.84-8a1.25,1.25,0,0,1,1.25-1.25h0a1.25,1.25,0,0,1,1.25,1.25c0,.24,0,5.91-1,8.78s-6.53,10.12-7.16,11A1.25,1.25,0,0,1,266.55,348.77Z" transform="translate(43.99)"/><path class="cls-13" d="M326.74,284.1s-.58,12.19-1.16,16.64c-.53,4-13.77,23.17-35.27,30.33-.8.27-1.62.52-2.45.75-.57.16-1.16.32-1.75.46-.89.22-1.8.41-2.72.59-25.55,4.84-37.74-4.06-41-6s-12.78-16.06-15.1-20.51l12.42-2.29,11.77-2.16Z" transform="translate(43.99)"/><path class="cls-14" d="M287.86,331.83c-1.45.41-2.95.76-4.47,1.05-25.55,4.84-37.74-4.06-41-6s-12.78-16.06-15.1-20.51l12.42-2.29,3.26,1.71s7.54,17.42,17.8,20.9C269,329.5,282.48,331.18,287.86,331.83Z" transform="translate(43.99)"/><path class="cls-18" d="M326.74,284.1s-5.23,1.46-13.08,3.62c-21.92,6-64.32,17.49-70.73,18.06l-2.15.18c-7.68.57-13.52.4-13.52.4l14-3.77c20.57-5.53,57.79-15.5,69.54-18.44,1.9-.47,3.13-.76,3.53-.82C318.22,282.75,326.74,284.1,326.74,284.1Z" transform="translate(43.99)"/><path class="cls-19" d="M313.66,287.72c-21.92,6-64.32,17.49-70.73,18.06l-2.15.18c.12-.94.29-2.16.5-3.37a18.93,18.93,0,0,1,1-4.2c1-1.94,4.65-5.62,4.65-5.62l1.16-6,7.55-2.13s1.55-7.16,3.09-8.32,20.52-4.26,20.91-3.68,3.48,6.78,3.48,6.78l10.45-3.87s4.26,4.26,4.65,4.84,9.87.38,9.87.38l2.69,3.38Z" transform="translate(43.99)"/><path class="cls-20" d="M250.46,296.66,244.91,298a.25.25,0,0,0,.06.49H245l5.55-1.29a.26.26,0,0,0,.18-.3A.24.24,0,0,0,250.46,296.66Zm25.06-4.13c-.24,0-6-.82-8.87,2.6a20.39,20.39,0,0,0-1.45,1.95c-.66-.94-4.49-6.28-5.55-6.76s-9.18-2.63-9.52-2.72a.25.25,0,0,0-.31.17.26.26,0,0,0,.18.31c.08,0,7.61,2,9.23,2.61a17.51,17.51,0,0,1-2,3.68.25.25,0,0,0,0,.35.3.3,0,0,0,.15,0,.23.23,0,0,0,.2-.11,17.47,17.47,0,0,0,2.06-3.73,54.79,54.79,0,0,1,5.18,6.54s.05,0,.08,0a16.17,16.17,0,0,0-1.67,3.67l.57-.15a17.23,17.23,0,0,1,3.19-5.57c2.52-3,7.58-2.53,8.33-2.44l3.4,4.13.53-.14-3.61-4.39A.3.3,0,0,0,275.52,292.53Zm-23.35.77a28.56,28.56,0,0,0-3.33-.2.25.25,0,0,0-.25.25.25.25,0,0,0,.25.25,27.82,27.82,0,0,1,3.25.2h0a.26.26,0,0,0,.25-.21A.25.25,0,0,0,252.17,293.3Zm44.48-7.36a.25.25,0,0,0-.25.25s0,3.16-.13,4a.25.25,0,0,0,.21.28h0a.26.26,0,0,0,.25-.22c.13-.91.13-4,.13-4.1A.25.25,0,0,0,296.65,285.94Zm.13-1.73c-.4.1-9.78,2.4-10.75,2.85s-3.75,6.8-4.91,9.46l.62-.17c1.91-4.34,4-8.59,4.5-8.83.74-.35,7.14-2,10.53-2.8l6.61,5.81.58-.16L297,284.26A.28.28,0,0,0,296.78,284.21Zm11.1-2.06a.25.25,0,0,0-.31.16,13.17,13.17,0,0,1-1.62,3.52.24.24,0,0,0,0,.35.23.23,0,0,0,.17.07.25.25,0,0,0,.18-.08,13.54,13.54,0,0,0,1.74-3.71A.25.25,0,0,0,307.88,282.15Zm-12.81-1.53a.25.25,0,0,0,.22.15.23.23,0,0,0,.11,0,.25.25,0,0,0,.12-.33c-.45-1-1.35-2.7-1.36-2.72a.26.26,0,0,0-.34-.11.25.25,0,0,0-.1.34S294.62,279.67,295.07,280.62Zm-27.73,5.44-1.18-4a.23.23,0,0,0-.31-.16.24.24,0,0,0-.16.31l1.17,4Zm-3-5.9a.26.26,0,0,0,.19-.1.24.24,0,0,0,0-.35l-1.83-1.52-.32.39,1.83,1.52A.25.25,0,0,0,264.35,280.16Zm18.12.92a.26.26,0,0,0-.35.07l-2.2,3.28c.09-.84.25-2,.39-3,.27-1.64-.67-5.73-.71-5.9a.25.25,0,0,0-.3-.19.25.25,0,0,0-.19.3s1,4.16.71,5.71-.52,4-.52,4a.25.25,0,0,0,.17.26l.08,0a.26.26,0,0,0,.21-.11l2.77-4.13A.25.25,0,0,0,282.47,281.08Z" transform="translate(43.99)"/><circle class="cls-20" cx="314.28" cy="348.56" r="12.52"/><path class="cls-21" d="M280,340.64l-5.21,4.88,3.42,1.86,4.19-2A12.32,12.32,0,0,0,280,340.64Z" transform="translate(43.99)"/><circle class="cls-13" cx="314.28" cy="348.56" r="8"/><path class="cls-14" d="M276.43,343.43l-5.53,5.38a2.65,2.65,0,0,0,2.91.68,28.57,28.57,0,0,0,4.38-2.11A8,8,0,0,0,276.43,343.43Z" transform="translate(43.99)"/><path class="cls-12" d="M271.32,349.41a1.5,1.5,0,0,1-.86-2.72c3-2.1,11-8.18,12.57-11.1,1.88-3.51,2.15-8.6,2.15-8.65a1.5,1.5,0,0,1,3,.14,27,27,0,0,1-2.5,9.92c-2.17,4.07-12.34,11.32-13.49,12.14A1.56,1.56,0,0,1,271.32,349.41Z" transform="translate(43.99)"/><path class="cls-14" d="M265.37,344.78a.23.23,0,0,1-.15,0,.25.25,0,0,1-.05-.35,10.9,10.9,0,0,1,1.48-1.62.25.25,0,0,1,.32.38,10.42,10.42,0,0,0-1.4,1.54A.23.23,0,0,1,265.37,344.78Z" transform="translate(43.99)"/><path class="cls-14" d="M269.81,355h0a6.92,6.92,0,0,1-5.93-5,5,5,0,0,1,0-3.07.26.26,0,0,1,.32-.17.25.25,0,0,1,.16.31,4.44,4.44,0,0,0,0,2.77,6.42,6.42,0,0,0,5.49,4.67.25.25,0,0,1,0,.5Z" transform="translate(43.99)"/><path class="cls-14" d="M243.29,308.83a.39.39,0,0,1-.37-.31.38.38,0,0,1,.31-.44s4.32-.79,10.43-2.12,68.46-18,69.08-18.19a.37.37,0,1,1,.2.72c-.63.17-63,16.86-69.12,18.2s-10.42,2.12-10.46,2.13Z" transform="translate(43.99)"/><path class="cls-16" d="M369.24,223.39l-.24-2.57,5.71-4.25,3.22,5.27s-3.44,1.11-4.76,1.55A11.32,11.32,0,0,1,369.24,223.39Z" transform="translate(43.99)"/><path class="cls-22" d="M374.23,216.92h0l-5.23,3.9.14,1.5a11.71,11.71,0,0,0,4-1.84A3.63,3.63,0,0,0,374.23,216.92Z" transform="translate(43.99)"/><path class="cls-16" d="M361.21,206.06a8.56,8.56,0,0,0,0,2.57c.24.92,1.41,4.64,1.12,5.32s-1.26.44-1.26,1a16.1,16.1,0,0,0,2.37,5.08,8.17,8.17,0,0,0,2.71,2.23c.53.24,6-2.09,6.82-2.71s2-3.1,2.32-5,.73-6.82-.82-10-6.05-5.66-8.76-4.65S361.45,202.73,361.21,206.06Z" transform="translate(43.99)"/><path class="cls-23" d="M370.7,211.14a9.59,9.59,0,0,1-.31,2.12c-.19.19-.52,0-.52,0s-.8-5.65-.87-5.81a19.85,19.85,0,0,1,4.58-.1c1,.17,4,2.81,4,2.81s-.13,2.52-.26,3l-.55-.2s-.29,1-.52,1.62a10.51,10.51,0,0,1-1.58,2,7.48,7.48,0,0,0-.22-1.86c-.2-.29-.71.19-.71.19l-1-2.42S371.52,211.23,370.7,211.14Z" transform="translate(43.99)"/><path class="cls-16" d="M370.7,211.14a2.75,2.75,0,0,1,2.46-1.79c1.75.1,1.26,3.54-.72,5Z" transform="translate(43.99)"/><path class="cls-13" d="M377.57,210.92s-5-2.82-14.57-4c0,0-4.59-.38-5.27-1.06s.39-1.45,2.85-1.11a8.05,8.05,0,0,1,3.39-6c3.44-2.61,8.76-2.34,11-.65a10.69,10.69,0,0,1,3.87,7A12.27,12.27,0,0,1,377.57,210.92Z" transform="translate(43.99)"/><path class="cls-13" d="M373.17,197.76h.93s.13-.76-1.29-1.18a11.82,11.82,0,0,0-6.23.19c-1.71.75-3.25,1.46-4.06,4.34,0,0-.45.65.19.74l2.1.28s.52-2.07,3.93-3.36S373.17,197.76,373.17,197.76Z" transform="translate(43.99)"/><path class="cls-14" d="M364.45,205.33h0c-1.39-.25-2.3-.35-2.31-.35a.12.12,0,0,1-.11-.14.12.12,0,0,1,.13-.11s.93.1,2.33.35a.13.13,0,0,1,.1.15A.12.12,0,0,1,364.45,205.33Z" transform="translate(43.99)"/><path class="cls-14" d="M376.31,209.48l-.07,0a30.83,30.83,0,0,0-9.36-3.63.11.11,0,0,1-.09-.15.12.12,0,0,1,.15-.09,30.93,30.93,0,0,1,9.44,3.66.12.12,0,0,1,0,.17A.11.11,0,0,1,376.31,209.48Z" transform="translate(43.99)"/><path class="cls-3" d="M364.81,202.25h0l-2.42-.32a.12.12,0,0,1-.1-.14.12.12,0,0,1,.14-.11l2.32.31a4,4,0,0,1,.67-1.06.12.12,0,0,1,.17,0,.13.13,0,0,1,0,.18,3.74,3.74,0,0,0-.66,1.08A.13.13,0,0,1,364.81,202.25Z" transform="translate(43.99)"/><path class="cls-3" d="M366.73,200a.12.12,0,0,1-.1-.05.14.14,0,0,1,0-.18,9.28,9.28,0,0,1,2.05-1.1c3.22-1.28,3.84-1,3.91-1a.12.12,0,0,1-.13.21s-.62-.23-3.69,1a9.4,9.4,0,0,0-2,1.07A.11.11,0,0,1,366.73,200Z" transform="translate(43.99)"/><path class="cls-14" d="M370.26,203.16a.18.18,0,0,1-.09,0l-1.26-1.29a.12.12,0,0,1,0-.17,10.35,10.35,0,0,1,5.31-2.59.13.13,0,0,1,.14.1.14.14,0,0,1-.11.15,10.47,10.47,0,0,0-5.08,2.42l1.1,1.12a12.7,12.7,0,0,1,5.31-2.4.12.12,0,0,1,0,.24,12.31,12.31,0,0,0-5.28,2.43A.11.11,0,0,1,370.26,203.16Z" transform="translate(43.99)"/><path class="cls-12" d="M206.26,328.19s-.13-24.77-.39-27.22-1.93-24.91-1.93-24.91h17s-1.81,26.71-1.81,29.17-1.67,24-1.67,24Z" transform="translate(43.99)"/><path class="cls-13" d="M205.16,354.64a1.28,1.28,0,0,1-1.16-.71c-.26-.7-.19-27.8-.19-27.8s10,.12,13.86.77l-1,19s2.39,3,3,3.23,7.58,1.67,8,2.64,1.1,2.26.26,2.9-8.29,1.1-13.67.46C211.86,354.8,205.16,354.64,205.16,354.64Z" transform="translate(43.99)"/><path class="cls-14" d="M214.18,346.2a9,9,0,0,1-2.47-.32.14.14,0,0,1-.09-.16.13.13,0,0,1,.16-.08,9.74,9.74,0,0,0,3.62.24.12.12,0,0,1,.15.1.12.12,0,0,1-.11.14A8.26,8.26,0,0,1,214.18,346.2Z" transform="translate(43.99)"/><path class="cls-14" d="M215.42,344.82h0a4.43,4.43,0,0,1-1.4-1.06.12.12,0,0,1,0-.17.14.14,0,0,1,.18,0,4.09,4.09,0,0,0,1.31,1,.13.13,0,0,1,.05.17A.12.12,0,0,1,215.42,344.82Z" transform="translate(43.99)"/><path class="cls-12" d="M185.1,326.26s1.55-18.84,1.81-23.23.38-29.55.38-29.55l16.91,1.68s-5.81,31.23-5.94,32.9-1.68,19.75-1.68,19.75Z" transform="translate(43.99)"/><path class="cls-13" d="M184.07,344.9V325.23s8.77.19,13.35,1.35l-3,22.9a48.23,48.23,0,0,1-.19,5c-.19.52-6.06.71-8.13,1.1s-16.32.71-16.84.13.58-4.07,2.07-5.1,9.61-2.84,9.61-2.84Z" transform="translate(43.99)"/><path class="cls-14" d="M187.57,345.62a19.35,19.35,0,0,1-2.49-.17.13.13,0,0,1-.1-.15.12.12,0,0,1,.14-.1,15.73,15.73,0,0,0,4.44,0,.12.12,0,0,1,.15.1.12.12,0,0,1-.1.14A9.8,9.8,0,0,1,187.57,345.62Z" transform="translate(43.99)"/><path class="cls-14" d="M185.52,344.31a.14.14,0,0,1-.12-.09.14.14,0,0,1,.08-.16,12.1,12.1,0,0,0,2.06-.83.13.13,0,0,1,.17,0,.13.13,0,0,1-.05.17,12.07,12.07,0,0,1-2.11.85Z" transform="translate(43.99)"/><path class="cls-19" d="M219,216.19a21.6,21.6,0,0,1,4.2,6c1.35,3.23,1.61,8.58,1.61,8.58l-7.16,2.39S216.58,220.06,219,216.19Z" transform="translate(43.99)"/><path class="cls-19" d="M189,215.29a17.42,17.42,0,0,0-4.9,6.9,30.85,30.85,0,0,0-1.55,7.36l5.42,1.29S189.49,219,189,215.29Z" transform="translate(43.99)"/><path class="cls-24" d="M199.16,210l.23-2.22,8.61.29.16,2.42-1.13,2.9s-2.41,2.93-3.66,3.14S199.36,212.87,199.16,210Z" transform="translate(43.99)"/><path class="cls-25" d="M203.66,213.1c1.45,0,3.18-1.52,4.48-2.93L208,208.1l-8.61-.29-.16,1.56C200.08,210.77,201.78,213.09,203.66,213.1Z" transform="translate(43.99)"/><polygon class="cls-20" points="246.64 224.45 243.25 217.05 247.37 216.56 251.71 216.56 252.27 218.69 246.64 224.45"/><polygon class="cls-6" points="246.23 219.76 245.77 224.1 249.61 224.03 249.04 219.76 246.23 219.76"/><polygon class="cls-6" points="247.37 216.56 245.53 216.56 246.23 219.76 249.04 219.76 249.95 216.81 247.37 216.56"/><path class="cls-7" d="M204.65,219.88h-2a.12.12,0,0,1-.13-.12.13.13,0,0,1,.13-.13h2a.12.12,0,0,1,.12.13A.12.12,0,0,1,204.65,219.88Z" transform="translate(43.99)"/><path class="cls-13" d="M222.23,269.87c0,.52,0,1,0,1.51,0,3.53-.08,6.1-.08,6.1-5.68,1.42-18.65.08-18.65.08-.58,1-17.92.7-17.85-2.79,0,0,0-1.69.09-4.31,0-.47,0-1,0-1.51.19-9.11.53-25.92.51-28,0-2.84,1.48-25.17,2.93-26.34a18.6,18.6,0,0,1,4-1.75l1.51-.52c1.85-.61,3.43-1.08,3.43-1.08s3.65,9.49,5.39,12.29c2-2.41,6.91-11.52,6.91-11.52.93.31,1.92.71,2.88,1.14.5.23,1,.46,1.47.7,2.38,1.15,4.29,2.29,4.29,2.29a52.22,52.22,0,0,0-.38,8.13c.12,4.65,2.58,23.36,3.22,28.13C222.26,255.29,222.28,263.59,222.23,269.87Z" transform="translate(43.99)"/><path class="cls-14" d="M222.21,259.47l-36.29,1.26c0,1.7-.07,3.36-.1,4.91a49.32,49.32,0,0,0,21.57,3.62,78.82,78.82,0,0,0,14.86-2.37C222.26,264.41,222.25,261.82,222.21,259.47Z" transform="translate(43.99)"/><path class="cls-3" d="M222.23,269.87c0,.52,0,1,0,1.51-2.42.11-5.08.16-7.82.16-11.73,0-25.06-.84-28.67-1.08,0-.47,0-1,0-1.51,1.26.09,3.83.25,7.15.43,0-5.16,0-32.54-.1-36.88-.08-3.95.23-15.54.35-19.61l1.51-.52c-.1,3.41-.45,16-.36,20.1.09,4.38.09,32.06.1,37,5.44.27,12.49.55,19.11.57,0-3.66.1-19.75-.58-26.93-.69-7.35.13-25.59.34-29.9.5.23,1,.46,1.47.7-.24,5.16-1,22.21-.32,29.06.69,7.24.62,23.37.59,27.08C217.54,270,220,270,222.23,269.87Z" transform="translate(43.99)"/><path class="cls-14" d="M203.42,274.64a.25.25,0,0,1-.25-.25c0-.21-.26-20.73-.51-28s.5-20.16.51-20.29a.25.25,0,0,1,.27-.23.25.25,0,0,1,.23.26c0,.13-.77,13-.51,20.24s.51,27.8.51,28a.26.26,0,0,1-.25.26Z" transform="translate(43.99)"/><path class="cls-19" d="M203.37,216.56s-4,1.6-5.46,3.34a30.27,30.27,0,0,1-1.84-8l3.09-1.89S200.57,215,203.37,216.56Z" transform="translate(43.99)"/><path class="cls-19" d="M203.37,216.56a38.53,38.53,0,0,0,4.79-6s3,1.09,3.91,2.16a34.69,34.69,0,0,1-3.08,6.46S205.7,216.9,203.37,216.56Z" transform="translate(43.99)"/><path class="cls-26" d="M179.15,237.67l.39,3.13,3.07,20.57s23.93,7.37,44.11,1.37l3.07-22.58.39-2.49,1.56-11.38s-15.67,5.47-31.54,4.14-22.62-4.14-22.62-4.14Z" transform="translate(43.99)"/><path class="cls-25" d="M178.11,240.91c0-.08,1-3.24,1-3.24l.39,3.13Z" transform="translate(43.99)"/><path class="cls-24" d="M182.61,243.59v0a2.34,2.34,0,0,1-.18.74c-.4,1.22-1.35,3.44-1.35,3.44l-1.23.22a2.23,2.23,0,0,1-2.25-2.15c0-.1,0-.21,0-.32a16.45,16.45,0,0,1,.69-5.28c.24-.36,2.88.34,2.88.34S182.48,243.23,182.61,243.59Z" transform="translate(43.99)"/><path class="cls-25" d="M231.22,240.91c0-.08-1-3.24-1-3.24l-.39,3.13Z" transform="translate(43.99)"/><path class="cls-24" d="M226.72,243.59s0,0,0,0a2.34,2.34,0,0,0,.18.74c.4,1.22,1.35,3.44,1.35,3.44l1.23.22a2.23,2.23,0,0,0,2.25-2.15c0-.1,0-.21,0-.32a16.15,16.15,0,0,0-.69-5.28c-.23-.36-2.88.34-2.88.34S226.84,243.23,226.72,243.59Z" transform="translate(43.99)"/><path class="cls-25" d="M180.72,243.69a5.63,5.63,0,0,1-1.94-.32.11.11,0,0,1-.07-.16.13.13,0,0,1,.16-.07,5.83,5.83,0,0,0,2.32.28.12.12,0,0,1,.13.12.12.12,0,0,1-.11.13A4.1,4.1,0,0,1,180.72,243.69Z" transform="translate(43.99)"/><path class="cls-25" d="M228.07,243.38a.12.12,0,0,1-.12-.09.11.11,0,0,1,.09-.15l1.72-.42a.11.11,0,0,1,.15.09.12.12,0,0,1-.09.15l-1.72.42Z" transform="translate(43.99)"/><path class="cls-3" d="M195.39,235.55c-5.47,0-11.21-.65-11.27-.65l0-.5a107.46,107.46,0,0,0,12.4.64v.5Z" transform="translate(43.99)"/><path class="cls-3" d="M195.49,239c-5.47,0-11.21-.65-11.27-.66l.05-.49a112.47,112.47,0,0,0,12.52.64v.5Z" transform="translate(43.99)"/><path class="cls-3" d="M194.83,242.38c-5.22,0-10.46-.64-10.51-.65l.05-.5s5.27.6,10.46.65Z" transform="translate(43.99)"/><path class="cls-3" d="M194.78,253.88c-4.13-.33-6.88-.67-6.9-.67l.06-.5s2.76.34,6.88.67Z" transform="translate(43.99)"/><path class="cls-3" d="M210.69,254.55c-3.32,0-6.89-.1-10.69-.32l0-.5a144.47,144.47,0,0,0,21.11-.11l.05.5C218.05,254.41,214.54,254.55,210.69,254.55Z" transform="translate(43.99)"/><path class="cls-3" d="M208,257.64c-10.6-.18-20.05-1.31-20.14-1.32l.06-.5c.09,0,9.52,1.14,20.08,1.32Z" transform="translate(43.99)"/><path class="cls-3" d="M213.46,257.63v-.5c2.78-.05,5.37-.19,7.69-.4l.05.49C218.85,257.44,216.25,257.58,213.46,257.63Z" transform="translate(43.99)"/><path class="cls-3" d="M205.68,260.69c-9.6-.28-17.72-1.26-17.8-1.27l.06-.5c.08,0,8.18,1,17.76,1.27Z" transform="translate(43.99)"/><path class="cls-3" d="M221.27,240.1a0,0,0,0,1,0,0h0L213,232.94a.14.14,0,0,0-.16,0l-9.23,7.49h0a.09.09,0,0,0,0,.06,0,0,0,0,0,0,0h0c0,.34-.51,8.45-.51,8.65a.13.13,0,0,0,.12.13h17a.13.13,0,0,0,.13-.12l1-9h0A.13.13,0,0,0,221.27,240.1Zm-8.37-6.91,7.93,6.85-16.79.34ZM220,249H203.29c.05-.85.34-5.68.51-8.4l17.22-.36Z" transform="translate(43.99)"/><path class="cls-3" d="M201.87,240.85l-1.4-.12a.12.12,0,0,0-.14.11.12.12,0,0,0,.11.14l.52,0-.75,8-.52-.05h0a.12.12,0,0,0-.12.12.11.11,0,0,0,.11.13l.63.06h0l.74.07h0a.12.12,0,0,0,.12-.12.12.12,0,0,0-.11-.13l-.63-.06.75-8,.63.06h0A.13.13,0,0,0,202,241,.14.14,0,0,0,201.87,240.85Z" transform="translate(43.99)"/><path class="cls-3" d="M202.35,238.36l7.9-5.88.44.41a.1.1,0,0,0,.09,0,.18.18,0,0,0,.09,0,.14.14,0,0,0,0-.18l-1-1a.13.13,0,0,0-.18,0,.12.12,0,0,0,0,.17l.41.38-7.9,5.88-.4-.37a.14.14,0,0,0-.18,0,.13.13,0,0,0,0,.18l1,1a.11.11,0,0,0,.08,0,.11.11,0,0,0,.09,0,.13.13,0,0,0,0-.18Z" transform="translate(43.99)"/><path class="cls-3" d="M215.3,232.93a.14.14,0,0,0,.09,0l.42-.41,6.72,5.84-.41.39a.13.13,0,0,0,0,.18.12.12,0,0,0,.09,0,.11.11,0,0,0,.08,0l1-1a.12.12,0,0,0,0-.17.14.14,0,0,0-.18,0l-.42.41L216,232.32l.41-.4a.11.11,0,0,0,0-.17.12.12,0,0,0-.17,0l-1,1a.14.14,0,0,0,0,.18Z" transform="translate(43.99)"/><path class="cls-3" d="M223.94,240.48l-1.39-.18a.13.13,0,0,0,0,.25l.57.07L222,249l-.57-.07c-.06,0-.13,0-.14.11a.13.13,0,0,0,.11.14l.7.08h0l.69.09h0a.12.12,0,0,0,.12-.11.12.12,0,0,0-.11-.13l-.57-.08,1.07-8.39.57.07h0a.13.13,0,0,0,.12-.11A.12.12,0,0,0,223.94,240.48Z" transform="translate(43.99)"/><path class="cls-24" d="M210.73,204.76s2-.87,2.27-2,.34-2-.29-2.28-2,.58-2,.58Z" transform="translate(43.99)"/><path class="cls-24" d="M197.91,204.76s-2.08-.29-2.18-2.08.39-2.23,1.06-2.18a1.26,1.26,0,0,1,1,.53Z" transform="translate(43.99)"/><path class="cls-23" d="M198,205.74l-.07-.11a13.67,13.67,0,0,1-.7-1.18A42.28,42.28,0,0,1,196,200l1.75.26Z" transform="translate(43.99)"/><path class="cls-23" d="M212.26,200.19l-.93,4.42a2.42,2.42,0,0,1-.59.91c-.09,0,.33-5.46.33-5.46Z" transform="translate(43.99)"/><path class="cls-24" d="M197,199.43s.53,2.81.63,3.88a13.87,13.87,0,0,0,.53,3.82c.43,1,4.06,4,5.56,4.11s5.86-3,6.44-3.92a6.63,6.63,0,0,0,.72-3.09c0-.49.49-3,.58-4.6s1.89-4.31-1.06-6.39-7.55-2.85-9.1-2.18-3,.78-3.82,2.67S197,199.43,197,199.43Z" transform="translate(43.99)"/><path class="cls-13" d="M195.29,199.9s.78,2.95,7.26,3.11,8.71.11,10.36-2.51l-7.94-.87Z" transform="translate(43.99)"/><path class="cls-13" d="M195.29,199.87a15.73,15.73,0,0,1,.63-6.53c1.11-3.58,2.57-6.87,8.23-6.92a8.46,8.46,0,0,1,8.61,6.19c.58,2.23.15,7.79.15,7.79S201.5,202.5,195.29,199.87Z" transform="translate(43.99)"/><path class="cls-13" d="M202.55,196.36s-.39-10.46-.14-10.55a17.77,17.77,0,0,1,4.3.13c.29.26.1,10.16,0,10.38A10.17,10.17,0,0,1,202.55,196.36Z" transform="translate(43.99)"/><path class="cls-3" d="M205.13,201a30.8,30.8,0,0,1-9.2-1.27.13.13,0,1,1,.08-.24,31.21,31.21,0,0,0,11.17,1.2.13.13,0,0,1,.13.12.12.12,0,0,1-.12.13C206.48,201,205.79,201,205.13,201Z" transform="translate(43.99)"/><path class="cls-3" d="M209.35,200.78a.14.14,0,0,1-.13-.11.14.14,0,0,1,.11-.14c1-.12,1.95-.27,2.91-.46a.12.12,0,0,1,.14.1.12.12,0,0,1-.1.15c-1,.19-1.94.34-2.92.46Z" transform="translate(43.99)"/><path class="cls-14" d="M204.1,196.66a3.66,3.66,0,0,1-1.5-.18c-.23-.19-.22-.71-.21-1.3v-.37c0-.67-.19-7.58-.19-7.65a.12.12,0,0,1,.12-.12h0a.12.12,0,0,1,.12.12c0,.07.19,7,.19,7.65v.38c0,.46,0,1,.12,1.1a8.32,8.32,0,0,0,2.27.1.13.13,0,0,1,0,.25S204.6,196.66,204.1,196.66Z" transform="translate(43.99)"/><path class="cls-14" d="M206.42,196.64a.64.64,0,0,1-.21,0,.13.13,0,0,1-.06-.17.12.12,0,0,1,.16-.06.3.3,0,0,0,.21,0,.43.43,0,0,0,.17-.32c.09-.59.12-6.35.06-7.94a.12.12,0,0,1,.12-.13h0a.12.12,0,0,1,.13.12c.06,1.65,0,7.37-.07,8a.62.62,0,0,1-.29.5A.46.46,0,0,1,206.42,196.64Z" transform="translate(43.99)"/><path class="cls-14" d="M210.59,195.7a6.52,6.52,0,0,1-1.4-.23c-.1,0-.41-.12-.09-6.19a.13.13,0,1,1,.25,0,38.47,38.47,0,0,0,0,5.94,3.49,3.49,0,0,0,1.55.17c0-.19.18-2.44.25-3.9a.13.13,0,0,1,.13-.12h0a.12.12,0,0,1,.11.13c0,.38-.19,3.67-.26,4a.23.23,0,0,1-.12.15A.78.78,0,0,1,210.59,195.7Zm-1.28-.44Z" transform="translate(43.99)"/><path class="cls-14" d="M199.19,195.71h-.12a.41.41,0,0,1-.37-.21c-.17-.36-.44-5-.47-5.53a.14.14,0,0,1,.12-.13h0a.12.12,0,0,1,.12.12c.11,2,.33,5.19.44,5.44,0,0,.05,0,.17.06a3,3,0,0,0,1.46-.37c.08-.26-.21-3.37-.41-5.27a.13.13,0,0,1,.25,0,38,38,0,0,1,.36,5.44A2.8,2.8,0,0,1,199.19,195.71Z" transform="translate(43.99)"/><path class="cls-11" d="M30.55,290.64c-4.77,0-8.64,6.54-8.64,14.6s3.87,14.59,8.64,14.59h91V290.64Z" transform="translate(43.99)"/><path class="cls-27" d="M22.25,309.25c1,6.11,4.35,10.58,8.3,10.58h91V309.25Z" transform="translate(43.99)"/><path class="cls-13" d="M37.94,295.15H29.81a.25.25,0,0,1,0-.5h8.13a.25.25,0,0,1,0,.5Z" transform="translate(43.99)"/><path class="cls-13" d="M100.65,295.15H46.07a.25.25,0,1,1,0-.5h54.58a.25.25,0,0,1,0,.5Z" transform="translate(43.99)"/><ellipse class="cls-11" cx="165.51" cy="305.24" rx="8.64" ry="14.6"/><ellipse class="cls-5" cx="165.77" cy="305.24" rx="7.52" ry="12.59"/><path class="cls-13" d="M115.56,316.05a.26.26,0,0,1-.2-.1,18.42,18.42,0,0,1-2.73-9.08,23.62,23.62,0,0,1,.74-7.46.25.25,0,0,1,.31-.18.24.24,0,0,1,.17.3,23,23,0,0,0-.72,7.31,18.29,18.29,0,0,0,2.63,8.81.25.25,0,0,1-.05.35A.3.3,0,0,1,115.56,316.05Z" transform="translate(43.99)"/><path class="cls-13" d="M114.86,296.26a.2.2,0,0,1-.11,0,.24.24,0,0,1-.12-.33,11.7,11.7,0,0,1,2.35-3.45.25.25,0,1,1,.35.37,11,11,0,0,0-2.25,3.29A.24.24,0,0,1,114.86,296.26Z" transform="translate(43.99)"/><path class="cls-11" d="M47.12,319.83c-4.77,0-8.64,6.54-8.64,14.6S42.35,349,47.12,349h91V319.83Z" transform="translate(43.99)"/><path class="cls-27" d="M47.12,349h91V336.33H38.56C39.11,343.49,42.73,349,47.12,349Z" transform="translate(43.99)"/><ellipse class="cls-11" cx="182.08" cy="334.43" rx="8.64" ry="14.6"/><ellipse class="cls-5" cx="182.33" cy="334.43" rx="7.52" ry="12.59"/><path class="cls-13" d="M129.73,338.42a.24.24,0,0,1-.24-.22c-1.55-10.85,4-16.49,4-16.54a.25.25,0,0,1,.36,0,.26.26,0,0,1,0,.35c-.06.06-5.43,5.53-3.92,16.12a.24.24,0,0,1-.21.28Z" transform="translate(43.99)"/><path class="cls-11" d="M25.32,319.83c-4.77,0-8.64,6.54-8.64,14.6S20.55,349,25.32,349h91V319.83Z" transform="translate(43.99)"/><path class="cls-27" d="M25.32,349h91.45V336.33h-100C17.32,343.49,20.93,349,25.32,349Z" transform="translate(43.99)"/><path class="cls-13" d="M47.42,324.34H24.58a.25.25,0,0,1-.25-.25.25.25,0,0,1,.25-.25H47.42a.25.25,0,0,1,.25.25A.25.25,0,0,1,47.42,324.34Z" transform="translate(43.99)"/><path class="cls-13" d="M95.42,324.34H51.94a.25.25,0,0,1-.25-.25.25.25,0,0,1,.25-.25H95.42a.26.26,0,0,1,.25.25A.25.25,0,0,1,95.42,324.34Z" transform="translate(43.99)"/><ellipse class="cls-11" cx="160.28" cy="334.43" rx="8.64" ry="14.6"/><ellipse class="cls-5" cx="160.54" cy="334.43" rx="7.52" ry="12.59"/><path class="cls-13" d="M111,323.38a.25.25,0,0,1-.2-.4,12.21,12.21,0,0,1,2.37-2.46.25.25,0,0,1,.35.06.26.26,0,0,1-.06.35,11.64,11.64,0,0,0-2.26,2.35A.25.25,0,0,1,111,323.38Z" transform="translate(43.99)"/><path class="cls-13" d="M110.15,344.94a.24.24,0,0,1-.23-.14l-.31-.65c-1.58-3.26-2.54-5.23-2.1-12a17.14,17.14,0,0,1,1.75-6.63.25.25,0,0,1,.45.22,16.75,16.75,0,0,0-1.7,6.44c-.43,6.69.5,8.61,2,11.8l.31.65a.26.26,0,0,1-.11.34Z" transform="translate(43.99)"/><polygon class="cls-3" points="83.85 349.1 107.14 290.64 99.03 290.64 75.74 349.1 83.85 349.1"/><polygon class="cls-3" points="114.02 349.1 137.31 290.64 129.2 290.64 105.91 349.1 114.02 349.1"/><path class="cls-12" d="M80.07,330.26s-1.29-21.42-1.55-23-8.78-34.19-8.78-34.19l16.65-.52S88.84,305,89.1,307.42s.64,23.22.64,23.22S82.52,331,80.07,330.26Z" transform="translate(43.99)"/><path class="cls-13" d="M79,355.42c-.19,0,.19-5.1.26-6.39s1.22-8,1.16-9.68-.77-10.19-.77-10.19,8.25-.32,11.09.39c0,0-.71,14.64-.45,15.55a16.21,16.21,0,0,0,2.26,3.8c.84,1.1,5.55,1.94,6.84,3a5,5,0,0,1,1.29,3.36,62.49,62.49,0,0,1-8.13,1c-3.1.07-6.9-.64-7.81-.64S80.26,355.42,79,355.42Z" transform="translate(43.99)"/><path class="cls-14" d="M85.26,346.85a.13.13,0,0,1,0-.25,14.17,14.17,0,0,0,4.17-1,.14.14,0,0,1,.17.07.13.13,0,0,1-.07.16,14.71,14.71,0,0,1-4.25,1Z" transform="translate(43.99)"/><path class="cls-14" d="M89,344.82h0a7.34,7.34,0,0,1-2.17-.55.12.12,0,0,1-.06-.16.13.13,0,0,1,.17-.06,7.63,7.63,0,0,0,2.09.52.12.12,0,0,1,.11.13A.13.13,0,0,1,89,344.82Z" transform="translate(43.99)"/><path class="cls-12" d="M58.65,331.93s-.78-29.16-.78-30.45S55,268.84,55,268.84l17-.39s-3.1,32.13-3,33.68-1,29.55-1,29.55S60.58,332.45,58.65,331.93Z" transform="translate(43.99)"/><path class="cls-13" d="M58.78,347.35l-1-17.42s9.42-.25,11.35,0c0,0-1.29,17.1-1.35,17.94a11.86,11.86,0,0,0,.39,2.65,21.8,21.8,0,0,1,1.42,3.29c.06.64,0,2.25,0,2.25s-8.39.58-10.78.39-2.51-1-2.51-1l.19-3.48a18.22,18.22,0,0,0,1.42-2.26C58.2,349.1,58.78,347.35,58.78,347.35Z" transform="translate(43.99)"/><path class="cls-14" d="M61.89,348.11a3.66,3.66,0,0,1-2.16-.56.16.16,0,0,1,0-.11.14.14,0,0,1,.07-.1l1.3-.72a.12.12,0,0,1,.17,0,.12.12,0,0,1,0,.17l-1.12.63a3.81,3.81,0,0,0,1.83.4A.12.12,0,0,1,62,348,.12.12,0,0,1,61.89,348.11Z" transform="translate(43.99)"/><path class="cls-14" d="M64.79,347.87a.13.13,0,0,1-.12-.11.12.12,0,0,1,.11-.14,7.18,7.18,0,0,0,1.81-.54l-.53-.19a.12.12,0,0,1-.08-.16.13.13,0,0,1,.16-.07L67,347a.13.13,0,0,1,.09.1.14.14,0,0,1-.07.12,7,7,0,0,1-2.17.7Z" transform="translate(43.99)"/><path class="cls-6" d="M77.62,212.93s4.74,3.88,6.87,8.42a38.29,38.29,0,0,1,2.51,6.2l-6,1.74Z" transform="translate(43.99)"/><path class="cls-28" d="M60.1,211.77s6.1-1,9.87-.38,1,4.35-1.13,4.93-5.55,1.42-6.71.32S60.1,211.77,60.1,211.77Z" transform="translate(43.99)"/><path class="cls-6" d="M60.1,211.77s4.29,4.68,7.58,3.33S70,211.39,70,211.39s2.36,1.13,2.68,2.22.13,9.62.13,9.62l-5.16,2.38Z" transform="translate(43.99)"/><path class="cls-13" d="M52.84,269.16s11.52,2,20.61,1.45,13.65-1.93,13.65-1.93l-4.55-27s.29-14.62.19-16.16-4.35-11.71-5.12-12.59S70,211.39,70,211.39a21,21,0,0,1,.48,11.8s-5-5.9-6.38-7.26-4-4.16-4-4.16-4.65.49-5.9,1.46-1,15.58-.2,20.22,1.26,10,1.26,10S52.74,263.16,52.84,269.16Z" transform="translate(43.99)"/><path class="cls-14" d="M71.16,266.52c4.33,1.73,12.82-.08,15.46-.71L86.14,263l-1.69-3.45s-8.77,2.06-12.51,1.29c-3.53-.73-16.25-8.24-17.67-9.08-.22,1.91-.44,4-.65,6.05C57.8,260,67.21,264.93,71.16,266.52Z" transform="translate(43.99)"/><path class="cls-3" d="M65.43,265.14a119.83,119.83,0,0,0,20.8-1.65L86,262c-2.44.44-4.92.77-7.38,1,0-5.21-.35-33.43-1.07-37.82-.59-3.63-2.33-10.31-3.11-13.24l-1.3-.2c.69,2.54,2.6,9.82,3.23,13.64.69,4.27,1,32.94,1.05,37.73-4,.35-7.9.48-11.4.49.11-4.71.56-26.06-.32-31.85S61.23,215.87,58.63,212c-.48.07-1,.16-1.57.28,2.88,3.17,6.26,14,7.14,19.76.85,5.61.4,27.09.3,31.63-5.39,0-9.61-.33-11.37-.47,0,.51-.08,1-.11,1.5C54.92,264.82,59.55,265.14,65.43,265.14Z" transform="translate(43.99)"/><path class="cls-14" d="M60.26,243.8a10.47,10.47,0,0,1-3.59-.52.12.12,0,0,1-.07-.17.13.13,0,0,1,.16-.07,10.2,10.2,0,0,0,3.5.51.13.13,0,0,1,.13.13A.12.12,0,0,1,60.26,243.8Z" transform="translate(43.99)"/><path class="cls-14" d="M59.16,236a.13.13,0,0,1-.11-.08,19.35,19.35,0,0,0-2.5-4.1.12.12,0,0,1,.19-.16,19.15,19.15,0,0,1,2.54,4.16.12.12,0,0,1-.06.16Z" transform="translate(43.99)"/><path class="cls-14" d="M59.81,231.48l-.06,0A13.05,13.05,0,0,0,57,230.25a.14.14,0,0,1-.09-.16.13.13,0,0,1,.16-.08,13.14,13.14,0,0,1,2.8,1.24.13.13,0,0,1,.05.17A.14.14,0,0,1,59.81,231.48Z" transform="translate(43.99)"/><polygon class="cls-29" points="113.22 272.97 116.06 230 160.71 242.13 153.87 286.77 113.22 272.97"/><polygon class="cls-8" points="160.71 242.13 184.41 232.97 176.63 269.62 153.87 286.77 160.71 242.13"/><polygon class="cls-9" points="116.06 230 143.67 222.77 184.41 232.97 160.71 242.13 116.06 230"/><path class="cls-8" d="M113.58,246.18l-39.39-10a.24.24,0,0,0-.3.18.25.25,0,0,0,.18.3l29.67,7.51-28.9,25.93s0,0,0,.05l-3.07-.94a.26.26,0,0,0-.31.17.24.24,0,0,0,.17.31L108,280.82h.08a.26.26,0,0,0,.24-.18.25.25,0,0,0-.17-.31l-24.91-7.6,29.29-26.23s0,0,0-.08l.9.23h.06a.26.26,0,0,0,.24-.19A.24.24,0,0,0,113.58,246.18ZM82.67,272.57l-7.32-2.23,29-26a0,0,0,0,0,0,0l7.7,2Z" transform="translate(43.99)"/><path class="cls-29" d="M137.33,238.93a.26.26,0,0,0-.33-.13L125,244l0,0-5.77,2.49a.24.24,0,0,0-.13.33.25.25,0,0,0,.23.15l.09,0,5.33-2.3-9.19,32.49L113,278.62a.25.25,0,0,0,.12.47.22.22,0,0,0,.13,0l2.44-1.42h0a.26.26,0,0,0,.24-.18l5.84-3.41h0a.24.24,0,0,0,.21-.14l9.59-5.61a.25.25,0,0,0-.25-.43l-9.13,5.34,8.44-31a.36.36,0,0,0,0-.15l6.52-2.82A.25.25,0,0,0,137.33,238.93Zm-15.69,34.64-5.46,3.2,9.16-32.39,4.82-2.08Z" transform="translate(43.99)"/><path class="cls-28" d="M56.45,234.64S54,242.35,53,245.06a42.77,42.77,0,0,1,6.2,3.49c1.64,1.35,7.55,6.58,9.39,7.64l-1.55,4.45S49,251.26,45.78,249.23c0,0-1.07-2.91-1.26-3.3s2.9-14.22,2.9-14.22Z" transform="translate(43.99)"/><path class="cls-6" d="M54.2,213.23s5.09,1,5.48,5.54-2.45,13.29-3.23,15.87c0,0-8.25-.77-13.16-4.12C43.29,230.52,46.26,217,54.2,213.23Z" transform="translate(43.99)"/><path class="cls-30" d="M49.31,246.88a.11.11,0,0,1-.1,0,.12.12,0,0,1,0-.17,13.5,13.5,0,0,1,2.55-1.23.12.12,0,0,1,.16.08.13.13,0,0,1-.07.16,12.29,12.29,0,0,0-2.48,1.19Z" transform="translate(43.99)"/><path class="cls-30" d="M51.92,245.09h0A5.13,5.13,0,0,0,50,244.8a.13.13,0,0,1-.06-.25,5.46,5.46,0,0,1,2.05.3A.12.12,0,0,1,52,245,.13.13,0,0,1,51.92,245.09Z" transform="translate(43.99)"/><path class="cls-12" d="M69.58,256.48a10,10,0,0,1,3.58-.67c1.65.09,4.5-.34,4.94-.25s.34.63-.1,1a10.34,10.34,0,0,1-2.66.82,13.62,13.62,0,0,0,1.79,1,18.55,18.55,0,0,0,3.1.87,23.91,23.91,0,0,1,1.64,3.1c0,.43-2.32,3-3,3.19s-6.87-1.64-10.5-4.26Z" transform="translate(43.99)"/><path class="cls-12" d="M66.1,260.93s1.6-5.41,2.08-5.51a5.93,5.93,0,0,1,1.94.53s-1.46,5-1.79,5.61S66.68,261.32,66.1,260.93Z" transform="translate(43.99)"/><path class="cls-15" d="M68.62,260.87h0a.12.12,0,0,1-.08-.16s.87-2.55,1.16-3.71a.13.13,0,0,1,.15-.1.15.15,0,0,1,.09.16c-.29,1.17-1.16,3.71-1.17,3.73A.12.12,0,0,1,68.62,260.87Z" transform="translate(43.99)"/><path class="cls-28" d="M68.74,212.22s-5,1.07-8.09-.32l.8-3.51.36-2.62,4.1,1.52,2.19.81.4,2.6Z" transform="translate(43.99)"/><path class="cls-30" d="M68.5,210.7a16.45,16.45,0,0,1-1.6-.51,6.59,6.59,0,0,1-3.35-3.26l2.36.36,2.19.81Z" transform="translate(43.99)"/><path class="cls-28" d="M61.81,205.77a36.46,36.46,0,0,0,3.58,3,32.61,32.61,0,0,0,3.94,1,8.35,8.35,0,0,0,3.51-.35c.29-.26.39-1.94.65-2.49S75,203.19,75,202.87s-1.48-1.39-1.58-2.19a5.16,5.16,0,0,1,.42-2.49c.36-.9.84-2.58.84-2.58s1.23-5-2.65-6.32-9.7-.52-11,1.81-2.16,4.35-1.87,6.61S59.07,203.48,61.81,205.77Z" transform="translate(43.99)"/><path class="cls-31" d="M69.15,195.13c-.15.14-1.6,4.35-1.6,4.35s-.24,2.57-.53,2.42-.68-2.51-1.07-3-1.35-1.59-2.22-.77-1.7,2.13.72,3.19a14.48,14.48,0,0,0-.67,1.84,9.4,9.4,0,0,1-.39,1.31l-.63-.73a4.36,4.36,0,0,0-.48.92,11.4,11.4,0,0,1-.47,1.11,21.9,21.9,0,0,1-1.76-1.4,12.39,12.39,0,0,1-1.55-3.29v1.4s-1.74-4.35-1.74-5.42,4.89-4.74,6.92-5.22,4-.49,4.89,0S69.15,195.13,69.15,195.13Z" transform="translate(43.99)"/><path class="cls-13" d="M56.91,197.93s-1.07-4.35.09-7.59,3.29-5.61,7.94-6.1a9.25,9.25,0,0,1,8.85,4.45,23.9,23.9,0,0,1,1.6,5.91s4.06,0,4.26.38-.29.78-.29.78S63.46,196,56.91,197.93Z" transform="translate(43.99)"/><path class="cls-13" d="M72.15,187.92l1.18-1.28s-2.59-3-8.07-2.61-7.1,3.29-7.93,5.65l.54.06a10.83,10.83,0,0,1,6.46-3.48S68.94,185.52,72.15,187.92Z" transform="translate(43.99)"/><path class="cls-3" d="M70.64,195a.12.12,0,0,1-.12-.11.12.12,0,0,1,.11-.14c1.79-.13,3.05-.19,3.06-.19a.13.13,0,1,1,0,.25s-1.26.06-3,.19Z" transform="translate(43.99)"/><path class="cls-3" d="M59.13,196.71a.14.14,0,0,1-.12-.09.13.13,0,0,1,.08-.16,50,50,0,0,1,9.11-1.54.12.12,0,0,1,.14.11.14.14,0,0,1-.12.14,49.38,49.38,0,0,0-9,1.53Z" transform="translate(43.99)"/><path class="cls-14" d="M57.73,190.08a.11.11,0,0,1-.08,0,.14.14,0,0,1,0-.18,11.19,11.19,0,0,1,7.54-3.82c4.25-.25,6.48,1.31,7,1.69l.3-.34a.13.13,0,0,1,.18,0,.14.14,0,0,1,0,.18l-.39.43a.1.1,0,0,1-.09,0,.14.14,0,0,1-.09,0s-2.24-2-6.87-1.71A10.86,10.86,0,0,0,57.83,190,.14.14,0,0,1,57.73,190.08Z" transform="translate(43.99)"/><path class="cls-14" d="M60.74,191.54a.11.11,0,0,1-.1,0,.13.13,0,0,1,0-.17c2.8-1.94,7-2.06,8-2.06h0l-.55-1.52a16.15,16.15,0,0,0-8,2.07.13.13,0,0,1-.17,0,.13.13,0,0,1,0-.18,16.23,16.23,0,0,1,7.9-2.12h.3a.11.11,0,0,1,.11.08l.65,1.77a.13.13,0,0,1,0,.12.16.16,0,0,1-.1,0s-4.93-.13-8,2A.12.12,0,0,1,60.74,191.54Z" transform="translate(43.99)"/><path class="cls-9" d="M310.52,375.42c.77-.26,100.64,0,100.64,0s-3.35-6.19-6.19-6.71-6.71-.78-6.71-.78-1.29-11.61-6.19-11.61-11.62,3.1-11.62,3.1-1.8-8.78-5.93-8.26a42.1,42.1,0,0,0-8.26,2.07s-1.58-11.72-10.32-8.52-9.81,12.39-9.81,12.39-4.64-2.58-6.45-.52-2.84,7.23-2.84,7.23-7-.78-9,1a34,34,0,0,0-4.65,5.93l-7,1.29Z" transform="translate(43.99)"/><path class="cls-9" d="M227.94,386.52h73.55s-4.65-3.1-6.2-4.39-8.51-.52-8.51-.52-6.71-1.8-7.49-2.06-5.16-2.58-5.93-1.81,3.09-6.71-2.84-7-11.87,4.91-12.65,4.91-3.61-4.13-6.71-2.33-4.38,4.91-5.67,5.68-3.36.52-6.2,1.81a12.34,12.34,0,0,0-4.64,4.13Z" transform="translate(43.99)"/><path class="cls-9" d="M13.74,375.16h111s-2.06-4.64-4.9-5.16-8.52.52-8.52.52-7-8.78-10.84-7.75-5.67,4.39-7.74,2.84-13.93-14.45-20.9-13.42A61.4,61.4,0,0,1,56.52,352l-11-2.9s-7.23,3.87-8,7.48-5.16,4.13-8.26,7.48a65.82,65.82,0,0,1-6.71,6.2s-4.65-.26-5.94,1A25.61,25.61,0,0,0,13.74,375.16Z" transform="translate(43.99)"/></g></g></svg>