<svg xmlns="http://www.w3.org/2000/svg" viewBox="0 0 131.26 87.71"><defs><style>.cls-1{fill:#fab99c;}.cls-2{fill:#f28e72;}.cls-3{fill:#ef6c45;}</style></defs><g id="Capa_2" data-name="Capa 2"><g id="Capa_1-2" data-name="Capa 1"><path class="cls-1" d="M72.6,29.9,70.2,0H61.31L58.9,29.9Z"/><path class="cls-2" d="M125.49,78.82c0-16.56-8.18-39.78-23.8-53.12A62.67,62.67,0,0,0,89,17.54l-1.2-8.65A54.67,54.67,0,0,0,70.68,4l2.16,25.7H59.14L61.31,3.71A44.88,44.88,0,0,0,44.24,8.65L42.8,17.3C26.93,24.71,15.63,39,10.34,55.1A71.75,71.75,0,0,0,6.5,78.57h119Z"/><path class="cls-3" d="M119,49.91a25.71,25.71,0,0,1-1.2,10.38c-1.93,5.68-3.85,7.9-9.38,8.64-23.32,2.23-26,.74-71.15,1-4.33,0-11.3-.49-15.15-2.72-4.08-2.47-4.56-8.15-3.6-12.6,1.44-5.93,5.77-10.13,9.37-14.82,1.93-2.72,3.85-5.44,4.81-8.65.72-3,1.44-6.18,2.4-9.14-12,7.91-20.67,20.26-25.24,33.6A71.79,71.79,0,0,0,6,79.06H125.25C125.49,70.17,123.32,59.79,119,49.91Z"/><path class="cls-3" d="M86.31,9.14l4.56,30.39L93.52,39,89,8.65"/><path class="cls-3" d="M39.91,39.53,45.2,9.14l-2.4-.49L37.51,39"/><path class="cls-1" d="M126,78.82H5.3S-.23,79.06,0,87.71H131.26C131.5,79.06,126,78.82,126,78.82Z"/></g></g></svg>