<svg xmlns="http://www.w3.org/2000/svg" viewBox="0 0 471.53 130.29"><defs><style>.cls-1{fill:#ec6c3d;}.cls-2{fill:#f7b89d;}.cls-3{fill:#696968;}.cls-4{fill:#bbb;}</style></defs><g id="Capa_2" data-name="Capa 2"><g id="Capa_2-2" data-name="Capa 2"><path class="cls-1" d="M151,73.73a7.59,7.59,0,0,1-3.17-2.54,6.57,6.57,0,0,1-1.19-3.76h3.6a4.85,4.85,0,0,0,1.51,3.09,5.39,5.39,0,0,0,3.84,1.25,5.61,5.61,0,0,0,3.81-1.22,4,4,0,0,0,1.39-3.12A3.52,3.52,0,0,0,160,65a5.17,5.17,0,0,0-2-1.43,32.63,32.63,0,0,0-3.3-1,29.07,29.07,0,0,1-4.11-1.35,6.61,6.61,0,0,1-2.64-2.11,6.25,6.25,0,0,1-1.09-3.88,6.75,6.75,0,0,1,1.08-3.78,7,7,0,0,1,3-2.54,10.57,10.57,0,0,1,4.48-.9,9.33,9.33,0,0,1,6,1.83A6.81,6.81,0,0,1,164,54.67h-3.72A4,4,0,0,0,158.68,52,5.51,5.51,0,0,0,155,50.89a5.27,5.27,0,0,0-3.45,1.1,3.8,3.8,0,0,0-1.34,3.09,3.37,3.37,0,0,0,.8,2.32,5.22,5.22,0,0,0,2,1.37c.78.31,1.88.66,3.29,1.06a31.57,31.57,0,0,1,4.12,1.41,6.83,6.83,0,0,1,2.67,2.13,6.18,6.18,0,0,1,1.12,3.91,7,7,0,0,1-1,3.59,7.4,7.4,0,0,1-3,2.73,9.72,9.72,0,0,1-4.64,1.05A10.88,10.88,0,0,1,151,73.73Z"/><path class="cls-1" d="M169.2,58.54a9.13,9.13,0,0,1,3.47-3.68,9.39,9.39,0,0,1,4.92-1.31,8.91,8.91,0,0,1,4.64,1.16,7.7,7.7,0,0,1,2.94,2.92V53.88h3.41V74.39h-3.41V70.57a8.06,8.06,0,0,1-3,3,9,9,0,0,1-4.63,1.18,9.14,9.14,0,0,1-4.9-1.35,9.43,9.43,0,0,1-3.45-3.78,11.75,11.75,0,0,1-1.27-5.54A11.53,11.53,0,0,1,169.2,58.54Zm15,1.52a6.6,6.6,0,0,0-2.51-2.64,7.05,7.05,0,0,0-6.93,0A6.41,6.41,0,0,0,172.32,60a8.4,8.4,0,0,0-.93,4,8.59,8.59,0,0,0,.93,4.1,6.58,6.58,0,0,0,2.48,2.66,6.7,6.7,0,0,0,3.46.91,6.79,6.79,0,0,0,3.47-.91,6.65,6.65,0,0,0,2.51-2.66,8.48,8.48,0,0,0,.93-4.06A8.37,8.37,0,0,0,184.24,60.06Z"/><path class="cls-1" d="M202.59,56.69h-4.28v17.7h-3.38V56.69H192.3V53.88h2.63V52.42q0-3.44,1.77-5t5.66-1.59v2.84a4.51,4.51,0,0,0-3.14.88,4,4,0,0,0-.91,2.9v1.46h4.28Z"/><path class="cls-1" d="M225,65.41H208.71a6.63,6.63,0,0,0,2.07,4.73,6.48,6.48,0,0,0,4.54,1.7,6.25,6.25,0,0,0,3.66-1A5.44,5.44,0,0,0,221,68.07h3.64a8.77,8.77,0,0,1-3.26,4.8,9.82,9.82,0,0,1-6.1,1.86,10.28,10.28,0,0,1-5.18-1.31,9.33,9.33,0,0,1-3.58-3.73,11.57,11.57,0,0,1-1.3-5.59,11.83,11.83,0,0,1,1.26-5.58,8.93,8.93,0,0,1,3.55-3.68,10.48,10.48,0,0,1,5.25-1.29,10.14,10.14,0,0,1,5.13,1.27,8.77,8.77,0,0,1,3.44,3.5,10.42,10.42,0,0,1,1.2,5A18.63,18.63,0,0,1,225,65.41Zm-4.23-6.12a5.61,5.61,0,0,0-2.32-2.13,7.15,7.15,0,0,0-3.25-.73,6.28,6.28,0,0,0-4.37,1.64,6.73,6.73,0,0,0-2.06,4.57H221.6A6.32,6.32,0,0,0,220.75,59.29Z"/><path class="cls-1" d="M233.17,73.73A7.53,7.53,0,0,1,230,71.19a6.49,6.49,0,0,1-1.19-3.76h3.6a4.79,4.79,0,0,0,1.5,3.09,5.4,5.4,0,0,0,3.85,1.25,5.56,5.56,0,0,0,3.8-1.22,4,4,0,0,0,1.4-3.12,3.52,3.52,0,0,0-.82-2.43,5.17,5.17,0,0,0-2-1.43,32.13,32.13,0,0,0-3.31-1,28.88,28.88,0,0,1-4.1-1.35,6.61,6.61,0,0,1-2.64-2.11A6.25,6.25,0,0,1,229,55.19,6.74,6.74,0,0,1,230,51.41a7.1,7.1,0,0,1,3-2.54,10.57,10.57,0,0,1,4.48-.9,9.35,9.35,0,0,1,6,1.83,6.85,6.85,0,0,1,2.62,4.87H242.4A4,4,0,0,0,240.84,52a5.53,5.53,0,0,0-3.64-1.14,5.27,5.27,0,0,0-3.45,1.1,3.8,3.8,0,0,0-1.34,3.09,3.37,3.37,0,0,0,.8,2.32,5.22,5.22,0,0,0,2,1.37c.78.31,1.87.66,3.29,1.06a32.1,32.1,0,0,1,4.12,1.41,6.83,6.83,0,0,1,2.67,2.13,6.24,6.24,0,0,1,1.12,3.91,6.89,6.89,0,0,1-1,3.59,7.44,7.44,0,0,1-3,2.73,9.72,9.72,0,0,1-4.64,1.05A10.88,10.88,0,0,1,233.17,73.73Z"/><path class="cls-1" d="M255.47,56.69V68.78a2.85,2.85,0,0,0,.64,2.11,3.1,3.1,0,0,0,2.19.62h2.49v2.88h-3.05a6,6,0,0,1-4.23-1.31c-.95-.87-1.42-2.31-1.42-4.3V56.69h-2.63V53.88h2.63V48.72h3.38v5.16h5.32v2.81Z"/><path class="cls-1" d="M264.87,58.54a9.2,9.2,0,0,1,3.47-3.68,9.44,9.44,0,0,1,4.92-1.31,8.94,8.94,0,0,1,4.65,1.16,7.61,7.61,0,0,1,2.93,2.92V53.88h3.42V74.39h-3.42V70.57a8,8,0,0,1-3,3,8.92,8.92,0,0,1-4.62,1.18,9.14,9.14,0,0,1-4.9-1.35,9.38,9.38,0,0,1-3.46-3.78,11.87,11.87,0,0,1-1.26-5.54A11.64,11.64,0,0,1,264.87,58.54Zm15,1.52a6.57,6.57,0,0,0-2.5-2.64,7.05,7.05,0,0,0-6.93,0A6.5,6.5,0,0,0,268,60a8.4,8.4,0,0,0-.93,4,8.59,8.59,0,0,0,.93,4.1,6.52,6.52,0,0,0,5.94,3.57,6.82,6.82,0,0,0,3.48-.91,6.63,6.63,0,0,0,2.5-2.66,8.48,8.48,0,0,0,.93-4.06A8.37,8.37,0,0,0,279.91,60.06Z"/><path class="cls-1" d="M295.9,54.48a7.84,7.84,0,0,1,4-1V57H299q-5.69,0-5.68,6.21V74.39H290V53.88h3.38v3.33A6.51,6.51,0,0,1,295.9,54.48Z"/><path class="cls-1" d="M308,56.69V68.78a2.89,2.89,0,0,0,.63,2.11,3.1,3.1,0,0,0,2.19.62h2.49v2.88h-3A6,6,0,0,1,306,73.08c-.94-.87-1.41-2.31-1.41-4.3V56.69h-2.64V53.88h2.64V48.72H308v5.16h5.31v2.81Z"/><path class="cls-1" d="M343.2,48.31v2.77h-7.05V74.39h-3.38V51.08h-7.1V48.31Z"/><path class="cls-1" d="M353.29,54.48a7.79,7.79,0,0,1,4-1V57h-.89q-5.69,0-5.69,6.21V74.39h-3.38V53.88h3.38v3.33A6.53,6.53,0,0,1,353.29,54.48Z"/><path class="cls-1" d="M361.22,58.54a9.2,9.2,0,0,1,3.47-3.68,9.39,9.39,0,0,1,4.92-1.31,8.91,8.91,0,0,1,4.64,1.16,7.64,7.64,0,0,1,2.94,2.92V53.88h3.41V74.39h-3.41V70.57a8.06,8.06,0,0,1-3,3,9,9,0,0,1-4.63,1.18,9.17,9.17,0,0,1-4.9-1.35,9.43,9.43,0,0,1-3.45-3.78A11.75,11.75,0,0,1,360,64.06,11.53,11.53,0,0,1,361.22,58.54Zm15,1.52a6.6,6.6,0,0,0-2.51-2.64,7.05,7.05,0,0,0-6.93,0A6.41,6.41,0,0,0,364.34,60a8.4,8.4,0,0,0-.93,4,8.59,8.59,0,0,0,.93,4.1,6.58,6.58,0,0,0,2.48,2.66,7.05,7.05,0,0,0,6.93,0,6.65,6.65,0,0,0,2.51-2.66,8.48,8.48,0,0,0,.93-4.06A8.37,8.37,0,0,0,376.26,60.06Z"/><path class="cls-1" d="M386.44,49.88a2.24,2.24,0,0,1-.67-1.65,2.22,2.22,0,0,1,.67-1.64,2.19,2.19,0,0,1,1.63-.68,2.13,2.13,0,0,1,1.58.68,2.28,2.28,0,0,1,.65,1.64,2.3,2.3,0,0,1-.65,1.65,2.12,2.12,0,0,1-1.58.67A2.18,2.18,0,0,1,386.44,49.88Zm3.26,4V74.39h-3.38V53.88Z"/><path class="cls-1" d="M411.39,55.77Q413.7,58,413.7,62.3V74.39h-3.35V62.79a6.61,6.61,0,0,0-1.52-4.7,5.42,5.42,0,0,0-4.16-1.62,5.55,5.55,0,0,0-4.25,1.68,6.92,6.92,0,0,0-1.58,4.9V74.39h-3.38V53.88h3.38V56.8a6.7,6.7,0,0,1,2.73-2.43,8.46,8.46,0,0,1,3.81-.86A8.19,8.19,0,0,1,411.39,55.77Z"/><path class="cls-1" d="M419.34,49.88a2.28,2.28,0,0,1-.67-1.65,2.26,2.26,0,0,1,.67-1.64,2.23,2.23,0,0,1,1.64-.68,2.13,2.13,0,0,1,1.58.68,2.27,2.27,0,0,1,.64,1.64,2.29,2.29,0,0,1-.64,1.65,2.12,2.12,0,0,1-1.58.67A2.22,2.22,0,0,1,419.34,49.88Zm3.27,4V74.39h-3.38V53.88Z"/><path class="cls-1" d="M444.3,55.77c1.54,1.51,2.3,3.69,2.3,6.53V74.39h-3.34V62.79a6.66,6.66,0,0,0-1.52-4.7,5.44,5.44,0,0,0-4.16-1.62,5.57,5.57,0,0,0-4.26,1.68,6.92,6.92,0,0,0-1.57,4.9V74.39h-3.38V53.88h3.38V56.8a6.57,6.57,0,0,1,2.73-2.43,8.45,8.45,0,0,1,3.8-.86A8.22,8.22,0,0,1,444.3,55.77Z"/><path class="cls-1" d="M465.16,54.71a7.66,7.66,0,0,1,2.95,2.92V53.88h3.42v21a10.31,10.31,0,0,1-1.19,5,8.63,8.63,0,0,1-3.4,3.43,10.44,10.44,0,0,1-5.15,1.23,11.15,11.15,0,0,1-6.68-1.91,7.46,7.46,0,0,1-3.16-5.2h3.34a5.41,5.41,0,0,0,2.31,3,7.48,7.48,0,0,0,4.19,1.14,6.16,6.16,0,0,0,4.55-1.76,6.65,6.65,0,0,0,1.77-4.94V70.53a8.2,8.2,0,0,1-3,3,8.7,8.7,0,0,1-4.61,1.2,9.24,9.24,0,0,1-4.92-1.35,9.4,9.4,0,0,1-3.47-3.78,11.75,11.75,0,0,1-1.27-5.54,11.53,11.53,0,0,1,1.27-5.52,9.2,9.2,0,0,1,3.47-3.68,9.39,9.39,0,0,1,4.92-1.31A9,9,0,0,1,465.16,54.71Zm2,5.35a6.6,6.6,0,0,0-2.51-2.64,7,7,0,0,0-6.92,0A6.5,6.5,0,0,0,455.26,60a8.4,8.4,0,0,0-.93,4,8.59,8.59,0,0,0,.93,4.1,6.52,6.52,0,0,0,5.94,3.57,6.79,6.79,0,0,0,3.47-.91,6.65,6.65,0,0,0,2.51-2.66,8.48,8.48,0,0,0,.93-4.06A8.37,8.37,0,0,0,467.18,60.06Z"/><path class="cls-1" d="M0,54.71s24.75,1,40.24-3.18c0,0,22.85-7.07,21.22-49.87a.38.38,0,0,1,.75-.11C66.36,19.32,80.34,93.36,36,130.29,36,130.29,70,73.92,0,54.71Z"/><path class="cls-2" d="M7.68,57.11s45,0,52.76,37.13A78.53,78.53,0,0,1,36,130.29S64.23,76.66,7.68,57.11Z"/><path class="cls-3" d="M139.53,56.84s-24.77-.35-40-5.43c0,0-22.43-8.33-18.43-51a.38.38,0,0,0-.75-.15c-5.12,17.51-23.16,90.65,19.09,130C99.44,130.29,68.62,72.1,139.53,56.84Z"/><path class="cls-4" d="M131.73,58.81S86.85,56.34,77,92.93a78.71,78.71,0,0,0,22.44,37.36S74.19,75.16,131.73,58.81Z"/><ellipse class="cls-3" cx="105.55" cy="35.21" rx="9.95" ry="10.02"/><path class="cls-2" d="M45.54,32a10.88,10.88,0,0,1-3.7,14.84,10.7,10.7,0,0,1-14.56-4.33"/><path class="cls-1" d="M25,40.39a1.51,1.51,0,0,0-.69,2.18,1.75,1.75,0,0,0,2.35.68s1-.36,2.4-.83a94.75,94.75,0,0,0,16.78-8.75s1.69-1.11,1.86-1.27a1.78,1.78,0,0,0,.4-2.26A1.6,1.6,0,0,0,46,29.68S42.47,23,35.88,23.21a.44.44,0,0,0-.39.58L37,28.6s.63,1.57-.31,1.82c0,0-.75.28-1.19-1.38l-1.38-4.65a1.93,1.93,0,0,0-2.53-1.48l-3.52,1.8a1,1,0,0,0-.31.24c-.36.39-1.06,1.47.17,3l2.43,3.33s1.22,1.45.52,1.9c0,0-.6.79-1.87-1l-3-3.87a.29.29,0,0,0-.49,0A12.12,12.12,0,0,0,25,40.39Z"/></g></g></svg>