<svg xmlns="http://www.w3.org/2000/svg" viewBox="0 0 94.45 89.73"><defs><style>.cls-1{fill:#bdbbbc;}.cls-2{fill:#919191;}.cls-3{fill:#6a6968;}.cls-4{fill:#f99165;}.cls-5{fill:#ef6c45;}.cls-6{fill:#f8a17f;}</style></defs><g id="Capa_2" data-name="Capa 2"><g id="Capa_1-2" data-name="Capa 1"><path class="cls-1" d="M94.05,52.47l.4-12.2L87,40.07a31,31,0,0,0-2.17-7.28l6.89-3.74-5.9-10.83L78.5,22.16A63.3,63.3,0,0,0,73.39,17l4.33-7.28L67.09,3.46l-4.53,7.48a41.08,41.08,0,0,0-6.69-1.77V.31H50.56V26.49a18.32,18.32,0,0,1,0,36.61V89.27h5.31V83.76A36.54,36.54,0,0,0,62.56,82l2.56,4.92L76,81.2l-2.76-5.11a29.1,29.1,0,0,0,5.51-5.52l5.12,3.35,6.69-10.43L85,60a52,52,0,0,0,2.16-7.88Z"/><path class="cls-2" d="M89.53,62.9c-11.42,2.56-24,3.34-35.23-.2-1.18.2-2.36.4-3.74.59V89.47h5.31V84a38.22,38.22,0,0,0,6.69-1.77l2.56,4.92L76,81.4l-2.76-5.12a28.75,28.75,0,0,0,5.51-5.51l5.12,3.35,6.69-10.43Z"/><path class="cls-3" d="M50.56,18v8.46a18.32,18.32,0,0,1,0,36.61v8.46a26.78,26.78,0,0,0,26-26.77C76.73,30.42,65.12,18.62,50.56,18Z"/><path class="cls-4" d="M47.41,81.2c1.77,12-26.18,12.4-28.54-5.71C7.46,78.64-.61,67.62,4.9,57.78c-6.69-4.53-6.5-17.91.39-21.84-5.31-5.71,1.18-21.46,14-18.7-3.55-12.79,15.15-23,28.14-13Z"/><path class="cls-5" d="M47.41,56.8C42.49,55.22,36,56,37,61.32c1-1.18,2.36-2.55,3.93-2.36a3.16,3.16,0,0,1,2.56,2.36c1.58,3.35,1.58,7.68,1.18,11.42-.39,3.54-1,7.67-4.13,9.64a8.76,8.76,0,0,1-11.61-2.75,9.11,9.11,0,0,1-1.77-6.69c.59-3.15,3.15-4.92,4.52-7.68a17.67,17.67,0,0,0,1.18-11c-.39-1.77-1.37-3.94-3.14-4.72-2.17-1-4.33.59-5.32,2.36-1.38,2.95,1.38,5.9.4,8.85a9,9,0,0,1-3.55,4.53c-1.57,1-7.08,3.15-7.28-.39-.2-1.77,1.18-3.35,2.36-4.53,1.38-1.18,4.14-2.56,4.53-4.53.59-2.75-3.35-4.92-5.51-5.7a54.3,54.3,0,0,1-6.1-1.78C4.5,46.17,6.28,41.05,7.46,37.12a31.13,31.13,0,0,1,3.15-7.48c.39-.59,2-3.94,3.14-3.15,1.19.59,1,3,1.38,3.93.4,1.38,1.18,2.76,2.56,3,1.77.39,3.74-1,5.12-1.77a6.68,6.68,0,0,1,6.1-1c3.54,1.18,6.49-3.54,5.31-6.69-1.57-4.13-6.3-6.3-8.26-10.23-2.17-4.33,2.36-8.27,6.29-9.25,5.32-1.38,11.22,1,15.16,4.72V4.05c-13-10-31.69.2-28.14,13C6.47,14.29,0,30,5.29,35.74-1.6,39.67-1.79,53.06,4.9,57.58c-5.51,9.84,2.36,20.87,14,17.72C21.23,93.6,49.18,93.21,47.41,81Z"/><path class="cls-6" d="M18.67,18.22a19.05,19.05,0,0,0,2,3.94,10,10,0,0,0,4.14,3.54,12.81,12.81,0,0,0,5.7,1,1.38,1.38,0,0,0,0-2.76,14.14,14.14,0,0,1-3.15-.39,7.31,7.31,0,0,1-3.34-2A11.89,11.89,0,0,1,21.43,17a1.24,1.24,0,0,0-1.77-.79,1.85,1.85,0,0,0-1,2Z"/><path class="cls-6" d="M29.11,10c0,.59-.2,1-.2,1.57a9,9,0,0,0,1,3.94A8.49,8.49,0,0,0,34,19.21a13.31,13.31,0,0,0,5.51,1.18,12.52,12.52,0,0,0,3.74-.59A11.17,11.17,0,0,0,46.62,18a1.52,1.52,0,0,0,.2-2,1.33,1.33,0,0,0-2-.2A4.52,4.52,0,0,1,42.49,17a15,15,0,0,1-3,.4A10.6,10.6,0,0,1,34,15.86a7.64,7.64,0,0,1-1.78-1.77,5.52,5.52,0,0,1-.59-2.56v-1A1.26,1.26,0,0,0,30.48,9C29.89,8.58,29.3,9.17,29.11,10Z"/><path class="cls-6" d="M22.22,23.54a3.34,3.34,0,0,1-.59,2,5.2,5.2,0,0,1-1,1.19,11.32,11.32,0,0,1-2,1.37,23.72,23.72,0,0,0-2.16,1,1.38,1.38,0,0,0-.79,1.77,1.24,1.24,0,0,0,1.77.79c.59-.2,1.38-.59,2-.79A13.35,13.35,0,0,0,23,28.26a7,7,0,0,0,1.38-2A6,6,0,0,0,25,23.73a1.34,1.34,0,0,0-1.38-1.37A1.17,1.17,0,0,0,22.22,23.54Z"/><path class="cls-6" d="M14,41.05a5.52,5.52,0,0,1,1.58,1.38A28.61,28.61,0,0,1,17.69,46a12,12,0,0,0,1.58,1.77,6.69,6.69,0,0,0,2.36,1.38h0a5.36,5.36,0,0,0,1.77.2,8.32,8.32,0,0,0,3-.79,14,14,0,0,0,2.95-3c.79-1.18,1.38-2.36,2-3.35a9.52,9.52,0,0,1,3.35-3.93,8.11,8.11,0,0,1,4.52-1.18,6.94,6.94,0,0,1,2,.19,3.57,3.57,0,0,1,1.77.79c.4.2.59.39,1,.59s.59.39,1,.59a1.45,1.45,0,0,0,1.38-2.56c-.2,0-.4-.19-.79-.39s-1-.59-1.57-1a6.73,6.73,0,0,0-2.17-.79,11.06,11.06,0,0,0-2.56-.2A11.06,11.06,0,0,0,33,36.13a11.36,11.36,0,0,0-4.13,4.92A36.58,36.58,0,0,1,26.55,45a3.8,3.8,0,0,1-1.38,1.18,3.55,3.55,0,0,1-1.38.39,2.18,2.18,0,0,1-1-.19h0a4.33,4.33,0,0,1-1.58-1,7.83,7.83,0,0,1-1-1.38c-.59-.78-1-1.77-1.77-2.75-.4-.39-.79-1-1.18-1.38a11.38,11.38,0,0,0-1.58-1.18,1.54,1.54,0,0,0-2,.59C13,39.87,13.36,40.66,14,41.05Z"/><path class="cls-6" d="M9.62,40.46A3.71,3.71,0,0,0,11,41.64a5.66,5.66,0,0,0,1.77.4,5.66,5.66,0,0,0,1.77-.4,5.5,5.5,0,0,0,2-1.77,5.62,5.62,0,0,0,.79-2.56,2.08,2.08,0,0,0-.4-1.57,6.8,6.8,0,0,0-1-1.58,1.39,1.39,0,1,0-2,2c.2.2.39.4.39.59s.2.4.2.59A2.13,2.13,0,0,1,14,38.69c-.2.2-.39.39-.59.39s-.39.2-.59.2-.2,0-.39-.2c-.2,0-.4-.19-.59-.39a1.32,1.32,0,0,0-2-.2A1.32,1.32,0,0,0,9.62,40.46Z"/><path class="cls-6" d="M46,55a15.2,15.2,0,0,0-2.75-.4,6.35,6.35,0,0,0-2.76.59,6.46,6.46,0,0,0-3.15,2.36,16.86,16.86,0,0,0-2,3.74A10.29,10.29,0,0,0,35,63.69a13.7,13.7,0,0,0,.39,2.75c.4,1.18.79,2.36,1.18,3.54a7.81,7.81,0,0,1,.59,3A4.45,4.45,0,0,1,37,74.51a4,4,0,0,1-1.38,2,3.55,3.55,0,0,1-2.16.59h-1a1.39,1.39,0,1,0-.39,2.75c.39,0,1,.2,1.38.2a6,6,0,0,0,3.73-1.18,5.88,5.88,0,0,0,2.37-3.35,11.84,11.84,0,0,0,.39-2.55,10.2,10.2,0,0,0-.39-2.56c-.4-1.18-.79-2.36-1.18-3.35a8.53,8.53,0,0,1-.59-3A4.54,4.54,0,0,1,38,62.5a8,8,0,0,1,2-3.34,5,5,0,0,1,1.38-.79A5.93,5.93,0,0,1,43.08,58a3.94,3.94,0,0,1,2,.39,1.4,1.4,0,0,0,1.77-1c.39-1.38,0-2.17-.79-2.36Z"/><path class="cls-6" d="M20.25,74.31V72.94a7.57,7.57,0,0,1,.39-2.37,3.2,3.2,0,0,1,.79-1.37,23.07,23.07,0,0,1,2.16-1.78,7.56,7.56,0,0,1,2.17-1,8.23,8.23,0,0,0,1.77-1,11.24,11.24,0,0,0,2.36-2,3.92,3.92,0,0,0,.79-1.58,5.36,5.36,0,0,0,.2-1.77,12.23,12.23,0,0,0-.59-3.54,24,24,0,0,0-2.17-4.72,1.36,1.36,0,0,0-2-.59,1.52,1.52,0,0,0-.59,2,33.79,33.79,0,0,1,2,4.14,8.78,8.78,0,0,1,.59,2.75,2.36,2.36,0,0,1-.39,1.38,3.58,3.58,0,0,1-.79,1,12.06,12.06,0,0,1-2.36,1.38l-2.36,1.18-1.77,1.18A8.29,8.29,0,0,0,18.08,69a9.15,9.15,0,0,0-1,4.13,5.36,5.36,0,0,0,.2,1.77,1.25,1.25,0,0,0,1.57,1.18C19.66,75.89,20.45,74.9,20.25,74.31Z"/><path class="cls-6" d="M6.47,58.17A17.69,17.69,0,0,1,9.23,56.8,7.58,7.58,0,0,1,12,56.21h1a5.76,5.76,0,0,1,2.56,1A14.83,14.83,0,0,1,17.89,59a1.39,1.39,0,0,0,2-2,15.4,15.4,0,0,0-2.76-2.16,9.42,9.42,0,0,0-3.54-1.18h0c-.4,0-1-.2-1.38-.2a8,8,0,0,0-3.74.79,17.48,17.48,0,0,0-3.35,1.57,1.32,1.32,0,0,0-.39,2A1.24,1.24,0,0,0,6.47,58.17Z"/></g></g></svg>