<?xml version="1.0" encoding="utf-8"?>
<!-- Generator: Adobe Illustrator 25.4.1, SVG Export Plug-In . SVG Version: 6.00 Build 0)  -->
<svg version="1.1" id="Capa_1" xmlns:serif="http://www.serif.com/"
	 xmlns="http://www.w3.org/2000/svg" xmlns:xlink="http://www.w3.org/1999/xlink" x="0px" y="0px" viewBox="0 0 850.4 850.4"
	 style="enable-background:new 0 0 850.4 850.4;" xml:space="preserve">
<style type="text/css">
	.st0{font-family:'Arial-BoldMT';}
	.st1{font-size:14.9819px;}
	.st2{font-size:14.9898px;}
	.st3{fill:#EF6C45;}
	.st4{fill:#FAB99C;}
	.st5{fill:#F26421;}
	.st6{fill:#FFFFFF;}
	.st7{fill:#FCDE11;}
	.st8{fill:#979797;}
	.st9{fill:#B4B4B5;}
	.st10{fill:#BDBBBC;}
	.st11{fill:#919191;}
	.st12{fill:#6A6968;}
	.st13{fill:#F99165;}
	.st14{fill:#F8A17F;}
	.st15{fill:#F28E72;}
	.st16{fill:#F7A583;}
	.st17{fill:#D69073;}
	.st18{fill:#535B66;}
	.st19{font-family:'ArialMT';}
	.st20{font-size:12.6442px;}
</style>
<g transform="matrix(1.16276,0,0,1.16276,11.2245,557.92)">
	<text transform="matrix(0.86 0 0 0.86 91.016 -169.6795)" class="st0 st1">CONSTRUCTION</text>
</g>
<g transform="matrix(1.39604,0,0,1.39604,1101.03,484.271)">
	<text transform="matrix(0.7163 0 0 0.7163 -487.2598 -86.6152)" class="st0 st2">TRAINING</text>
</g>
<g transform="matrix(1.39604,0,0,1.39604,1964.75,464.589)">
	<text transform="matrix(0.7163 0 0 0.7163 -946.5187 -76.1501)" class="st0 st2">MANUFACTURING</text>
</g>
<g transform="matrix(1.39604,0,0,1.39604,408.865,1394.76)">
	<text transform="matrix(0.7163 0 0 0.7163 -119.2204 -570.7427)" class="st0 st2">CONSULTING</text>
</g>
<g transform="matrix(1.39604,0,0,1.39604,1527.04,1396.46)">
	<text transform="matrix(0.7163 0 0 0.7163 -713.7789 -571.6462)" class="st0 st2">TRUCKING</text>
</g>
<g transform="matrix(9.29649,0,0,9.2144,727.468,-1497.95)">
	<path class="st3" d="M-39.3,219.3c0,2.6-2.7,4.6-6,4.6s-6-2.1-6-4.6c0-2.6,2.7-4.6,6-4.6S-39.3,216.8-39.3,219.3z"/>
</g>
<g transform="matrix(9.29649,0,0,9.2144,727.468,-1497.95)">
	<path class="st4" d="M-46.5,218.4c0,2.3-1.8,4.1-4.1,4.1s-4.1-1.8-4.1-4.1s1.8-4.1,4.1-4.1C-48.3,214.3-46.5,216.2-46.5,218.4z"/>
</g>
<g transform="matrix(9.29649,0,0,9.2144,727.468,-1497.95)">
	<path class="st4" d="M-52.5,221.9l-0.3,2.1l1.8-1.8L-52.5,221.9z"/>
</g>
<g transform="matrix(9.29649,0,0,9.2144,727.468,-1497.95)">
	<path class="st5" d="M-41.9,223.2l1,1.6l-2.5-1.1L-41.9,223.2z"/>
</g>
<g transform="matrix(9.29649,0,0,9.2144,727.468,-1497.95)">
	<path class="st6" d="M-50.6,219.9v0.6h-0.6v-0.6H-50.6z M-50.2,217.5c0-0.3-0.2-0.5-0.5-0.5c-0.4,0-0.5,0.3-0.5,0.6h-0.6v-0.2
		c0-0.7,0.4-1.1,1.1-1.1c0.7,0,1.1,0.4,1.1,1.1c0,0.8-0.4,1.2-1,1.4v0.6h-0.6v-0.8C-50.8,218.5-50.2,218.1-50.2,217.5z"/>
</g>
<g transform="matrix(9.29649,0,0,9.2144,727.468,-1497.95)">
	<path class="st7" d="M-42,218c0-0.8-0.7-1.5-1.5-1.5s-1.5,0.7-1.5,1.5c0,1.2,0.9,1.4,0.9,2.5h1.1c0-0.8,0.6-1.1,0.8-1.8
		C-42.1,218.5-42,218.3-42,218z"/>
</g>
<g transform="matrix(9.29649,0,0,9.2144,727.468,-1497.95)">
	<path class="st8" d="M-42.7,221.6c0,0.2-0.2,0.4-0.4,0.4h-1c-0.2,0-0.4-0.2-0.4-0.4v-0.7c0-0.2,0.2-0.4,0.4-0.4h1
		c0.2,0,0.4,0.2,0.4,0.4V221.6z"/>
</g>
<g transform="matrix(9.29649,0,0,9.2144,727.468,-1497.95)">
	<path class="st6" d="M-43.7,220.5L-43.7,220.5c-0.1-0.9-0.5-2-0.5-2h0.1C-44.2,218.4-43.7,219.5-43.7,220.5z"/>
</g>
<g transform="matrix(9.29649,0,0,9.2144,727.468,-1497.95)">
	<path class="st6" d="M-43.4,220.5c0-1,0.4-2.1,0.4-2.1h0.1c0,0-0.4,1.1-0.4,2L-43.4,220.5z"/>
</g>
<g transform="matrix(9.29649,0,0,9.2144,727.468,-1497.95)">
	<path class="st6" d="M-43.7,218.8L-43.7,218.8c-0.1,0-0.1-0.1-0.1-0.2c0,0,0,0,0-0.1s0-0.1,0-0.1h-0.1l0,0c-0.1,0-0.1,0.1-0.2,0.1
		l-0.1,0.1v-0.1l0.1-0.1c0.1-0.1,0.1-0.1,0.2-0.1l0,0c0,0,0.1-0.1,0.2,0c0.1,0,0.1,0.1,0.1,0.2c0,0,0,0,0,0.1
		C-43.7,218.7-43.7,218.7-43.7,218.8c0-0.1,0-0.1,0-0.1s0,0,0-0.1c0,0,0-0.1,0.1-0.1s0.1,0,0.1,0l0,0c0,0,0,0,0.1,0s0.4-0.1,0.5-0.2
		v0.1c-0.1,0.1-0.3,0.2-0.5,0.2c-0.1,0-0.1,0-0.1-0.1l0,0l0,0l0,0c0,0,0,0-0.1,0.1C-43.5,218.7-43.5,218.7-43.7,218.8
		C-43.6,218.8-43.6,218.8-43.7,218.8z"/>
</g>
<g transform="matrix(9.29649,0,0,9.2144,727.468,-1497.95)">
	<path class="st9" d="M-43.1,221.9c0.2,0,0.4-0.2,0.4-0.4v-0.7c0-0.2-0.2-0.4-0.4-0.4h-0.5v1.5L-43.1,221.9L-43.1,221.9z"/>
</g>
<g transform="matrix(9.29649,0,0,9.2144,727.468,-1497.95)">
	<rect x="-44.3" y="220.7" class="st8" width="1.5" height="0.1"/>
</g>
<g transform="matrix(9.29649,0,0,9.2144,727.468,-1497.95)">
	<rect x="-44.3" y="221" class="st8" width="1.5" height="0.1"/>
</g>
<g transform="matrix(9.29649,0,0,9.2144,727.468,-1497.95)">
	<rect x="-44.3" y="221.3" class="st8" width="1.5" height="0.1"/>
</g>
<g transform="matrix(9.29649,0,0,9.2144,727.468,-1497.95)">
	<rect x="-44.3" y="221.6" class="st8" width="1.5" height="0.1"/>
</g>
<g transform="matrix(9.29649,0,0,9.2144,727.468,-1497.95)">
	<path class="st6" d="M-42.1,218.1L-42.1,218.1c-0.1-1.1-1-1.3-1.3-1.3v-0.1C-43.1,216.6-42.1,216.9-42.1,218.1z"/>
</g>
<g transform="matrix(1.96809,0,0,1.96809,476.795,-2342.37)">
	<path class="st10" d="M12.3,1339.6l0.2-6.2l-3.8-0.1c-0.2-1.3-0.6-2.5-1.1-3.7l3.5-1.9l-3-5.5l-3.7,2c-0.8-0.9-1.7-1.8-2.6-2.6
		l2.2-3.7l-5.4-3.2l-2.3,3.8c-1.1-0.4-2.3-0.7-3.4-0.9v-4.5h-2.7v13.3c5,0.2,8.9,4.3,8.9,9.3s-4,9.1-8.9,9.3v13.3h2.7v-2.8
		c1.2-0.2,2.3-0.5,3.4-0.9l1.3,2.5l5.5-2.9l-1.4-2.6c1-0.8,2-1.7,2.8-2.8l2.6,1.7l3.4-5.3l-2.8-1.8c0.5-1.3,0.8-2.6,1.1-4
		L12.3,1339.6z"/>
</g>
<g transform="matrix(1.96809,0,0,1.96809,476.795,-2342.37)">
	<path class="st11" d="M10,1344.9c-5.8,1.3-12.2,1.7-17.9-0.1c-0.6,0.1-1.2,0.2-1.9,0.3v13.3h2.7v-2.8c1.2-0.2,2.3-0.5,3.4-0.9
		l1.3,2.5l5.5-2.9l-1.4-2.6c1-0.8,2-1.7,2.8-2.8l2.6,1.7l3.4-5.3L10,1344.9z"/>
</g>
<g transform="matrix(1.96809,0,0,1.96809,476.795,-2342.37)">
	<path class="st12" d="M-9.8,1322.1v4.3c5,0.2,8.9,4.3,8.9,9.3s-4,9.1-8.9,9.3v4.3c7.3-0.2,13.2-6.2,13.2-13.6
		C3.5,1328.4-2.4,1322.4-9.8,1322.1z"/>
</g>
<g transform="matrix(1.96809,0,0,1.96809,476.795,-2342.37)">
	<path class="st13" d="M-11.4,1354.2c0.9,6.1-13.3,6.3-14.5-2.9c-5.8,1.6-9.9-4-7.1-9c-3.4-2.3-3.3-9.1,0.2-11.1
		c-2.7-2.9,0.6-10.9,7.1-9.5c-1.8-6.5,7.7-11.7,14.3-6.6L-11.4,1354.2z"/>
</g>
<g transform="matrix(1.96809,0,0,1.96809,476.795,-2342.37)">
	<path class="st3" d="M-11.4,1341.8c-2.5-0.8-5.8-0.4-5.3,2.3c0.5-0.6,1.2-1.3,2-1.2c0.7,0.1,1.1,0.6,1.3,1.2
		c0.8,1.7,0.8,3.9,0.6,5.8c-0.2,1.8-0.5,3.9-2.1,4.9c-2,1.2-4.6,0.5-5.9-1.4c-0.7-1-1.1-2.2-0.9-3.4c0.3-1.6,1.6-2.5,2.3-3.9
		c0.8-1.7,1-3.8,0.6-5.6c-0.2-0.9-0.7-2-1.6-2.4c-1.1-0.5-2.2,0.3-2.7,1.2c-0.7,1.5,0.7,3,0.2,4.5c-0.3,1-1,1.7-1.8,2.3
		c-0.8,0.5-3.6,1.6-3.7-0.2c-0.1-0.9,0.6-1.7,1.2-2.3c0.7-0.6,2.1-1.3,2.3-2.3c0.3-1.4-1.7-2.5-2.8-2.9c-1-0.3-2.2-0.5-3.1-0.9
		c-2.4-1.1-1.5-3.7-0.9-5.7c0.4-1.3,0.9-2.7,1.6-3.8c0.2-0.3,1-2,1.6-1.6c0.6,0.3,0.5,1.5,0.7,2c0.2,0.7,0.6,1.4,1.3,1.5
		c0.9,0.2,1.9-0.5,2.6-0.9c0.9-0.6,2-0.9,3.1-0.5c1.8,0.6,3.3-1.8,2.7-3.4c-0.8-2.1-3.2-3.2-4.2-5.2c-1.1-2.2,1.2-4.2,3.2-4.7
		c2.7-0.7,5.7,0.5,7.7,2.4v-2.6c-6.6-5.1-16.1,0.1-14.3,6.6c-6.5-1.4-9.8,6.6-7.1,9.5c-3.5,2-3.6,8.8-0.2,11.1
		c-2.8,5,1.2,10.6,7.1,9c1.2,9.3,15.4,9.1,14.5,2.9L-11.4,1341.8z"/>
</g>
<g transform="matrix(1.96809,0,0,1.96809,476.795,-2342.37)">
	<path class="st14" d="M-26,1322.2c0.3,0.8,0.6,1.4,1,2c0.6,0.8,1.3,1.5,2.1,1.8c0.8,0.4,1.8,0.5,2.9,0.5c0.4,0,0.7-0.3,0.7-0.7
		s-0.3-0.7-0.7-0.7c-0.6,0-1.2-0.1-1.6-0.2c-0.7-0.2-1.2-0.5-1.7-1s-0.9-1.2-1.3-2.3c-0.1-0.4-0.6-0.6-0.9-0.4
		C-25.9,1321.4-26.1,1321.9-26,1322.2L-26,1322.2z"/>
</g>
<g transform="matrix(1.96809,0,0,1.96809,476.795,-2342.37)">
	<path class="st14" d="M-20.7,1318c0,0.3-0.1,0.5-0.1,0.8c0,0.7,0.2,1.4,0.5,2c0.5,0.9,1.2,1.5,2.1,1.9s1.8,0.6,2.8,0.6
		c0.6,0,1.3-0.1,1.9-0.3c0.6-0.2,1.2-0.5,1.7-0.9c0.3-0.3,0.3-0.7,0.1-1c-0.3-0.3-0.7-0.4-1-0.1s-0.7,0.5-1.2,0.6s-1,0.2-1.5,0.2
		c-1,0-2-0.3-2.8-0.8c-0.4-0.3-0.7-0.6-0.9-0.9c-0.2-0.4-0.3-0.8-0.3-1.3c0-0.2,0-0.4,0-0.5c0.1-0.4-0.2-0.8-0.6-0.8
		C-20.3,1317.3-20.6,1317.6-20.7,1318z"/>
</g>
<g transform="matrix(1.96809,0,0,1.96809,476.795,-2342.37)">
	<path class="st14" d="M-24.2,1324.9c0,0.4-0.1,0.7-0.3,1c-0.1,0.2-0.3,0.4-0.5,0.6c-0.3,0.3-0.7,0.5-1,0.7
		c-0.4,0.2-0.8,0.3-1.1,0.5c-0.4,0.1-0.5,0.6-0.4,0.9c0.1,0.4,0.6,0.6,0.9,0.4c0.3-0.1,0.7-0.3,1-0.4c0.6-0.3,1.2-0.7,1.8-1.3
		c0.3-0.3,0.5-0.6,0.7-1s0.3-0.9,0.3-1.3s-0.3-0.7-0.7-0.7C-23.8,1324.2-24.2,1324.5-24.2,1324.9z"/>
</g>
<g transform="matrix(1.96809,0,0,1.96809,476.795,-2342.37)">
	<path class="st14" d="M-28.4,1333.8c0.3,0.2,0.6,0.4,0.8,0.7c0.4,0.5,0.7,1.1,1.1,1.8c0.2,0.3,0.5,0.6,0.8,0.9s0.7,0.5,1.2,0.7l0,0
		c0.3,0.1,0.6,0.1,0.9,0.1c0.5,0,1-0.2,1.5-0.4c0.6-0.4,1.1-1,1.5-1.5c0.4-0.6,0.7-1.2,1-1.7c0.5-0.9,1-1.6,1.7-2
		c0.6-0.4,1.4-0.6,2.3-0.6c0.3,0,0.7,0,1,0.1c0.3,0,0.6,0.2,0.9,0.4c0.2,0.1,0.3,0.2,0.5,0.3c0.2,0.1,0.3,0.2,0.5,0.3
		c0.4,0.2,0.8,0,1-0.3c0.2-0.4,0-0.8-0.3-1c-0.1,0-0.2-0.1-0.4-0.2s-0.5-0.3-0.8-0.5s-0.7-0.3-1.1-0.4c-0.4-0.1-0.9-0.1-1.3-0.1
		c-1.1,0-2.2,0.3-3.1,0.9s-1.6,1.4-2.1,2.5c-0.4,0.7-0.8,1.5-1.2,2c-0.2,0.3-0.5,0.5-0.7,0.6s-0.5,0.2-0.7,0.2c-0.1,0-0.3,0-0.5-0.1
		l0,0c-0.3-0.1-0.6-0.3-0.8-0.5c-0.2-0.2-0.3-0.4-0.5-0.7c-0.3-0.4-0.5-0.9-0.9-1.4c-0.2-0.2-0.4-0.5-0.6-0.7s-0.5-0.4-0.8-0.6
		c-0.4-0.2-0.8,0-1,0.3C-28.9,1333.2-28.7,1333.6-28.4,1333.8z"/>
</g>
<g transform="matrix(1.96809,0,0,1.96809,476.795,-2342.37)">
	<path class="st14" d="M-30.6,1333.5c0.2,0.3,0.5,0.5,0.7,0.6c0.3,0.1,0.6,0.2,0.9,0.2s0.6-0.1,0.9-0.2c0.4-0.2,0.7-0.5,1-0.9
		c0.2-0.4,0.4-0.8,0.4-1.3c0-0.3,0-0.6-0.2-0.8c-0.1-0.3-0.3-0.5-0.5-0.8c-0.3-0.3-0.7-0.3-1,0s-0.3,0.7,0,1
		c0.1,0.1,0.2,0.2,0.2,0.3c0,0.1,0.1,0.2,0.1,0.3c0,0.2-0.1,0.5-0.3,0.7c-0.1,0.1-0.2,0.2-0.3,0.2c-0.1,0-0.2,0.1-0.3,0.1
		c-0.1,0-0.1,0-0.2-0.1c-0.1,0-0.2-0.1-0.3-0.2c-0.2-0.3-0.7-0.4-1-0.1C-30.8,1332.7-30.9,1333.2-30.6,1333.5z"/>
</g>
<g transform="matrix(1.96809,0,0,1.96809,476.795,-2342.37)">
	<path class="st14" d="M-12.1,1340.9c-0.5-0.1-1-0.2-1.4-0.2c-0.5,0-1,0.1-1.4,0.3c-0.7,0.2-1.2,0.7-1.6,1.2s-0.7,1.2-1,1.9
		c-0.1,0.4-0.2,0.8-0.2,1.2c0,0.5,0.1,0.9,0.2,1.4c0.2,0.6,0.4,1.2,0.6,1.8c0.2,0.5,0.3,1,0.3,1.5c0,0.3,0,0.5-0.1,0.8
		c-0.2,0.5-0.4,0.8-0.7,1c-0.3,0.2-0.6,0.3-1.1,0.3c-0.1,0-0.3,0-0.5,0c-0.4-0.1-0.8,0.2-0.8,0.6c-0.1,0.4,0.2,0.8,0.6,0.8
		c0.2,0,0.5,0.1,0.7,0.1c0.7,0,1.4-0.2,1.9-0.6c0.6-0.4,1-1,1.2-1.7c0.1-0.4,0.2-0.9,0.2-1.3c0-0.5-0.1-0.9-0.2-1.3
		c-0.2-0.6-0.4-1.2-0.6-1.7c-0.2-0.5-0.3-1.1-0.3-1.5c0-0.3,0-0.5,0.1-0.8c0.2-0.7,0.6-1.3,1-1.7c0.2-0.2,0.5-0.3,0.7-0.4
		c0.3-0.1,0.6-0.2,0.9-0.2c0.3,0,0.6,0,1,0.2c0.4,0.1,0.8-0.1,0.9-0.5C-11.5,1341.4-11.7,1341-12.1,1340.9L-12.1,1340.9z"/>
</g>
<g transform="matrix(1.96809,0,0,1.96809,476.795,-2342.37)">
	<path class="st14" d="M-25.2,1350.7c0-0.3,0-0.5,0-0.7c0-0.5,0.1-0.9,0.2-1.2c0.1-0.3,0.2-0.5,0.4-0.7c0.3-0.3,0.7-0.6,1.1-0.9
		c0.3-0.2,0.7-0.4,1.1-0.5c0.3-0.1,0.6-0.3,0.9-0.5c0.4-0.3,0.9-0.6,1.2-1c0.2-0.2,0.3-0.5,0.4-0.8s0.1-0.6,0.1-0.9
		c0-0.5-0.1-1.2-0.3-1.8c-0.2-0.7-0.6-1.5-1.1-2.4c-0.2-0.4-0.6-0.5-1-0.3c-0.3,0.2-0.5,0.6-0.3,1c0.5,0.9,0.8,1.6,1,2.1
		c0.2,0.6,0.3,1,0.3,1.4c0,0.3-0.1,0.6-0.2,0.7c-0.1,0.2-0.2,0.3-0.4,0.5c-0.3,0.2-0.7,0.5-1.2,0.7c-0.4,0.2-0.8,0.4-1.2,0.6
		c-0.3,0.2-0.6,0.4-0.9,0.6c-0.4,0.3-0.9,0.8-1.2,1.4c-0.3,0.6-0.5,1.3-0.5,2.1c0,0.3,0,0.6,0.1,0.9c0,0.4,0.4,0.7,0.8,0.6
		S-25.1,1351-25.2,1350.7z"/>
</g>
<g transform="matrix(1.96809,0,0,1.96809,476.795,-2342.37)">
	<path class="st14" d="M-32.2,1342.5c0.5-0.3,0.9-0.5,1.4-0.7s1-0.3,1.4-0.3c0.2,0,0.3,0,0.5,0l0,0c0.5,0.1,0.9,0.2,1.3,0.5
		c0.4,0.2,0.7,0.5,1.2,0.9c0.3,0.3,0.7,0.2,1,0c0.3-0.3,0.2-0.7,0-1c-0.4-0.4-0.9-0.8-1.4-1.1c-0.5-0.3-1.1-0.5-1.8-0.6l0,0
		c-0.2,0-0.5-0.1-0.7-0.1c-0.7,0-1.3,0.1-1.9,0.4c-0.6,0.2-1.2,0.5-1.7,0.8c-0.3,0.2-0.5,0.6-0.2,1
		C-33,1342.6-32.5,1342.7-32.2,1342.5z"/>
</g>
<g transform="matrix(2.40384,0,0,2.47072,-2601.42,-1409.36)">
	<path class="st4" d="M1155.8,678.8l-1-12.1h-3.7l-1,12.1H1155.8z"/>
</g>
<g transform="matrix(2.40384,0,0,2.47072,-2601.42,-1409.36)">
	<path class="st15" d="M1177.8,698.6c0-6.7-3.4-16.1-9.9-21.5c-1.6-1.3-3.4-2.4-5.3-3.3l-0.5-3.5c-2.5-1.2-4.9-1.7-7.1-2l0.9,10.4
		h-5.7l0.9-10.5c-4.3,0.4-7.1,2-7.1,2l-0.6,3.5c-6.6,3-11.3,8.8-13.5,15.3c-1.1,3.1-1.6,6.3-1.6,9.5L1177.8,698.6L1177.8,698.6z"/>
</g>
<g transform="matrix(2.40384,0,0,2.47072,-2601.42,-1409.36)">
	<path class="st3" d="M1175.1,686.9c0.1,1.4,0,2.8-0.5,4.2c-0.8,2.3-1.6,3.2-3.9,3.5c-9.7,0.9-10.8,0.3-29.6,0.4
		c-1.8,0-4.7-0.2-6.3-1.1c-1.7-1-1.9-3.3-1.5-5.1c0.6-2.4,2.4-4.1,3.9-6c0.8-1.1,1.6-2.2,2-3.5c0.3-1.2,0.6-2.5,1-3.7
		c-5,3.2-8.6,8.2-10.5,13.6c-1.1,3.1-1.6,6.3-1.6,9.5h49.6C1177.8,695.1,1176.9,690.9,1175.1,686.9z"/>
</g>
<g transform="matrix(2.40384,0,0,2.47072,-2601.42,-1409.36)">
	<path class="st3" d="M1161.5,670.4l1.9,12.3l1.1-0.2l-1.9-12.3"/>
</g>
<g transform="matrix(2.40384,0,0,2.47072,-2601.42,-1409.36)">
	<path class="st3" d="M1142.2,682.7l2.2-12.3l-1-0.2l-2.2,12.3"/>
</g>
<g transform="matrix(2.40384,0,0,2.47072,-2601.42,-1409.36)">
	<path class="st4" d="M1178,698.6h-50.2c0,0-2.3,0.1-2.2,3.6h54.6C1180.3,698.7,1178,698.6,1178,698.6z"/>
</g>
<g transform="matrix(2.43146,0,0,2.43799,1169.15,-527.298)">
	<rect x="-214.9" y="330.1" class="st3" width="7.4" height="19.3"/>
</g>
<g transform="matrix(2.43146,0,0,2.43799,1169.15,-527.298)">
	<path class="st6" d="M-211.2,347.7c-0.7,0-1.3-0.6-1.3-1.3s0.6-1.3,1.3-1.3s1.3,0.6,1.3,1.3S-210.5,347.7-211.2,347.7z"/>
</g>
<g transform="matrix(2.43146,0,0,2.43799,1169.15,-527.298)">
	<path class="st16" d="M-176.2,339.8l12.8-5.3c0,0,2.8,1.8-0.1,4.4l-21.3,11.6l-22.6-5.3v-10.6l11-2.5l17.2,4.9
		C-179.3,336.9-176.2,337.6-176.2,339.8c0,0-0.2,3-3.1,2.3l-9.5-2.3"/>
</g>
<g transform="matrix(2.43146,0,0,2.43799,1169.15,-527.298)">
	<path class="st17" d="M-190.6,338c0.7,1.8,5.8,3.2,9.1,3.9c1.4,0.3,3.3,0.7,4.5-0.2c0.6-0.4,0.9-1.2,0.8-2.2v0.3c0-0.1,0-0.2,0-0.3
		C-177.7,343.8-189.1,338.8-190.6,338z"/>
</g>
<g transform="matrix(2.43146,0,0,2.43799,1169.15,-527.298)">
	<path class="st17" d="M-163.4,334.5l-0.2,0.1c0.1,0.2,0.1,0.4,0.1,0.7c0,0.6-0.2,1.1-0.5,1.5c-1.2,1.8-3.4,2.9-5.3,3.9
		c-1,0.5-2.1,1-3.1,1.6c-1.2,0.7-2.3,1.4-3.5,2.1c-3,1.7-6.3,3.2-9.8,3c-1.2-0.1-2.4-0.4-3.6-0.6c-1-0.2-2.1-0.3-3.1-0.5
		c-2.3-0.4-4.5-0.8-6.7-1.7c-0.4-0.2-0.9-0.4-1.3-0.6c-0.8-0.2-1.5-0.5-2.1-1c-0.8-0.7-1.3-1.7-1.5-2.7c-0.5-2.1-0.3-4.2-0.2-6.3
		l-3.3,0.7v10.6l22.6,5.3l21.3-11.6C-160.7,336.3-163.4,334.5-163.4,334.5z"/>
</g>
<g transform="matrix(2.43146,0,0,2.43799,1169.15,-527.298)">
	<path class="st10" d="M-177,328.7c-2.6,0-4.7-2.1-4.7-4.7s2.1-4.7,4.7-4.7c2.6,0,4.7,2.1,4.7,4.7S-174.4,328.7-177,328.7z
		 M-165.6,325.9l0.1-3.2l-1.9-0.1c-0.1-0.7-0.3-1.3-0.5-1.9l1.8-1l-1.5-2.8l-1.9,1c-0.4-0.5-0.9-0.9-1.3-1.3l1.1-1.9l-2.7-1.6
		l-1.2,1.9c-0.6-0.2-1.1-0.4-1.7-0.5v-2.3h-3.2v2.3c-0.5,0.1-0.9,0.2-1.3,0.3l-1.1-2l-2.8,1.5l1,1.9c-0.5,0.3-0.9,0.7-1.3,1.1
		l-1.8-1.2l-1.7,2.7l1.7,1.1c-0.3,0.6-0.5,1.2-0.7,1.8l-1.9-0.1l-0.1,3.2l1.8,0.1c0.1,0.7,0.2,1.4,0.4,2l-1.5,0.8l1.5,2.8l1.4-0.8
		c0.4,0.6,0.9,1.1,1.5,1.6l-0.8,1.3l2.7,1.6l0.7-1.2c0.7,0.3,1.4,0.5,2.2,0.6v1.4h3.2v-1c0.6-0.1,1.2-0.2,1.7-0.4l0.7,1.3l2.8-1.5
		l-0.7-1.3c0.5-0.4,1-0.9,1.4-1.4l1.3,0.8l1.7-2.7l-1.4-0.9c0.2-0.6,0.4-1.3,0.5-2H-165.6z"/>
</g>
<g transform="matrix(2.43146,0,0,2.43799,1169.15,-527.298)">
	<path class="st11" d="M-175.9,328.6c-0.4,0.1-0.8,0.1-1.1,0.1c-2.6,0-4.7-2.1-4.7-4.7c0-0.1,0-0.1,0-0.2c-0.7-1.4-1-2.9-1-4.5
		c0.1-2.1,0.8-4.1,1.8-6l-0.1-0.2l-2.8,1.5l1,1.9c-0.5,0.3-0.9,0.7-1.3,1.1l-1.8-1.2l-1.7,2.7l1.7,1.1c-0.3,0.6-0.5,1.2-0.7,1.8
		l-1.9-0.1l-0.1,3.2l1.8,0.1c0.1,0.7,0.2,1.4,0.4,2l-1.5,0.8l1.5,2.8l1.4-0.8c0.4,0.6,0.9,1.1,1.5,1.6l-0.8,1.3l2.7,1.6l0.7-1.2
		c0.7,0.3,1.4,0.5,2.2,0.6v1.4h3.2V334c0.6-0.1,1.2-0.2,1.7-0.4l0.7,1.3l2.8-1.5l-0.7-1.3c0.5-0.4,1-0.9,1.4-1.4l1.3,0.8l1.7-2.7
		l-0.3-0.2C-169.7,329.3-173,329.5-175.9,328.6z"/>
</g>
<g transform="matrix(2.43146,0,0,2.43799,1169.15,-527.298)">
	<path class="st12" d="M-177,328.7c-2.6,0-4.7-2.1-4.7-4.7s2.1-4.7,4.7-4.7c2.6,0,4.7,2.1,4.7,4.7S-174.4,328.7-177,328.7z
		 M-177,317c-3.8,0-6.9,3.1-6.9,6.9s3.1,6.9,6.9,6.9c3.8,0,6.9-3.1,6.9-6.9S-173.2,317-177,317z"/>
</g>
<g transform="matrix(6.95776,0,0,6.95776,252.278,1249.16)">
	<path class="st18" d="M52.2-99.7v-0.6H37.8v0.6l7.2,3.4L52.2-99.7z"/>
</g>
<g transform="matrix(6.95776,0,0,6.95776,252.278,1249.16)">
	<path class="st4" d="M52.2-100.3l-7.2-3.2l-7.2,3.2l7.2,3.4L52.2-100.3z"/>
</g>
<g transform="matrix(6.95776,0,0,6.95776,252.278,1249.16)">
	<path class="st6" d="M46.2-110.8c-0.4,0.1-0.8,0.1-1.2,0.1s-0.8,0-1.2-0.1c-1.3,3.6-2.6,7-3.8,10.1c1.5,0.9,3.3,1.4,5,1.4
		s3.5-0.5,5-1.4C48.9-103.8,47.6-107.1,46.2-110.8z"/>
</g>
<g transform="matrix(6.95776,0,0,6.95776,252.278,1249.16)">
	<path class="st3" d="M40-100.7c1.5,0.9,3.3,1.4,5,1.4s3.5-0.5,5-1.4c-0.2-0.6-0.5-1.3-0.7-1.9c-2.7,1.3-5.9,1.3-8.6,0
		C40.5-101.9,40.2-101.3,40-100.7z"/>
</g>
<g transform="matrix(6.95776,0,0,6.95776,252.278,1249.16)">
	<path class="st3" d="M41.5-104.5c2.3,0.9,4.8,0.9,7.1,0c-0.3-0.7-0.5-1.3-0.8-2c-1.8,0.6-3.8,0.6-5.6,0
		C42-105.9,41.7-105.2,41.5-104.5z"/>
</g>
<g transform="matrix(6.95776,0,0,6.95776,252.278,1249.16)">
	<path class="st3" d="M46.2-110.8c-0.4,0.1-0.8,0.1-1.2,0.1s-0.8,0-1.2-0.1c-0.3,0.7-0.5,1.5-0.8,2.2c1.3,0.3,2.7,0.3,4.1,0
		C46.8-109.3,46.5-110,46.2-110.8z"/>
</g>
<g transform="matrix(6.95776,0,0,6.95776,252.278,1249.16)">
	<path class="st18" d="M46.2-110.8c0,0.2-0.6,0.3-1.2,0.3c-0.7,0-1.2-0.1-1.2-0.3c0-0.2,0.6-0.3,1.2-0.3
		C45.7-111,46.2-110.9,46.2-110.8z"/>
</g>
<rect x="45" y="153.4" class="st15" width="47" height="22"/>
<rect x="45" y="190.4" class="st3" width="47" height="22"/>
<rect x="177" y="153.4" class="st11" width="47" height="22"/>
<rect x="177" y="185.7" class="st10" width="47" height="22"/>
<text transform="matrix(1 0 0 1 103.4863 168.4826)" class="st19 st20">F28E72</text>
<text transform="matrix(1 0 0 1 103.4863 205.3937)" class="st19 st20">EF6C45</text>
<text transform="matrix(1 0 0 1 235.4385 171.6208)" class="st19 st20">EF6C45</text>
<g>
	<text transform="matrix(1 0 0 1 235.4385 199.3938)" class="st19 st20">BDBBBC</text>
</g>
</svg>
