<svg xmlns="http://www.w3.org/2000/svg" viewBox="0 0 139.53 130.29"><defs><style>.cls-1{fill:#ec6c3d;}.cls-2{fill:#f7b89d;}.cls-3{fill:#696968;}.cls-4{fill:#bbb;}</style></defs><g id="Capa_2" data-name="Capa 2"><g id="Capa_2-2" data-name="Capa 2"><path class="cls-1" d="M0,54.71s24.75,1,40.24-3.18c0,0,22.85-7.07,21.22-49.87a.38.38,0,0,1,.75-.11C66.36,19.32,80.34,93.36,36,130.29,36,130.29,70,73.92,0,54.71Z"/><path class="cls-2" d="M7.68,57.11s45,0,52.76,37.13A78.53,78.53,0,0,1,36,130.29S64.23,76.66,7.68,57.11Z"/><path class="cls-3" d="M139.53,56.84s-24.77-.35-40-5.43c0,0-22.43-8.33-18.43-51a.38.38,0,0,0-.75-.15c-5.12,17.51-23.16,90.65,19.09,130C99.44,130.29,68.62,72.1,139.53,56.84Z"/><path class="cls-4" d="M131.73,58.81S86.85,56.34,77,92.93a78.71,78.71,0,0,0,22.44,37.36S74.19,75.16,131.73,58.81Z"/><ellipse class="cls-3" cx="105.55" cy="35.21" rx="9.95" ry="10.02"/><path class="cls-2" d="M45.54,32a10.88,10.88,0,0,1-3.7,14.84,10.7,10.7,0,0,1-14.56-4.33"/><path class="cls-1" d="M25,40.39a1.51,1.51,0,0,0-.69,2.18,1.75,1.75,0,0,0,2.35.68s1-.36,2.4-.83a94.75,94.75,0,0,0,16.78-8.75s1.69-1.11,1.86-1.27a1.78,1.78,0,0,0,.4-2.26A1.6,1.6,0,0,0,46,29.68S42.47,23,35.88,23.21a.44.44,0,0,0-.39.58L37,28.6s.63,1.57-.31,1.82c0,0-.75.28-1.19-1.38l-1.38-4.65a1.93,1.93,0,0,0-2.53-1.48l-3.52,1.8a1,1,0,0,0-.31.24c-.36.39-1.06,1.47.17,3l2.43,3.33s1.22,1.45.52,1.9c0,0-.6.79-1.87-1l-3-3.87a.29.29,0,0,0-.49,0A12.12,12.12,0,0,0,25,40.39Z"/></g></g></svg>