<svg xmlns="http://www.w3.org/2000/svg" viewBox="0 0 143.17 96.75"><defs><style>.cls-1{fill:#ef6c45;}.cls-2{fill:#fab99c;}.cls-3{fill:#f26421;}.cls-4{fill:#fff;}.cls-5{fill:#fcde11;}.cls-6{fill:#979797;}.cls-7{fill:#b4b4b5;}</style></defs><g id="Capa_2" data-name="Capa 2"><g id="Capa_1-2" data-name="Capa 1"><path class="cls-1" d="M143.17,46.07c0,24-25.1,42.39-55.78,42.39S31.61,69.11,31.61,46.07c0-24,25.1-42.38,55.78-42.38S143.17,23,143.17,46.07Z"/><path class="cls-2" d="M76.23,37.78C76.23,59,59.5,75.56,38.12,75.56S0,59,0,37.78,16.73,0,38.12,0A38.11,38.11,0,0,1,76.23,37.78Z"/><path class="cls-2" d="M20.45,70,17.66,89.38,34.4,72.79Z"/><path class="cls-3" d="M119,82l9.29,14.74L105.05,86.62Z"/><path class="cls-4" d="M38.12,51.6v5.53H32.54V51.6Zm3.71-22.11a4.37,4.37,0,0,0-4.64-4.61c-3.72,0-4.65,2.76-4.65,5.53H27V28.56c0-6.45,3.72-10.13,10.23-10.13s10.22,3.68,10.22,10.13c0,7.38-3.72,11.06-9.29,12.9V47H32.54V39.62C36.26,38.7,41.83,35,41.83,29.49Z"/><path class="cls-5" d="M118.07,34.09a13.95,13.95,0,0,0-27.89,0c0,11.06,8.36,12.9,8.36,23h10.23c0-7.37,5.58-10.14,7.44-16.59A13.2,13.2,0,0,0,118.07,34.09Z"/><path class="cls-6" d="M111.56,67.27A4,4,0,0,1,107.84,71h-9.3a4,4,0,0,1-3.72-3.68V60.82a4,4,0,0,1,3.72-3.69h9.3a4,4,0,0,1,3.72,3.69Z"/><path class="cls-4" d="M102.26,57.13h-.93c0-8.29-3.72-18.43-3.72-18.43h.93C97.61,37.78,102.26,47.91,102.26,57.13Z"/><path class="cls-4" d="M105.05,57.13c0-9.22,3.72-19.35,3.72-19.35h.93S106,47.91,106,56.21Z"/><path class="cls-4" d="M102.26,41.46h0c-.93,0-.93-.92-.93-1.84V37.78h-.93c-.93,0-.93.92-1.86.92l-.93.92V38.7l.93-.92c.93-.92.93-.92,1.86-.92h0a1.3,1.3,0,0,1,1.86,0c.93,0,.93.92.93,1.84v.92c-.93.92-.93.92-.93,1.84V39.62a.9.9,0,0,1,.93-.92h1.86a9.88,9.88,0,0,0,4.65-1.84v.92a7.14,7.14,0,0,1-4.65,1.84c-.93,0-.93,0-.93-.92h0l-.93.92c.93.92.93.92-.93,1.84Z"/><path class="cls-7" d="M107.84,70a4,4,0,0,0,3.72-3.69V59.89a4,4,0,0,0-3.72-3.68h-4.65V70Z"/><rect class="cls-6" x="96.68" y="58.97" width="13.94" height="0.92"/><rect class="cls-6" x="96.68" y="61.74" width="13.94" height="0.92"/><rect class="cls-6" x="96.68" y="64.5" width="13.94" height="0.92"/><rect class="cls-6" x="96.68" y="67.27" width="13.94" height="0.92"/><path class="cls-4" d="M117.14,35h-.93c0-10.13-8.37-12-11.16-12v-.93C107.84,21.19,117.14,24,117.14,35Z"/></g></g></svg>