<svg xmlns="http://www.w3.org/2000/svg" viewBox="0 0 750 481.7"><defs><style>.cls-1{fill:#070908;}.cls-2{fill:#fff;}.cls-3{fill:#d25754;}.cls-4{fill:#f4d4d0;}.cls-5{fill:#e8bdba;}.cls-6{fill:#feece8;}.cls-7{fill:#6c78b9;}.cls-8{fill:#f2ad33;}</style></defs><g id="Capa_2" data-name="Capa 2"><g id="OBJECTS"><rect class="cls-1" x="476.53" y="429.21" width="19.06" height="52.49"/><rect class="cls-1" x="683.26" y="429.21" width="19.06" height="52.49"/><rect class="cls-2" x="451.42" y="396.51" width="276.01" height="42.15"/><polygon class="cls-3" points="490.95 438.65 471.1 438.65 451.42 396.51 471.27 396.51 490.95 438.65"/><polygon class="cls-3" points="609.54 438.65 589.69 438.65 570.01 396.51 589.86 396.51 609.54 438.65"/><polygon class="cls-3" points="648.37 438.65 628.52 438.65 608.84 396.51 628.69 396.51 648.37 438.65"/><polygon class="cls-3" points="727.43 438.65 707.58 438.65 687.9 396.51 707.75 396.51 727.43 438.65"/><polygon class="cls-3" points="687.9 438.65 668.05 438.65 648.37 396.51 668.22 396.51 687.9 438.65"/><polygon class="cls-3" points="570.01 438.65 550.16 438.65 530.48 396.51 550.33 396.51 570.01 438.65"/><polygon class="cls-3" points="530.48 438.65 510.63 438.65 490.95 396.51 510.8 396.51 530.48 438.65"/><rect class="cls-1" x="486.06" y="466.62" width="202.87" height="0.75"/><rect class="cls-1" x="486.06" y="462.09" width="202.87" height="0.75"/><rect class="cls-4" x="0.06" y="104.52" width="21.92" height="267.73"/><rect class="cls-4" x="0.06" y="81.55" width="16.98" height="22.97"/><rect class="cls-5" x="0.06" y="104.15" width="16.98" height="0.75"/><rect class="cls-6" x="0.06" y="117.2" width="14.72" height="8.02"/><rect class="cls-6" x="0.06" y="135.98" width="14.72" height="8.02"/><rect class="cls-6" x="0.06" y="154.76" width="14.72" height="8.02"/><rect class="cls-6" x="0.06" y="173.54" width="14.72" height="8.02"/><rect class="cls-6" x="0.06" y="192.32" width="14.72" height="8.02"/><rect class="cls-6" x="0.06" y="211.1" width="14.72" height="8.02"/><rect class="cls-6" x="0.06" y="229.88" width="14.72" height="8.02"/><rect class="cls-6" x="0.06" y="248.66" width="14.72" height="8.02"/><rect class="cls-6" x="0.06" y="267.49" width="14.72" height="8.02"/><rect class="cls-6" x="0.06" y="286.27" width="14.72" height="8.02"/><rect class="cls-6" x="0.06" y="305.05" width="14.72" height="8.02"/><rect class="cls-6" x="0.06" y="323.83" width="14.72" height="8.02"/><rect class="cls-6" x="0.06" y="341.95" width="14.72" height="8.02"/><path class="cls-4" d="M686.08,107.8V372.25H750V107.8Zm22.31,208.39h-9.56V299.08h9.56Zm0-28.71h-9.56V270.37h9.56Zm0-28.72h-9.56V241.65h9.56Zm0-28.71h-9.56V212.94h9.56Zm0-28.72h-9.56V184.22h9.56Zm0-28.71h-9.56V155.51h9.56Zm0-28.72h-9.56V126.79h9.56Zm18.16,172.29H717V299.08h9.56Zm0-28.71H717V270.37h9.56Zm0-28.72H717V241.65h9.56Zm0-28.71H717V212.94h9.56Zm0-28.72H717V184.22h9.56Zm0-28.71H717V155.51h9.56Zm0-28.72H717V126.79h9.56Zm18.16,172.29h-9.57V299.08h9.57Zm0-28.71h-9.57V270.37h9.57Zm0-28.72h-9.57V241.65h9.57Zm0-28.71h-9.57V212.94h9.57Zm0-28.72h-9.57V184.22h9.57Zm0-28.71h-9.57V155.51h9.57Zm0-28.72h-9.57V126.79h9.57Z"/><rect class="cls-4" x="694.51" y="101.74" width="18.17" height="6.06"/><rect class="cls-5" x="694.51" y="107.43" width="18.17" height="0.75"/><rect class="cls-4" x="740.74" y="101.74" width="9.26" height="6.06"/><rect class="cls-5" x="740.74" y="107.43" width="9.26" height="0.75"/><rect class="cls-4" x="42" y="65.61" width="122.16" height="303.68"/><rect class="cls-4" x="59.33" y="50.57" width="87.51" height="15.04"/><rect class="cls-6" x="54.23" y="77.18" width="9.68" height="13.97"/><rect class="cls-6" x="71.83" y="77.18" width="9.68" height="13.97"/><rect class="cls-6" x="89.44" y="77.18" width="9.68" height="13.97"/><rect class="cls-6" x="107.04" y="77.18" width="9.69" height="13.97"/><rect class="cls-6" x="124.65" y="77.18" width="9.69" height="13.97"/><rect class="cls-6" x="142.25" y="77.18" width="9.68" height="13.97"/><rect class="cls-6" x="54.23" y="103.15" width="9.68" height="13.97"/><rect class="cls-6" x="71.83" y="103.15" width="9.68" height="13.97"/><rect class="cls-6" x="89.44" y="103.15" width="9.68" height="13.97"/><rect class="cls-6" x="107.04" y="103.15" width="9.69" height="13.97"/><rect class="cls-6" x="124.65" y="103.15" width="9.69" height="13.97"/><rect class="cls-6" x="142.25" y="103.15" width="9.68" height="13.97"/><rect class="cls-6" x="54.23" y="146.2" width="9.68" height="13.97"/><rect class="cls-6" x="71.83" y="146.2" width="9.68" height="13.97"/><rect class="cls-6" x="89.44" y="146.2" width="9.68" height="13.97"/><rect class="cls-6" x="107.04" y="146.2" width="9.69" height="13.97"/><rect class="cls-6" x="124.65" y="146.2" width="9.69" height="13.97"/><rect class="cls-6" x="142.25" y="146.2" width="9.68" height="13.97"/><rect class="cls-6" x="54.23" y="172.17" width="9.68" height="13.97"/><rect class="cls-6" x="71.83" y="172.17" width="9.68" height="13.97"/><rect class="cls-6" x="89.44" y="172.17" width="9.68" height="13.97"/><rect class="cls-6" x="107.04" y="172.17" width="9.69" height="13.97"/><rect class="cls-6" x="124.65" y="172.17" width="9.69" height="13.97"/><rect class="cls-6" x="142.25" y="172.17" width="9.68" height="13.97"/><rect class="cls-6" x="54.23" y="215.22" width="9.68" height="13.97"/><rect class="cls-6" x="71.83" y="215.22" width="9.68" height="13.97"/><rect class="cls-6" x="89.44" y="215.22" width="9.68" height="13.97"/><rect class="cls-6" x="107.04" y="215.22" width="9.69" height="13.97"/><rect class="cls-6" x="124.65" y="215.22" width="9.69" height="13.97"/><rect class="cls-6" x="142.25" y="215.22" width="9.68" height="13.97"/><rect class="cls-6" x="54.23" y="241.2" width="9.68" height="13.97"/><rect class="cls-6" x="71.83" y="241.2" width="9.68" height="13.97"/><rect class="cls-6" x="89.44" y="241.2" width="9.68" height="13.97"/><rect class="cls-6" x="107.04" y="241.2" width="9.69" height="13.97"/><rect class="cls-6" x="124.65" y="241.2" width="9.69" height="13.97"/><rect class="cls-6" x="142.25" y="241.2" width="9.68" height="13.97"/><rect class="cls-6" x="54.23" y="284.24" width="9.68" height="13.97"/><rect class="cls-6" x="71.83" y="284.24" width="9.68" height="13.97"/><rect class="cls-6" x="89.44" y="284.24" width="9.68" height="13.97"/><rect class="cls-6" x="107.04" y="284.24" width="9.69" height="13.97"/><rect class="cls-6" x="124.65" y="284.24" width="9.69" height="13.97"/><rect class="cls-6" x="142.25" y="284.24" width="9.68" height="13.97"/><rect class="cls-6" x="54.23" y="310.22" width="9.68" height="13.97"/><rect class="cls-6" x="71.83" y="310.22" width="9.68" height="13.97"/><rect class="cls-6" x="89.44" y="310.22" width="9.68" height="13.97"/><rect class="cls-6" x="107.04" y="310.22" width="9.69" height="13.97"/><rect class="cls-6" x="124.65" y="310.22" width="9.69" height="13.97"/><rect class="cls-6" x="142.25" y="310.22" width="9.68" height="13.97"/><rect class="cls-5" x="59.33" y="65.24" width="87.51" height="0.75"/><rect class="cls-4" x="237.98" y="102.47" width="122.72" height="226.36"/><rect class="cls-4" x="255.38" y="91.26" width="87.91" height="11.21"/><rect class="cls-5" x="255.38" y="102.1" width="87.91" height="0.75"/><rect class="cls-6" x="249.83" y="113.19" width="99.01" height="6.78"/><rect class="cls-6" x="249.83" y="129.07" width="99.01" height="6.78"/><rect class="cls-6" x="249.83" y="144.95" width="99.01" height="6.78"/><rect class="cls-6" x="249.83" y="160.82" width="99.01" height="6.78"/><rect class="cls-6" x="249.83" y="176.7" width="99.01" height="6.78"/><rect class="cls-6" x="249.83" y="192.58" width="99.01" height="6.78"/><rect class="cls-6" x="249.83" y="208.46" width="99.01" height="6.78"/><rect class="cls-6" x="249.83" y="224.34" width="99.01" height="6.78"/><path class="cls-7" d="M486.68,137.08v78.38h63.19V137.08Zm18.06,56h-8.56v-33.6h8.56Zm25.08,0H506.73v-33.6h23.09Zm10.55,0h-8.56v-33.6h8.56Z"/><path class="cls-7" d="M549.87,137.08v78.38h63.19V137.08Zm18.06,56h-8.56v-33.6h8.56Zm25.08,0h-23.1v-33.6H593Zm10.55,0H595v-33.6h8.56Z"/><path class="cls-7" d="M486.68,215.71v78.38h63.19V215.71Zm18.06,56h-8.56V238.1h8.56Zm25.08,0H506.73V238.1h23.09Zm10.55,0h-8.56V238.1h8.56Z"/><path class="cls-7" d="M423.49,215.71v78.38h63.19V215.71Zm18.06,56H433V238.1h8.56Zm25.09,0h-23.1V238.1h23.1Zm10.54,0h-8.56V238.1h8.56Z"/><path class="cls-7" d="M549.87,215.71v78.38h63.19V215.71Zm18.06,56h-8.56V238.1h8.56Zm25.08,0h-23.1V238.1H593Zm10.55,0H595V238.1h8.56Z"/><path class="cls-7" d="M486.68,293.83v78.38h63.19V293.83Zm18.06,56h-8.56v-33.6h8.56Zm25.08,0H506.73v-33.6h23.09Zm10.55,0h-8.56v-33.6h8.56Z"/><path class="cls-7" d="M423.49,293.83v78.38h63.19V293.83Zm18.06,56H433v-33.6h8.56Zm25.09,0h-23.1v-33.6h23.1Zm10.54,0h-8.56v-33.6h8.56Z"/><path class="cls-7" d="M549.87,293.83v78.38h63.19V293.83Zm18.06,56h-8.56v-33.6h8.56Zm25.08,0h-23.1v-33.6H593Zm10.55,0H595v-33.6h8.56Z"/><polygon class="cls-1" points="487.06 372.21 486.31 372.21 486.31 215.08 613.06 215.08 613.06 215.83 487.06 215.83 487.06 372.21"/><rect class="cls-1" x="423.49" y="293.46" width="189.56" height="0.75"/><rect class="cls-1" x="549.49" y="137.08" width="0.75" height="235.63"/><rect class="cls-1" x="493.58" y="192.69" width="49.82" height="0.75"/><rect class="cls-1" x="556.55" y="192.69" width="49.82" height="0.75"/><rect class="cls-1" x="493.58" y="271.32" width="49.82" height="0.75"/><rect class="cls-1" x="430.8" y="271.32" width="49.82" height="0.75"/><rect class="cls-1" x="556.55" y="271.32" width="49.82" height="0.75"/><rect class="cls-1" x="493.58" y="349.44" width="49.82" height="0.75"/><rect class="cls-1" x="430.8" y="349.44" width="49.82" height="0.75"/><rect class="cls-1" x="556.55" y="349.44" width="49.82" height="0.75"/><rect class="cls-1" x="19.52" y="322.23" width="6.45" height="48.6"/><rect class="cls-1" x="89.44" y="322.23" width="6.44" height="48.6"/><rect class="cls-1" x="11.02" y="369.3" width="23.44" height="3.08"/><rect class="cls-1" x="80.94" y="369.3" width="23.44" height="3.08"/><rect class="cls-2" x="11.02" y="308.63" width="93.36" height="17.53"/><polygon class="cls-3" points="24.39 326.16 17.68 326.16 11.02 308.63 17.74 308.63 24.39 326.16"/><polygon class="cls-3" points="64.5 326.16 57.79 326.16 51.13 308.63 57.85 308.63 64.5 326.16"/><polygon class="cls-3" points="77.64 326.16 70.92 326.16 64.27 308.63 70.98 308.63 77.64 326.16"/><polygon class="cls-3" points="104.38 326.16 97.67 326.16 91.01 308.63 97.72 308.63 104.38 326.16"/><polygon class="cls-3" points="91.01 326.16 84.29 326.16 77.64 308.63 84.35 308.63 91.01 326.16"/><polygon class="cls-3" points="51.13 326.16 44.42 326.16 37.76 308.63 44.48 308.63 51.13 326.16"/><polygon class="cls-3" points="37.76 326.16 31.05 326.16 24.39 308.63 31.11 308.63 37.76 326.16"/><rect class="cls-1" x="22.74" y="346.16" width="68.62" height="0.75"/><rect class="cls-1" x="22.74" y="342.94" width="68.62" height="0.75"/><rect class="cls-1" x="390.18" y="67.37" width="238.44" height="0.75"/><path class="cls-1" d="M373.36,125.53v3a5,5,0,0,1-2,2.32c-7.56,4.85-5.66,15.24,3,15.24,5.46,0,8.68-3.28,8.29-9.9.79-.71.29-3-1.41-2.09s-1.74,6.52-5.89,6.59c-3.19.06-3.89-3.34-2.66-5.24s4.4-2.88,4.66-6.92v-3Z"/><rect class="cls-8" x="372.06" y="119.03" width="6.3" height="7.45" rx="1.25"/><rect class="cls-1" x="360.03" y="62.77" width="30.15" height="9.96"/><path class="cls-8" d="M396.57,38.87H370v.05L354.85,59.49h0l-3,4.15,36.33,0H719.7V38.87Zm-8.45,4.21h11.13l-11,15-11-15Zm-16.05.13,12.05,16.28H360Zm24.5,16.28h-4.22l11.33-15.41L415,59.49Zm11.53-16.3h22.64l-11.32,15.4Zm15.74,16.3,11.33-15.41,11.32,15.41Zm15.75-16.41h22.64L450.91,58.49Zm15.74,16.41,11.33-15.41L478,59.49Zm15.75-16.3h22.64L482.4,58.59Zm15.74,16.3,11.33-15.41,11.32,15.41Zm15.75-16.41h22.64L513.89,58.49Zm15.74,16.41,11.33-15.41L541,59.49Zm15.75-16.3h22.2v-.11h.54l-.54.74v0l-10.88,14.8Zm15.84,16.3,11.32-15.41,11.33,15.41Zm15.75-16.3h22.64L577,58.59Zm15.74,16.3,11.32-15.41L604,59.49Zm15.75-16.41h22.64L608.46,58.49Zm15.74,16.41L624.2,44.08l11.33,15.41Zm15.75-16.3h22.64L640,58.59Zm15.74,16.3,11.32-15.41L667,59.49Zm15.75-16.41h22.64L671.44,58.49Zm15.74,16.41,11.32-15.41,11.33,15.41Zm15.75-16.3h22.64l-11.32,15.4Zm27,16.3H707.35l11.28-15.35Z"/><path class="cls-8" d="M649,0H638.27l-7.71,42.71h25Zm-9.87,19.72,2.46-13.6h3.4l2.1,13.6Z"/><path class="cls-8" d="M625.36,93.18v249h35.41v-249Zm6.15,7.79,22,16.17-22,16.18Zm-.15,45,22,16.18-22,16.18Zm.15,45,22,16.18-22,16.18Zm-.15,45,22,16.18-22,16.18Zm.15,45,22,16.18-22,16.18Zm21.78,61.2H631.36V325.91l22,16.18Zm1.47-6.35-22-16.18,22-16.17Zm0-45-22-16.17,22-16.18Zm0-45-22-16.17,22-16.18Zm0-45-22-16.17,22-16.18Zm0-45-22-16.17,22-16.18Zm0-45L632.88,94.71h21.88Z"/><rect class="cls-1" x="618.36" y="87.44" width="49.4" height="7.31"/><polygon class="cls-1" points="587.14 348.43 587.14 367.93 587.14 372.71 605.82 372.71 613.22 367.93 672.9 367.93 680.3 372.71 698.98 372.71 698.98 367.93 698.98 348.43 587.14 348.43"/><path class="cls-3" d="M667.37,90.37H618.76a9.16,9.16,0,0,1-9.16-9.16V56.91a9.18,9.18,0,0,1,2.62-6.42l21.51-21.94a9.19,9.19,0,0,1,6.54-2.74h27.1A9.16,9.16,0,0,1,676.53,35V81.21A9.16,9.16,0,0,1,667.37,90.37Z"/><path class="cls-2" d="M615.79,74.31V57.82a5.26,5.26,0,0,1,1.52-3.71l20.3-20.63a3.69,3.69,0,0,1,2.64-1.11h17.62v21l-5.48,2.94a20.46,20.46,0,0,0-10.78,18H615.79Z"/><rect class="cls-1" x="648.77" y="63.94" width="6.04" height="0.75"/><rect class="cls-1" x="609.6" y="80.84" width="66.93" height="0.75"/><rect class="cls-1" x="661.98" y="25.81" width="0.75" height="55.41"/><rect class="cls-1" x="615.79" y="71.37" width="26.02" height="0.75"/><rect class="cls-1" x="636.88" y="33.84" width="20.99" height="0.75"/><polyline class="cls-3" points="596.36 348.43 596.36 341.83 689.76 341.83 689.76 348.43"/><path class="cls-1" d="M633.72,29.1l-.53-.52.28-.29a9.57,9.57,0,0,1,6.8-2.86h12.48v.75H640.27A8.82,8.82,0,0,0,634,28.82Z"/><rect class="cls-8" x="718.63" y="36.15" width="7.92" height="30.28"/><rect class="cls-1" x="367.32" y="70.21" width="0.75" height="39.2"/><rect class="cls-1" x="382.14" y="70.21" width="0.75" height="39.2"/><path class="cls-1" d="M385.46,104.35a10.26,10.26,0,1,0-20,3.16h0L369.56,119a3.47,3.47,0,0,0,3.27,2.31h4.86a3.36,3.36,0,0,0,3.14-2.21l4.2-11.64h0A10.27,10.27,0,0,0,385.46,104.35Z"/><circle class="cls-8" cx="375.21" cy="104.91" r="5.69"/><path class="cls-1" d="M375.21,108.18a3.27,3.27,0,1,1,3.26-3.27A3.28,3.28,0,0,1,375.21,108.18Zm0-5.78a2.52,2.52,0,1,0,2.51,2.51A2.52,2.52,0,0,0,375.21,102.4Z"/><rect class="cls-7" x="320.8" y="166.41" width="107.98" height="11.77"/><polygon class="cls-1" points="425.61 166.75 375.16 141.55 325.16 166.74 324.82 166.07 375.16 140.71 425.95 166.07 425.61 166.75"/><rect class="cls-1" x="320.8" y="166.03" width="107.98" height="0.75"/><rect class="cls-1" x="372.07" y="42.83" width="242.21" height="0.75"/><rect class="cls-1" x="360.03" y="59.11" width="239.96" height="0.75"/><rect class="cls-1" x="679.65" y="42.83" width="38.98" height="0.75"/><rect class="cls-1" x="681.18" y="59.11" width="37.45" height="0.75"/><rect class="cls-1" x="718.25" y="37.19" width="0.75" height="27.91"/><rect class="cls-1" x="631.14" y="97.28" width="0.75" height="244.55"/><rect class="cls-1" x="654.38" y="104" width="0.75" height="237.83"/><rect class="cls-1" y="371.88" width="750" height="0.75"/><path class="cls-2" d="M427.45,139.34a4.28,4.28,0,0,1,6.49-1.9A7.7,7.7,0,0,1,447,132,10.11,10.11,0,0,1,466.71,134a5.9,5.9,0,0,1,8.36,5.37v0Z"/><path class="cls-2" d="M234.71,55a8.31,8.31,0,0,1,12.6-3.67A14.94,14.94,0,0,1,272.7,40.81a19.62,19.62,0,0,1,38.18,3.75A11.44,11.44,0,0,1,327.09,55v0Z"/><path class="cls-2" d="M119.65,32.44a7.77,7.77,0,0,0-13.94-4,11,11,0,0,0-18.29-6.61,17,17,0,0,0-32.09-5.31A13.41,13.41,0,0,0,34.21,26.61a7.78,7.78,0,0,0-12,5.83Z"/><path class="cls-2" d="M571.56,16.18a6.86,6.86,0,0,0-5.46,2.73A9.67,9.67,0,0,0,550,13.08a14.95,14.95,0,0,0-28.27-4.67,11.8,11.8,0,0,0-18.6,8.87,6.85,6.85,0,0,0-10.54,5.14h85.81A6.86,6.86,0,0,0,571.56,16.18Z"/><path class="cls-2" d="M477.66,14.64A8,8,0,0,0,470,20.27a5.56,5.56,0,0,0-7.53,2.15h23.2A8,8,0,0,0,477.66,14.64Z"/><path class="cls-7" d="M145.79,227.52a38,38,0,0,0-28.17-5.1c-10.59,2.36-19.49,9.44-25.71,20.45C51.64,306.49,36.52,358.25,36.52,358.25c-8.1,20.15-4,35.32,0,41.77a30,30,0,0,0,27.23,14.16,33.47,33.47,0,0,0,3.9-.44c11.71-2.06,21.93-10.62,27.84-23.55l64.48-107.87.09-.18C172.23,258.12,161.2,237,145.79,227.52Z"/><path class="cls-7" d="M235.88,227.52a38,38,0,0,1,28.16-5.1c10.59,2.36,19.49,9.44,25.72,20.45,40.26,63.62,55.39,115.38,55.39,115.38a46.27,46.27,0,0,0,26.77,25.93S338,408.63,333.06,411.07a30.63,30.63,0,0,1-15.12,3.11,34,34,0,0,1-3.9-.44c-11.71-2.06-21.92-10.62-27.83-23.55L221.73,282.32l-.1-.18C209.43,258.12,220.46,237,235.88,227.52Z"/><path class="cls-3" d="M215.75,233c0,20.92-37.95,18-51.14-3.43V161.44h51.14Z"/><path class="cls-1" d="M164.34,166.69c-11.58-22.8-14.8-79.24,8.82-80.21l70.8,2.8s9.45,3.79-.17,45.66Z"/><path class="cls-3" d="M164.61,166.8a81.23,81.23,0,0,0,10.69,17.37c8.33,10.46,18.58,15.89,31.9,16.51,9.84.46,19.05-2,25.75-9.7,13.37-15.37,12-35.36,12.14-54.57q.1-18.9-.27-37.81L188.59,85.3,175.09,93l-7.87,14.82-2.45,16Z"/><path class="cls-1" d="M168.17,143c8.63-1.83,10.32-23.94,11.51-40.63,0,0,34.12,12.28,64.58.25,8.87.14-16.36-45.43-81.89-10.19l-.61,41.87Z"/><path class="cls-3" d="M169.4,137.42l-.27-.41a12.06,12.06,0,0,0-3.75-3.74c-3.23-1.85-6.84-1.24-9.87.74-12.2,9-.6,35.45,12.67,32.62,5.34-2.2,6.69-7.81,6.2-13.18C173.91,148.26,172.28,141.86,169.4,137.42Z"/><path class="cls-1" d="M163,156.4c-5-2.72-6.34-8.93-4.75-13.12,1-2.6,2.93-3.83,5.21-3.31l-.16.73c-2.71-.62-3.95,1.78-4.35,2.84-1.29,3.4-.48,9.54,4.41,12.21Z"/><path class="cls-1" d="M186.87,194.6a43,43,0,0,0,28.88,5.64v8.83C195.28,207.92,186.87,194.6,186.87,194.6Z"/><path class="cls-1" d="M194.3,144.19l-.28-.7c6-2.43,10.31-2.41,12.83.08l-.52.54C204,141.85,200,141.88,194.3,144.19Z"/><path class="cls-1" d="M204.11,144.58a2.67,2.67,0,1,1-2.66-2.73A2.69,2.69,0,0,1,204.11,144.58Z"/><path class="cls-1" d="M240.6,144.74a2.63,2.63,0,1,1-2.61-2.69A2.64,2.64,0,0,1,240.6,144.74Z"/><path class="cls-1" d="M193.07,132.77a14.65,14.65,0,0,1,3.41-1.81,12.89,12.89,0,0,1,3.87-.8,9.38,9.38,0,0,1,7.29,2.72.37.37,0,0,1,0,.53.38.38,0,0,1-.38.08,22.42,22.42,0,0,0-3.41-1,15.63,15.63,0,0,0-3.41-.31,20.91,20.91,0,0,0-3.48.42c-1.17.24-2.34.56-3.56.87a.37.37,0,0,1-.45-.26A.38.38,0,0,1,193.07,132.77Z"/><path class="cls-1" d="M229.61,132.77A14.26,14.26,0,0,1,233,131a12.89,12.89,0,0,1,3.87-.8,9.38,9.38,0,0,1,7.29,2.72.38.38,0,0,1,0,.53.4.4,0,0,1-.39.08,22.08,22.08,0,0,0-3.41-1,15.57,15.57,0,0,0-3.41-.31,20.8,20.8,0,0,0-3.47.42c-1.17.24-2.35.56-3.56.87a.36.36,0,0,1-.45-.26A.38.38,0,0,1,229.61,132.77Z"/><path class="cls-1" d="M216.6,174.22a12.06,12.06,0,0,1-4.51-.93l.28-.7a9.93,9.93,0,0,0,8.08,0l.31.68A9.94,9.94,0,0,1,216.6,174.22Z"/><path class="cls-1" d="M218.57,168.7c-6.49,0-12.6-.74-14.83-4.81l.66-.36c2.67,4.86,12.22,4.55,19.9,4.29l.85,0,0,.75-.86,0C222.43,168.63,220.48,168.7,218.57,168.7Z"/><path class="cls-2" d="M208.31,150.76h-16.6a6,6,0,0,1-6-6v-4.36a6,6,0,0,1,6-6h16.6a6,6,0,0,1,6,6v4.36A6,6,0,0,1,208.31,150.76Zm-16.6-15.35a5,5,0,0,0-5,5v4.36a5,5,0,0,0,5,5h16.6a5,5,0,0,0,5-5v-4.36a5,5,0,0,0-5-5Z"/><path class="cls-2" d="M244.84,150.76h-16.6a6,6,0,0,1-6-6v-4.36a6,6,0,0,1,6-6h16.6a6,6,0,0,1,6,6v4.36A6,6,0,0,1,244.84,150.76Zm-16.6-15.35a5,5,0,0,0-5,5v4.36a5,5,0,0,0,5,5h16.6a5,5,0,0,0,5-5v-4.36a5,5,0,0,0-5-5Z"/><path class="cls-1" d="M215.08,160l-.23-.72c.08,0,7.26-2.3,7-5.62-.25-3.54-7.82-17.68-7.9-17.82l.66-.36c.32.59,7.72,14.43,8,18.13C222.9,157.54,215.4,159.92,215.08,160Z"/><path class="cls-2" d="M213.31,138.18l-.45-.89a11.48,11.48,0,0,1,10.83,0l-.45.89A10.41,10.41,0,0,0,213.31,138.18Z"/><rect class="cls-2" x="171.01" y="139.78" width="15.2" height="1"/><path class="cls-1" d="M231.18,144.19l-.28-.7c6-2.43,10.31-2.4,12.83.08l-.53.54C240.91,141.85,236.87,141.88,231.18,144.19Z"/><path class="cls-1" d="M164.61,166.69s5.5.84,7.38-2.89c-.64,4.89-3.14,7.26-7.38,7.26Z"/><path class="cls-1" d="M164.88,151.84a6,6,0,0,0-6.21-1.23l-.29-.69a6.85,6.85,0,0,1,7,1.37Z"/><path class="cls-8" d="M150.35,127.22h42l22.28,7.35c9.26,2.51,48.89,1.11,51.22-1.38,1.72-2.05-4.1-6.47-8.48-8.61V114.52h-2.77s-5.8-50-52.69-50c-42.8,0-48.77,49-48.77,49h-2.78Z"/><polygon class="cls-1" points="169.6 127.22 168.85 127.22 168.85 117.78 159.47 117.78 159.47 127.22 158.72 127.22 158.72 117.03 169.6 117.03 169.6 127.22"/><polygon class="cls-1" points="211.53 127.22 210.78 127.22 210.78 117.78 199.09 117.78 199.09 127.22 198.34 127.22 198.34 117.03 211.53 117.03 211.53 127.22"/><path class="cls-1" d="M222.19,127.88c-9.1,0-19.32-.13-29.85-.29v-.75c23,.35,61.47.94,64.53-2.08a.3.3,0,0,0,.11-.18h.75a1,1,0,0,1-.33.72C255.36,127.32,241.21,127.88,222.19,127.88Z"/><polygon class="cls-1" points="251.69 118.64 250.94 118.64 250.94 114.15 254.59 114.15 254.59 114.9 251.69 114.9 251.69 118.64"/><path class="cls-8" d="M197.1,64.73c11.63.71,20.76,8.22,27.75,21.55h11.48C227.88,66.2,207.34,58.87,197.1,64.73Z"/><path class="cls-1" d="M180.82,71.19a32,32,0,0,1,10,.86,21.62,21.62,0,0,1,8.92,4.66,24.08,24.08,0,0,1,5.83,8.19,37.47,37.47,0,0,1,2.73,9.64l-.27,0a43.19,43.19,0,0,0-3-9.42,24.11,24.11,0,0,0-5.75-7.9,21.39,21.39,0,0,0-8.58-4.62,35.51,35.51,0,0,0-9.81-1.21Z"/><path class="cls-1" d="M152.16,123.77l-.75,0a67.62,67.62,0,0,1,1.36-10.28l.73.15A67.61,67.61,0,0,0,152.16,123.77Z"/><path class="cls-1" d="M236.89,86.66H224.63l-.11-.2C217.45,73,208.21,65.78,197.07,65.11l.05-.75c11.36.69,20.77,7.94,28,21.55h10.68a39.61,39.61,0,0,0-15-17.81l.41-.63a40.45,40.45,0,0,1,15.49,18.67Z"/><path class="cls-7" d="M165.14,209.07S110.05,214.56,95,238.18C91.38,256,95,481.7,95,481.7H274.54s21-222.59,13.32-243.52-72.11-27.38-72.11-27.38C207.29,234,188.62,227.9,165.14,209.07Z"/><circle class="cls-2" cx="202.41" cy="231.71" r="1.72"/><circle class="cls-2" cx="202.41" cy="280.03" r="1.72"/><circle class="cls-2" cx="202.41" cy="328.36" r="1.72"/><circle class="cls-2" cx="202.41" cy="376.69" r="1.72"/><circle class="cls-2" cx="202.41" cy="425.02" r="1.72"/><circle class="cls-2" cx="202.41" cy="473.34" r="1.72"/><path class="cls-8" d="M180.09,272.55l-28.32-62.32C130.18,213,101.05,221.57,91.38,240c0,0,21.55,29.42,1.35,115.23C93.58,418.3,95,481.7,95,481.7h92.91v-173A87.39,87.39,0,0,0,180.09,272.55Z"/><path class="cls-8" d="M287.86,236.76c-7.73-20.93-61.72-25.36-61.72-25.36-2,16.54-9.72,75.42-9.72,75.42V481.7h63.93S295.59,257.69,287.86,236.76Z"/><path class="cls-2" d="M177.14,452q-41.16.1-82.82-3c.12,5.93.23,11.08.31,15.26q40.55,2.9,82.51,2.91Z"/><path class="cls-2" d="M226.78,451.9v15.23c18.91-.27,37.2-1.14,54.7-2.79.27-4.18.59-9.32,1-15.26Q254,451.56,226.78,451.9Z"/><path class="cls-2" d="M177.14,422.3q-42.78-.14-83.38-2.89L94,434.12q41.73,2.75,83.11,2.9Z"/><path class="cls-2" d="M226.78,422.07V437q28.49-.36,56.57-2.83c.21-3.11.62-10.35.87-14.71Q254.68,421.36,226.78,422.07Z"/><path class="cls-7" d="M164.61,195.49l-7.94,14.74s15.41,26.64,31.49,34.19L202,225.48C182.73,215.11,168.33,205.19,164.61,195.49Z"/><rect class="cls-1" x="207.04" y="231.5" width="0.75" height="250.2"/><rect class="cls-1" x="197.04" y="231.71" width="0.75" height="249.99"/><path class="cls-7" d="M202,225.48a25,25,0,0,0,13.76-14.68v-8.05l5.43,8.81c.75,11.45-2.31,20-7.85,26.62A91.58,91.58,0,0,0,202,225.48Z"/><polygon class="cls-2" points="409.78 396.51 178.84 396.51 237.98 202.75 468.92 202.75 409.78 396.51"/><path class="cls-1" d="M278.47,375.26H212.91l6.26-20.5h65.55Zm-64.54-.75h64l5.8-19h-64Z"/><path class="cls-1" d="M396.19,375.26H343.64l2.58-8.49h52.56Zm-51.54-.75h51l2.13-7h-51Z"/><polygon class="cls-6" points="243.88 271.72 229.53 318.74 370.81 318.74 385.16 271.72 243.88 271.72"/><path class="cls-1" d="M389.24,328.16H273.51l.15-.48,19.95-65.38H409.34l-.15.48Zm-114.72-.75H388.68l19.65-64.36H294.17Z"/><path class="cls-1" d="M403.49,389.56H189.35l.15-.48L244.26,209.7H458.4l-.15.48Zm-213.12-.75H402.94l54.45-178.36H244.82Z"/><polygon class="cls-1" points="216.97 272.5 216.25 272.28 237.7 202.38 338.16 202.38 338.16 203.13 238.25 203.13 216.97 272.5"/><polygon class="cls-1" points="410.06 396.88 355.48 396.88 355.48 396.13 409.5 396.13 421.3 357.37 422.01 357.59 410.06 396.88"/><rect class="cls-1" x="333.25" y="222.72" width="108.92" height="0.75"/><rect class="cls-1" x="361.11" y="235.34" width="77.15" height="0.75"/><path class="cls-1" d="M188.22,245l-.31-.26c-9.67-8.33-20-19.53-31.53-34.24L157,210c11.4,14.52,21.58,25.6,31.12,33.87l13.88-19,11.35,12.73c5.6-6.73,8.12-15.48,7.48-26l.75-.05c.66,10.93-2,20-7.93,26.89l-.28.33L202,226.07Z"/><path class="cls-3" d="M440.7,295.23l-2.16,7.13a25.87,25.87,0,0,0-4.78-2.17s-11.9-5.06-16.34,1.52-6.73,24.43-4.65,31.91,13.93,11.9,13.93,11.9C440.38,350.94,453.93,300.68,440.7,295.23Z"/><rect class="cls-1" x="425.18" y="298.25" width="0.75" height="21.07" transform="translate(-13.95 597.37) rotate(-69.25)"/><rect class="cls-1" x="421.37" y="308.82" width="0.75" height="19.78" transform="translate(-68.76 515.81) rotate(-58.97)"/><rect class="cls-1" x="419.09" y="319.61" width="0.75" height="17.88" transform="translate(-87.78 491.67) rotate(-55.9)"/><path class="cls-3" d="M165.34,311c5.86-7,23.8-23.67,46.88-24.21L208.83,298s28.94.05,29.95,7.7-4.95,23.94-10.15,29.4-47.34,16.27-47.34,16.27C159.42,354.78,146.06,334.17,165.34,311Z"/><rect class="cls-1" x="218.15" y="288.62" width="0.75" height="40.58" transform="translate(-94.81 521.04) rotate(-88.82)"/><rect class="cls-1" x="201.37" y="318.4" width="35.8" height="0.75" transform="translate(-17.93 13.11) rotate(-3.29)"/><rect class="cls-1" x="204.04" y="328.27" width="29.84" height="0.75" transform="translate(-38.99 29.62) rotate(-7.11)"/><rect class="cls-1" x="199.22" y="297.62" width="9.61" height="0.75"/><path class="cls-7" d="M84,409.73c35-15.08,69.47-34.7,103.61-58.09l-23-44c-42.15,11.05-79.26,24.26-110.71,39.89C9.83,367.93,38.09,431.53,84,409.73Z"/><path class="cls-1" d="M54.06,347.91l-.32-.68c16-7.65,30.41-13.89,44.12-19.08l.27.7C84.43,334,70,340.27,54.06,347.91Z"/><polygon class="cls-1" points="176.05 359.17 153.78 315.52 154.44 315.18 176.72 358.83 176.05 359.17"/><path class="cls-2" d="M180.56,349.76a1.72,1.72,0,1,1-1.72-1.72A1.72,1.72,0,0,1,180.56,349.76Z"/><path class="cls-1" d="M175.08,294.33c-.72-6-4.07-12.75-4.11-12.82l-30-69,.68-.3,30,69c0,.05,3.44,6.91,4.18,13.05Z"/><path class="cls-1" d="M110.13,321.24l-.75-.1c4.65-32.28,2.18-73.34-11.55-89.39l.57-.49C112.27,247.48,114.8,288.8,110.13,321.24Z"/><rect class="cls-1" x="176.75" y="365.01" width="0.75" height="116.69"/><rect class="cls-1" x="226.67" y="396.51" width="0.75" height="85.19"/></g></g></svg>