<svg xmlns="http://www.w3.org/2000/svg" viewBox="0 0 646.34 406.91"><defs><style>.cls-1{fill:#f28e72;}.cls-2{fill:#ef6c45;}.cls-3{fill:#76acde;}.cls-4{fill:#689dcf;}.cls-5{fill:#598fc2;}.cls-6{fill:#bf492e;}.cls-10,.cls-11,.cls-14,.cls-16,.cls-17,.cls-18,.cls-20,.cls-23,.cls-37,.cls-39,.cls-43,.cls-45,.cls-46,.cls-48,.cls-51,.cls-56,.cls-58,.cls-59,.cls-62,.cls-64,.cls-65,.cls-68,.cls-7,.cls-70,.cls-75,.cls-8,.cls-9{fill:none;}.cls-7{stroke:#5287b8;}.cls-10,.cls-11,.cls-16,.cls-17,.cls-18,.cls-20,.cls-37,.cls-39,.cls-43,.cls-45,.cls-46,.cls-48,.cls-51,.cls-56,.cls-58,.cls-59,.cls-62,.cls-64,.cls-65,.cls-68,.cls-7,.cls-70,.cls-75,.cls-8,.cls-9{stroke-miterlimit:10;}.cls-7,.cls-9{stroke-width:0.53px;}.cls-10,.cls-11,.cls-14,.cls-8,.cls-9{stroke:#67a9e6;}.cls-8{stroke-width:0.51px;}.cls-10{stroke-width:0.99px;}.cls-11{stroke-width:1.97px;}.cls-12{fill:#67a9e6;}.cls-13{fill:#5e9ad1;}.cls-14,.cls-23{stroke-linecap:round;stroke-linejoin:round;}.cls-14{stroke-width:0.46px;}.cls-15{fill:#206ab0;}.cls-16,.cls-17{stroke:#3b658f;}.cls-16,.cls-18{stroke-width:0.59px;}.cls-17{stroke-width:0.76px;}.cls-18,.cls-20,.cls-23{stroke:#5595d1;}.cls-19{fill:#305375;}.cls-20{stroke-width:1.15px;}.cls-21{fill:#3b658f;}.cls-22{fill:#5595d1;}.cls-23{stroke-width:0.54px;}.cls-24{fill:#d1d1d1;}.cls-25{fill:#fff;}.cls-26{fill:#f76d17;}.cls-27{fill:#f7ca17;}.cls-28{fill:#382e1c;}.cls-29{fill:#cca28b;}.cls-30{fill:#cf5214;}.cls-31{fill:#f7c317;}.cls-32{fill:#8c5b1f;}.cls-33{fill:#ff9c9c;}.cls-34{fill:#ff6b6b;}.cls-35{fill:#1e805b;}.cls-36{fill:#165e43;}.cls-37{stroke:#165e43;}.cls-37,.cls-56,.cls-59{stroke-width:0.45px;}.cls-38{fill:#1d456b;}.cls-39,.cls-59{stroke:#183a59;}.cls-39,.cls-43,.cls-51{stroke-width:0.49px;}.cls-40{fill:#3074b3;}.cls-41{fill:#183a59;}.cls-42{fill:#f7ce9c;}.cls-43{stroke:#8c5b1f;}.cls-44{fill:#1668ba;}.cls-45,.cls-68{stroke:#3074b3;}.cls-45{stroke-width:0.48px;}.cls-46{stroke:#db5c5c;}.cls-46,.cls-58,.cls-68,.cls-70{stroke-width:0.49px;}.cls-47{fill:#142e2e;}.cls-48{stroke:#cf5214;}.cls-48,.cls-64,.cls-75{stroke-width:0.99px;}.cls-49{fill:#1b80e6;}.cls-50{fill:#114e8c;}.cls-51{stroke:#fff;}.cls-52{fill:#31a87b;}.cls-53{fill:#f7da79;}.cls-54{fill:#b5993d;}.cls-55{fill:#755227;}.cls-56{stroke:#ba823e;}.cls-57{fill:#deaf15;}.cls-58{stroke:#755227;}.cls-60{fill:#ff8585;}.cls-61{fill:#595959;}.cls-62{stroke:#99790e;stroke-width:0.51px;}.cls-63{fill:#5a82bf;}.cls-64{stroke:#142e2e;}.cls-65{stroke:#382e1c;stroke-width:0.63px;}.cls-66{fill:#0c1c2b;}.cls-67{fill:#d3e3f2;}.cls-69{fill:#f7ad52;}.cls-70{stroke:#748da8;}.cls-71{fill:#d9d9d9;}.cls-72{fill:#949494;}.cls-73{fill:#5d646b;}.cls-74{fill:#363636;}.cls-75{stroke:#363636;}</style></defs><g id="Capa_2" data-name="Capa 2"><g id="OBJECTS"><path class="cls-1" d="M0,331.35V186.94C0,124.38,11.34,0,169.34,0c66,0,108.06,22.79,141.06,46.53A179.87,179.87,0,0,0,415.45,80.1h102A128.9,128.9,0,0,1,646.34,209V331.35Z"/><path class="cls-2" d="M556.81,340.3V170.67a18,18,0,0,1,18-18h0a18,18,0,0,1,18,18v22l14,9.34a44.91,44.91,0,0,1,20,37.38V340.3Z"/><path class="cls-2" d="M95,340.3V170.67a18,18,0,0,0-18-18h0a18,18,0,0,0-18,18v22L45,202A44.92,44.92,0,0,0,25,239.4V340.3Z"/><polygon class="cls-2" points="408.17 340.3 408.17 115.97 500.83 115.97 500.83 216.56 568.24 216.56 568.24 340.05 408.17 340.3"/><rect class="cls-3" x="276.76" y="137.96" width="142.68" height="4.36"/><rect class="cls-3" x="285.69" y="142.33" width="4.54" height="17.12"/><polygon class="cls-4" points="290.23 147.26 285.69 144.16 285.69 142.33 290.23 142.33 290.23 147.26"/><rect class="cls-3" x="309.75" y="142.33" width="4.54" height="17.12"/><polygon class="cls-4" points="314.29 147.26 309.75 144.16 309.75 142.33 314.29 142.33 314.29 147.26"/><rect class="cls-3" x="333.8" y="142.33" width="4.54" height="17.12"/><polygon class="cls-4" points="338.34 147.26 333.8 144.16 333.8 142.33 338.34 142.33 338.34 147.26"/><rect class="cls-3" x="357.85" y="142.33" width="4.54" height="17.12"/><polygon class="cls-4" points="362.39 147.26 357.85 144.16 357.85 142.33 362.39 142.33 362.39 147.26"/><rect class="cls-3" x="381.91" y="142.33" width="4.54" height="17.12"/><polygon class="cls-4" points="386.44 147.26 381.9 144.16 381.9 142.33 386.44 142.33 386.44 147.26"/><rect class="cls-3" x="405.96" y="142.33" width="4.54" height="17.12"/><polygon class="cls-4" points="410.5 147.26 405.96 144.16 405.96 142.33 410.5 142.33 410.5 147.26"/><rect class="cls-5" x="285.69" y="157.3" width="124.8" height="2.15"/><rect class="cls-3" x="276.76" y="159.45" width="142.68" height="4.36"/><rect class="cls-3" x="285.69" y="163.82" width="4.54" height="17.12"/><polygon class="cls-4" points="290.23 168.75 285.69 165.65 285.69 163.81 290.23 163.81 290.23 168.75"/><rect class="cls-3" x="309.75" y="163.82" width="4.54" height="17.12"/><polygon class="cls-4" points="314.29 168.75 309.75 165.65 309.75 163.81 314.29 163.81 314.29 168.75"/><rect class="cls-3" x="333.8" y="163.82" width="4.54" height="17.12"/><polygon class="cls-4" points="338.34 168.75 333.8 165.65 333.8 163.81 338.34 163.81 338.34 168.75"/><rect class="cls-3" x="357.85" y="163.82" width="4.54" height="17.12"/><polygon class="cls-4" points="362.39 168.75 357.85 165.65 357.85 163.81 362.39 163.81 362.39 168.75"/><rect class="cls-3" x="381.91" y="163.82" width="4.54" height="17.12"/><polygon class="cls-4" points="386.44 168.75 381.9 165.65 381.9 163.81 386.44 163.81 386.44 168.75"/><rect class="cls-3" x="405.96" y="163.82" width="4.54" height="17.12"/><polygon class="cls-4" points="410.5 168.75 405.96 165.65 405.96 163.81 410.5 163.81 410.5 168.75"/><rect class="cls-5" x="285.69" y="178.79" width="124.8" height="2.15"/><rect class="cls-3" x="276.76" y="180.94" width="142.68" height="4.36"/><rect class="cls-3" x="285.69" y="185.3" width="4.54" height="17.12"/><polygon class="cls-4" points="290.23 190.24 285.69 187.13 285.69 185.3 290.23 185.3 290.23 190.24"/><rect class="cls-3" x="309.75" y="185.3" width="4.54" height="17.12"/><polygon class="cls-4" points="314.29 190.24 309.75 187.13 309.75 185.3 314.29 185.3 314.29 190.24"/><rect class="cls-3" x="333.8" y="185.3" width="4.54" height="17.12"/><polygon class="cls-4" points="338.34 190.24 333.8 187.13 333.8 185.3 338.34 185.3 338.34 190.24"/><rect class="cls-3" x="357.85" y="185.3" width="4.54" height="17.12"/><polygon class="cls-4" points="362.39 190.24 357.85 187.13 357.85 185.3 362.39 185.3 362.39 190.24"/><rect class="cls-3" x="381.91" y="185.3" width="4.54" height="17.12"/><polygon class="cls-4" points="386.44 190.24 381.9 187.13 381.9 185.3 386.44 185.3 386.44 190.24"/><rect class="cls-3" x="405.96" y="185.3" width="4.54" height="17.12"/><polygon class="cls-4" points="410.5 190.24 405.96 187.13 405.96 185.3 410.5 185.3 410.5 190.24"/><rect class="cls-5" x="285.69" y="200.28" width="124.8" height="2.15"/><rect class="cls-3" x="276.76" y="202.43" width="142.68" height="4.36"/><rect class="cls-3" x="285.69" y="206.79" width="4.54" height="17.12"/><polygon class="cls-4" points="290.23 211.73 285.69 208.62 285.69 206.79 290.23 206.79 290.23 211.73"/><rect class="cls-3" x="309.75" y="206.79" width="4.54" height="17.12"/><polygon class="cls-4" points="314.29 211.73 309.75 208.62 309.75 206.79 314.29 206.79 314.29 211.73"/><rect class="cls-3" x="333.8" y="206.79" width="4.54" height="17.12"/><polygon class="cls-4" points="338.34 211.73 333.8 208.62 333.8 206.79 338.34 206.79 338.34 211.73"/><rect class="cls-3" x="357.85" y="206.79" width="4.54" height="17.12"/><polygon class="cls-4" points="362.39 211.73 357.85 208.62 357.85 206.79 362.39 206.79 362.39 211.73"/><rect class="cls-3" x="381.91" y="206.79" width="4.54" height="17.12"/><polygon class="cls-4" points="386.44 211.73 381.9 208.62 381.9 206.79 386.44 206.79 386.44 211.73"/><rect class="cls-3" x="405.96" y="206.79" width="4.54" height="17.12"/><polygon class="cls-4" points="410.5 211.73 405.96 208.62 405.96 206.79 410.5 206.79 410.5 211.73"/><rect class="cls-5" x="285.69" y="221.77" width="124.8" height="2.15"/><rect class="cls-3" x="276.76" y="223.91" width="142.68" height="4.36"/><rect class="cls-3" x="285.69" y="228.28" width="4.54" height="17.12"/><polygon class="cls-4" points="290.23 233.22 285.69 230.11 285.69 228.28 290.23 228.28 290.23 233.22"/><rect class="cls-3" x="309.75" y="228.28" width="4.54" height="17.12"/><polygon class="cls-4" points="314.29 233.22 309.75 230.11 309.75 228.28 314.29 228.28 314.29 233.22"/><rect class="cls-3" x="333.8" y="228.28" width="4.54" height="17.12"/><polygon class="cls-4" points="338.34 233.22 333.8 230.11 333.8 228.28 338.34 228.28 338.34 233.22"/><rect class="cls-3" x="357.85" y="228.28" width="4.54" height="17.12"/><polygon class="cls-4" points="362.39 233.22 357.85 230.11 357.85 228.28 362.39 228.28 362.39 233.22"/><rect class="cls-3" x="381.91" y="228.28" width="4.54" height="17.12"/><polygon class="cls-4" points="386.44 233.22 381.9 230.11 381.9 228.28 386.44 228.28 386.44 233.22"/><rect class="cls-3" x="405.96" y="228.28" width="4.54" height="17.12"/><polygon class="cls-4" points="410.5 233.22 405.96 230.11 405.96 228.28 410.5 228.28 410.5 233.22"/><rect class="cls-5" x="285.69" y="243.25" width="124.8" height="2.15"/><rect class="cls-3" x="276.76" y="245.4" width="142.68" height="4.36"/><rect class="cls-3" x="285.69" y="249.77" width="4.54" height="17.12"/><polygon class="cls-4" points="290.23 254.7 285.69 251.6 285.69 249.77 290.23 249.77 290.23 254.7"/><rect class="cls-3" x="309.75" y="249.77" width="4.54" height="17.12"/><polygon class="cls-4" points="314.29 254.7 309.75 251.6 309.75 249.77 314.29 249.77 314.29 254.7"/><rect class="cls-3" x="333.8" y="249.77" width="4.54" height="17.12"/><polygon class="cls-4" points="338.34 254.7 333.8 251.6 333.8 249.77 338.34 249.77 338.34 254.7"/><rect class="cls-3" x="357.85" y="249.77" width="4.54" height="17.12"/><polygon class="cls-4" points="362.39 254.7 357.85 251.6 357.85 249.77 362.39 249.77 362.39 254.7"/><rect class="cls-3" x="381.91" y="249.77" width="4.54" height="17.12"/><polygon class="cls-4" points="386.44 254.7 381.9 251.6 381.9 249.77 386.44 249.77 386.44 254.7"/><rect class="cls-3" x="405.96" y="249.77" width="4.54" height="17.12"/><polygon class="cls-4" points="410.5 254.7 405.96 251.6 405.96 249.77 410.5 249.77 410.5 254.7"/><rect class="cls-5" x="285.69" y="264.74" width="124.8" height="2.15"/><rect class="cls-3" x="276.76" y="266.89" width="142.68" height="4.36"/><rect class="cls-3" x="285.69" y="271.25" width="4.54" height="17.12"/><polygon class="cls-4" points="290.23 276.19 285.69 273.09 285.69 271.25 290.23 271.25 290.23 276.19"/><rect class="cls-3" x="309.75" y="271.25" width="4.54" height="17.12"/><polygon class="cls-4" points="314.29 276.19 309.75 273.09 309.75 271.25 314.29 271.25 314.29 276.19"/><rect class="cls-3" x="333.8" y="271.25" width="4.54" height="17.12"/><polygon class="cls-4" points="338.34 276.19 333.8 273.09 333.8 271.25 338.34 271.25 338.34 276.19"/><rect class="cls-3" x="357.85" y="271.25" width="4.54" height="17.12"/><polygon class="cls-4" points="362.39 276.19 357.85 273.09 357.85 271.25 362.39 271.25 362.39 276.19"/><rect class="cls-3" x="381.91" y="271.25" width="4.54" height="17.12"/><polygon class="cls-4" points="386.44 276.19 381.9 273.09 381.9 271.25 386.44 271.25 386.44 276.19"/><rect class="cls-3" x="405.96" y="271.25" width="4.54" height="17.12"/><polygon class="cls-4" points="410.5 276.19 405.96 273.09 405.96 271.25 410.5 271.25 410.5 276.19"/><rect class="cls-5" x="285.69" y="286.23" width="124.8" height="2.15"/><rect class="cls-3" x="276.76" y="288.38" width="142.68" height="4.36"/><rect class="cls-3" x="285.69" y="292.74" width="4.54" height="17.12"/><polygon class="cls-4" points="290.23 297.68 285.69 294.57 285.69 292.74 290.23 292.74 290.23 297.68"/><rect class="cls-3" x="309.75" y="292.74" width="4.54" height="17.12"/><polygon class="cls-4" points="314.29 297.68 309.75 294.57 309.75 292.74 314.29 292.74 314.29 297.68"/><rect class="cls-3" x="333.8" y="292.74" width="4.54" height="17.12"/><polygon class="cls-4" points="338.34 297.68 333.8 294.57 333.8 292.74 338.34 292.74 338.34 297.68"/><rect class="cls-3" x="357.85" y="292.74" width="4.54" height="17.12"/><polygon class="cls-4" points="362.39 297.68 357.85 294.57 357.85 292.74 362.39 292.74 362.39 297.68"/><rect class="cls-3" x="381.91" y="292.74" width="4.54" height="17.12"/><polygon class="cls-4" points="386.44 297.68 381.9 294.57 381.9 292.74 386.44 292.74 386.44 297.68"/><rect class="cls-3" x="405.96" y="292.74" width="4.54" height="17.12"/><polygon class="cls-4" points="410.5 297.68 405.96 294.57 405.96 292.74 410.5 292.74 410.5 297.68"/><rect class="cls-5" x="285.69" y="307.72" width="124.8" height="2.15"/><rect class="cls-3" x="276.76" y="309.87" width="142.68" height="4.36"/><rect class="cls-3" x="285.69" y="314.23" width="4.54" height="17.12"/><polygon class="cls-4" points="290.23 319.17 285.69 316.06 285.69 314.23 290.23 314.23 290.23 319.17"/><rect class="cls-3" x="309.75" y="314.23" width="4.54" height="17.12"/><polygon class="cls-4" points="314.29 319.17 309.75 316.06 309.75 314.23 314.29 314.23 314.29 319.17"/><rect class="cls-3" x="333.8" y="314.23" width="4.54" height="17.12"/><polygon class="cls-4" points="338.34 319.17 333.8 316.06 333.8 314.23 338.34 314.23 338.34 319.17"/><rect class="cls-3" x="357.85" y="314.23" width="4.54" height="17.12"/><polygon class="cls-4" points="362.39 319.17 357.85 316.06 357.85 314.23 362.39 314.23 362.39 319.17"/><rect class="cls-3" x="381.91" y="314.23" width="4.54" height="17.12"/><polygon class="cls-4" points="386.44 319.17 381.9 316.06 381.9 314.23 386.44 314.23 386.44 319.17"/><rect class="cls-3" x="405.96" y="314.23" width="4.54" height="17.12"/><polygon class="cls-4" points="410.5 319.17 405.96 316.06 405.96 314.23 410.5 314.23 410.5 319.17"/><rect class="cls-5" x="285.69" y="329.2" width="124.8" height="2.15"/><rect class="cls-2" x="217" y="83.71" width="110.83" height="247.65"/><rect class="cls-2" x="106.17" y="155.39" width="110.83" height="175.97"/><rect class="cls-1" x="211.06" y="155.39" width="5.95" height="175.97"/><rect class="cls-1" x="217" y="83.71" width="113.77" height="2.4"/><polygon class="cls-1" points="327.84 86.11 217 86.11 217 87.59 327.84 89.49 327.84 86.11"/><rect class="cls-1" x="217" y="111.88" width="113.77" height="2.4"/><polygon class="cls-1" points="327.84 114.28 217 114.28 217 115.76 327.84 117.67 327.84 114.28"/><rect class="cls-1" x="217" y="140.06" width="113.77" height="2.4"/><polygon class="cls-1" points="327.84 142.46 217 142.46 217 143.94 327.84 145.84 327.84 142.46"/><rect class="cls-1" x="103.24" y="155.02" width="113.77" height="2.4" transform="translate(320.24 312.45) rotate(180)"/><polygon class="cls-1" points="106.17 157.43 217.01 157.43 217.01 158.91 106.17 160.81 106.17 157.43"/><rect class="cls-1" x="103.24" y="186.04" width="113.77" height="2.4" transform="translate(320.24 374.49) rotate(180)"/><polygon class="cls-1" points="106.17 188.44 217.01 188.44 217.01 189.92 106.17 191.83 106.17 188.44"/><rect class="cls-1" x="103.24" y="217.06" width="113.77" height="2.4" transform="translate(320.24 436.52) rotate(180)"/><polygon class="cls-1" points="106.17 219.46 217.01 219.46 217.01 220.94 106.17 222.85 106.17 219.46"/><rect class="cls-1" x="103.24" y="248.08" width="113.77" height="2.4" transform="translate(320.24 498.56) rotate(180)"/><polygon class="cls-1" points="106.17 250.48 217.01 250.48 217.01 251.96 106.17 253.87 106.17 250.48"/><rect class="cls-1" x="103.24" y="279.1" width="113.77" height="2.4" transform="translate(320.24 560.6) rotate(180)"/><polygon class="cls-1" points="106.17 281.5 217.01 281.5 217.01 282.98 106.17 284.88 106.17 281.5"/><rect class="cls-1" x="103.24" y="310.12" width="113.77" height="2.4" transform="translate(320.24 622.64) rotate(180)"/><polygon class="cls-1" points="106.17 312.52 217.01 312.52 217.01 314 106.17 315.9 106.17 312.52"/><rect class="cls-1" x="217" y="168.23" width="113.77" height="2.4"/><polygon class="cls-1" points="327.84 170.63 217 170.63 217 172.11 327.84 174.02 327.84 170.63"/><rect class="cls-1" x="217" y="196.41" width="113.77" height="2.4"/><polygon class="cls-1" points="327.84 198.81 217 198.81 217 200.29 327.84 202.19 327.84 198.81"/><rect class="cls-1" x="217" y="224.58" width="113.77" height="2.4"/><polygon class="cls-1" points="327.84 226.98 217 226.98 217 228.46 327.84 230.37 327.84 226.98"/><rect class="cls-1" x="217" y="252.76" width="113.77" height="2.4"/><polygon class="cls-1" points="327.84 255.16 217 255.16 217 256.64 327.84 258.54 327.84 255.16"/><rect class="cls-1" x="217" y="280.93" width="113.77" height="2.4"/><polygon class="cls-1" points="327.84 283.33 217 283.33 217 284.81 327.84 286.72 327.84 283.33"/><rect class="cls-1" x="217" y="309.11" width="113.77" height="2.4"/><polygon class="cls-1" points="327.84 311.51 217 311.51 217 312.99 327.84 314.89 327.84 311.51"/><rect class="cls-6" x="226.84" y="95.2" width="11.38" height="11.38"/><rect class="cls-6" x="246.79" y="95.2" width="11.38" height="11.38"/><rect class="cls-6" x="266.73" y="95.2" width="11.38" height="11.38"/><rect class="cls-6" x="286.68" y="95.2" width="11.38" height="11.38"/><rect class="cls-6" x="306.63" y="95.2" width="11.38" height="11.38"/><rect class="cls-6" x="226.84" y="123.41" width="11.38" height="11.38"/><rect class="cls-6" x="246.79" y="123.41" width="11.38" height="11.38"/><rect class="cls-6" x="266.73" y="123.41" width="11.38" height="11.38"/><rect class="cls-6" x="286.68" y="123.41" width="11.38" height="11.38"/><rect class="cls-6" x="306.63" y="123.41" width="11.38" height="11.38"/><rect class="cls-6" x="226.84" y="151.62" width="11.38" height="11.38"/><rect class="cls-6" x="246.79" y="151.62" width="11.38" height="11.38"/><rect class="cls-6" x="266.73" y="151.62" width="11.38" height="11.38"/><rect class="cls-6" x="286.68" y="151.62" width="11.38" height="11.38"/><rect class="cls-6" x="306.63" y="151.62" width="11.38" height="11.38"/><rect class="cls-6" x="226.84" y="179.83" width="11.38" height="11.38"/><rect class="cls-6" x="246.79" y="179.83" width="11.38" height="11.38"/><rect class="cls-6" x="266.73" y="179.83" width="11.38" height="11.38"/><rect class="cls-6" x="286.68" y="179.83" width="11.38" height="11.38"/><rect class="cls-6" x="306.63" y="179.83" width="11.38" height="11.38"/><rect class="cls-6" x="226.84" y="208.04" width="11.38" height="11.38"/><rect class="cls-6" x="246.79" y="208.04" width="11.38" height="11.38"/><rect class="cls-6" x="266.73" y="208.04" width="11.38" height="11.38"/><rect class="cls-6" x="286.68" y="208.04" width="11.38" height="11.38"/><rect class="cls-6" x="306.63" y="208.04" width="11.38" height="11.38"/><rect class="cls-6" x="114.54" y="166.12" width="11.38" height="11.38"/><rect class="cls-6" x="134.49" y="166.12" width="11.38" height="11.38"/><rect class="cls-6" x="154.43" y="166.12" width="11.38" height="11.38"/><rect class="cls-6" x="174.38" y="166.12" width="11.38" height="11.38"/><rect class="cls-6" x="194.33" y="166.12" width="11.38" height="11.38"/><rect class="cls-6" x="114.54" y="197.44" width="11.38" height="11.38"/><rect class="cls-6" x="134.49" y="197.44" width="11.38" height="11.38"/><rect class="cls-6" x="154.43" y="197.44" width="11.38" height="11.38"/><rect class="cls-6" x="174.38" y="197.44" width="11.38" height="11.38"/><rect class="cls-6" x="194.33" y="197.44" width="11.38" height="11.38"/><rect class="cls-6" x="114.54" y="228.75" width="11.38" height="11.38"/><rect class="cls-6" x="134.49" y="228.75" width="11.38" height="11.38"/><rect class="cls-6" x="154.43" y="228.75" width="11.38" height="11.38"/><rect class="cls-6" x="174.38" y="228.75" width="11.38" height="11.38"/><rect class="cls-6" x="194.33" y="228.75" width="11.38" height="11.38"/><rect class="cls-6" x="114.54" y="260.07" width="11.38" height="11.38"/><rect class="cls-6" x="134.49" y="260.07" width="11.38" height="11.38"/><rect class="cls-6" x="154.43" y="260.07" width="11.38" height="11.38"/><rect class="cls-6" x="174.38" y="260.07" width="11.38" height="11.38"/><rect class="cls-6" x="194.33" y="260.07" width="11.38" height="11.38"/><rect class="cls-6" x="114.54" y="291.38" width="11.38" height="11.38"/><rect class="cls-6" x="134.49" y="291.38" width="11.38" height="11.38"/><rect class="cls-6" x="154.43" y="291.38" width="11.38" height="11.38"/><rect class="cls-6" x="174.38" y="291.38" width="11.38" height="11.38"/><rect class="cls-6" x="194.33" y="291.38" width="11.38" height="11.38"/><rect class="cls-6" x="226.84" y="236.25" width="11.38" height="11.38"/><rect class="cls-6" x="246.79" y="236.25" width="11.38" height="11.38"/><rect class="cls-6" x="266.73" y="236.25" width="11.38" height="11.38"/><rect class="cls-6" x="286.68" y="236.25" width="11.38" height="11.38"/><rect class="cls-6" x="306.63" y="236.25" width="11.38" height="11.38"/><rect class="cls-6" x="226.84" y="264.46" width="11.38" height="11.38"/><rect class="cls-6" x="246.79" y="264.46" width="11.38" height="11.38"/><rect class="cls-6" x="266.73" y="264.46" width="11.38" height="11.38"/><rect class="cls-6" x="286.68" y="264.46" width="11.38" height="11.38"/><rect class="cls-6" x="306.63" y="264.46" width="11.38" height="11.38"/><rect class="cls-6" x="226.84" y="292.67" width="11.38" height="11.38"/><rect class="cls-6" x="246.79" y="292.67" width="11.38" height="11.38"/><rect class="cls-6" x="266.73" y="292.67" width="11.38" height="11.38"/><rect class="cls-6" x="286.68" y="292.67" width="11.38" height="11.38"/><rect class="cls-6" x="306.63" y="292.67" width="11.38" height="11.38"/><polyline class="cls-7" points="387.89 105.52 550.35 56.82 594.71 99.8"/><polygon class="cls-8" points="387.89 105.52 591.12 105.52 591.12 99.8 396.74 99.8 387.89 105.52"/><line class="cls-8" x1="396.74" y1="99.8" x2="396.74" y2="105.52"/><line class="cls-9" x1="396.74" y1="105.52" x2="402.46" y2="99.8"/><line class="cls-9" x1="396.74" y1="99.8" x2="402.46" y2="105.52"/><line class="cls-9" x1="402.46" y1="105.52" x2="408.17" y2="99.8"/><line class="cls-9" x1="402.46" y1="99.8" x2="408.17" y2="105.52"/><line class="cls-9" x1="408.17" y1="105.52" x2="413.89" y2="99.8"/><line class="cls-9" x1="408.17" y1="99.8" x2="413.89" y2="105.52"/><line class="cls-9" x1="413.89" y1="105.52" x2="419.61" y2="99.8"/><line class="cls-9" x1="413.89" y1="99.8" x2="419.61" y2="105.52"/><line class="cls-9" x1="419.61" y1="105.52" x2="425.32" y2="99.8"/><line class="cls-9" x1="419.61" y1="99.8" x2="425.32" y2="105.52"/><line class="cls-9" x1="425.32" y1="105.52" x2="431.04" y2="99.8"/><line class="cls-9" x1="425.32" y1="99.8" x2="431.04" y2="105.52"/><line class="cls-9" x1="431.04" y1="105.52" x2="436.76" y2="99.8"/><line class="cls-9" x1="431.04" y1="99.8" x2="436.76" y2="105.52"/><line class="cls-9" x1="436.76" y1="105.52" x2="442.47" y2="99.8"/><line class="cls-9" x1="436.76" y1="99.8" x2="442.47" y2="105.52"/><line class="cls-9" x1="442.47" y1="105.52" x2="448.19" y2="99.8"/><line class="cls-9" x1="442.47" y1="99.8" x2="448.19" y2="105.52"/><line class="cls-9" x1="448.19" y1="105.52" x2="453.91" y2="99.8"/><line class="cls-9" x1="448.19" y1="99.8" x2="453.91" y2="105.52"/><line class="cls-9" x1="453.91" y1="105.52" x2="459.62" y2="99.8"/><line class="cls-9" x1="453.91" y1="99.8" x2="459.62" y2="105.52"/><line class="cls-9" x1="459.62" y1="105.52" x2="465.34" y2="99.8"/><line class="cls-9" x1="459.62" y1="99.8" x2="465.34" y2="105.52"/><line class="cls-9" x1="465.34" y1="105.52" x2="471.06" y2="99.8"/><line class="cls-9" x1="465.34" y1="99.8" x2="471.06" y2="105.52"/><line class="cls-9" x1="471.06" y1="105.52" x2="476.77" y2="99.8"/><line class="cls-9" x1="471.06" y1="99.8" x2="476.77" y2="105.52"/><line class="cls-9" x1="476.77" y1="105.52" x2="482.49" y2="99.8"/><line class="cls-9" x1="476.77" y1="99.8" x2="482.49" y2="105.52"/><line class="cls-9" x1="482.49" y1="105.52" x2="488.21" y2="99.8"/><line class="cls-9" x1="482.49" y1="99.8" x2="488.21" y2="105.52"/><line class="cls-9" x1="488.21" y1="105.52" x2="493.93" y2="99.8"/><line class="cls-9" x1="488.21" y1="99.8" x2="493.93" y2="105.52"/><line class="cls-9" x1="493.93" y1="105.52" x2="499.64" y2="99.8"/><line class="cls-9" x1="493.93" y1="99.8" x2="499.64" y2="105.52"/><line class="cls-9" x1="499.64" y1="105.52" x2="505.36" y2="99.8"/><line class="cls-9" x1="499.64" y1="99.8" x2="505.36" y2="105.52"/><line class="cls-9" x1="505.36" y1="105.52" x2="511.08" y2="99.8"/><line class="cls-9" x1="505.36" y1="99.8" x2="511.08" y2="105.52"/><line class="cls-9" x1="511.08" y1="105.52" x2="516.79" y2="99.8"/><line class="cls-9" x1="511.08" y1="99.8" x2="516.79" y2="105.52"/><line class="cls-9" x1="516.79" y1="105.52" x2="522.51" y2="99.8"/><line class="cls-9" x1="516.79" y1="99.8" x2="522.51" y2="105.52"/><line class="cls-9" x1="522.51" y1="105.52" x2="528.23" y2="99.8"/><line class="cls-9" x1="522.51" y1="99.8" x2="528.23" y2="105.52"/><line class="cls-9" x1="528.23" y1="105.52" x2="533.94" y2="99.8"/><line class="cls-9" x1="528.23" y1="99.8" x2="533.94" y2="105.52"/><line class="cls-9" x1="533.94" y1="105.52" x2="539.66" y2="99.8"/><line class="cls-9" x1="533.94" y1="99.8" x2="539.66" y2="105.52"/><line class="cls-9" x1="539.66" y1="105.52" x2="545.38" y2="99.8"/><line class="cls-9" x1="539.66" y1="99.8" x2="545.38" y2="105.52"/><line class="cls-9" x1="545.38" y1="105.52" x2="551.09" y2="99.8"/><line class="cls-9" x1="545.38" y1="99.8" x2="551.09" y2="105.52"/><line class="cls-9" x1="551.09" y1="105.52" x2="556.81" y2="99.8"/><line class="cls-9" x1="551.09" y1="99.8" x2="556.81" y2="105.52"/><line class="cls-9" x1="556.81" y1="105.52" x2="562.53" y2="99.8"/><line class="cls-9" x1="556.81" y1="99.8" x2="562.53" y2="105.52"/><line class="cls-9" x1="562.53" y1="105.52" x2="568.24" y2="99.8"/><line class="cls-9" x1="562.53" y1="99.8" x2="568.24" y2="105.52"/><line class="cls-9" x1="568.24" y1="105.52" x2="573.96" y2="99.8"/><line class="cls-9" x1="568.24" y1="99.8" x2="573.96" y2="105.52"/><line class="cls-9" x1="573.96" y1="105.52" x2="579.68" y2="99.8"/><line class="cls-9" x1="573.96" y1="99.8" x2="579.68" y2="105.52"/><line class="cls-9" x1="579.68" y1="105.52" x2="585.39" y2="99.8"/><line class="cls-9" x1="579.68" y1="99.8" x2="585.39" y2="105.52"/><line class="cls-9" x1="585.39" y1="105.52" x2="591.11" y2="99.8"/><line class="cls-9" x1="585.39" y1="99.8" x2="591.11" y2="105.52"/><line class="cls-10" x1="529.64" y1="107.2" x2="540.33" y2="117.88"/><line class="cls-10" x1="540.33" y1="107.2" x2="529.64" y2="117.88"/><line class="cls-10" x1="529.64" y1="117.88" x2="540.33" y2="128.57"/><line class="cls-10" x1="540.33" y1="117.88" x2="529.64" y2="128.57"/><line class="cls-10" x1="529.64" y1="128.57" x2="540.33" y2="139.25"/><line class="cls-10" x1="540.33" y1="128.57" x2="529.64" y2="139.25"/><line class="cls-10" x1="529.64" y1="139.25" x2="540.33" y2="149.94"/><line class="cls-10" x1="540.33" y1="139.25" x2="529.64" y2="149.94"/><line class="cls-10" x1="529.64" y1="149.94" x2="540.33" y2="160.62"/><line class="cls-10" x1="540.33" y1="149.94" x2="529.64" y2="160.62"/><line class="cls-10" x1="529.64" y1="160.62" x2="540.33" y2="171.31"/><line class="cls-10" x1="540.33" y1="160.62" x2="529.64" y2="171.31"/><line class="cls-10" x1="529.64" y1="171.31" x2="540.33" y2="181.99"/><line class="cls-10" x1="540.33" y1="171.31" x2="529.64" y2="181.99"/><line class="cls-10" x1="529.64" y1="181.99" x2="540.33" y2="192.68"/><line class="cls-10" x1="540.33" y1="181.99" x2="529.64" y2="192.68"/><line class="cls-10" x1="529.64" y1="192.68" x2="540.33" y2="203.36"/><line class="cls-10" x1="540.33" y1="192.68" x2="529.64" y2="203.36"/><line class="cls-10" x1="529.64" y1="203.36" x2="540.33" y2="214.05"/><line class="cls-10" x1="540.33" y1="203.36" x2="529.64" y2="214.05"/><line class="cls-10" x1="529.64" y1="214.05" x2="540.33" y2="224.73"/><line class="cls-10" x1="540.33" y1="214.05" x2="529.64" y2="224.73"/><line class="cls-10" x1="529.64" y1="224.73" x2="540.33" y2="235.42"/><line class="cls-10" x1="540.33" y1="224.73" x2="529.64" y2="235.42"/><line class="cls-10" x1="529.64" y1="235.42" x2="540.33" y2="246.1"/><line class="cls-10" x1="540.33" y1="235.42" x2="529.64" y2="246.1"/><line class="cls-10" x1="529.64" y1="246.1" x2="540.33" y2="256.79"/><line class="cls-10" x1="540.33" y1="246.1" x2="529.64" y2="256.79"/><line class="cls-10" x1="529.64" y1="256.79" x2="540.33" y2="267.47"/><line class="cls-10" x1="540.33" y1="256.79" x2="529.64" y2="267.47"/><line class="cls-10" x1="529.64" y1="267.47" x2="540.33" y2="278.16"/><line class="cls-10" x1="540.33" y1="267.47" x2="529.64" y2="278.16"/><line class="cls-10" x1="529.64" y1="278.16" x2="540.33" y2="288.84"/><line class="cls-10" x1="540.33" y1="278.16" x2="529.64" y2="288.84"/><line class="cls-10" x1="529.64" y1="288.84" x2="540.33" y2="299.53"/><line class="cls-10" x1="540.33" y1="288.84" x2="529.64" y2="299.53"/><line class="cls-10" x1="529.64" y1="299.53" x2="540.33" y2="310.21"/><line class="cls-10" x1="540.33" y1="299.53" x2="529.64" y2="310.21"/><rect class="cls-11" x="529.64" y="107.22" width="10.69" height="203.02"/><rect class="cls-12" x="514.32" y="310.21" width="41.33" height="21.14" transform="translate(1069.97 641.57) rotate(180)"/><rect class="cls-13" x="519.44" y="314.68" width="31.1" height="12.2" transform="translate(1069.97 641.57) rotate(180)"/><polygon class="cls-14" points="550.35 98.1 539.66 98.1 550.35 56.82 550.35 98.1"/><polyline class="cls-14" points="550.35 98.1 540.79 93.72 550.35 93.72"/><polyline class="cls-14" points="550.35 93.72 541.81 89.81 550.35 89.81"/><polyline class="cls-14" points="550.35 89.81 542.73 86.31 550.35 86.31"/><polyline class="cls-14" points="550.35 86.31 543.54 83.19 550.35 83.19"/><polyline class="cls-14" points="550.35 83.19 544.22 80.39 550.35 80.39"/><polyline class="cls-14" points="550.35 80.39 544.91 77.89 550.35 77.89"/><polyline class="cls-14" points="550.35 77.82 545.48 75.59 550.35 75.59"/><polyline class="cls-14" points="550.35 75.59 546.01 73.6 550.35 73.6"/><polyline class="cls-14" points="550.35 73.6 546.47 71.83 550.35 71.83"/><circle class="cls-15" cx="550.35" cy="56.82" r="1.61"/><polygon class="cls-7" points="404.51 140.3 371.27 140.3 387.89 105.52 404.51 140.3"/><polygon class="cls-12" points="525.61 79.17 545.54 79.17 545.54 98.06 553.51 98.06 553.51 107.22 515.71 107.22 515.71 88.05 525.61 79.17"/><rect class="cls-12" x="577.26" y="98.1" width="19.69" height="9.12" transform="translate(1174.2 205.32) rotate(180)"/><rect class="cls-12" x="517.83" y="130.01" width="34.3" height="11.48" transform="translate(1069.97 271.51) rotate(180)"/><rect class="cls-12" x="370.38" y="139.6" width="35.03" height="9.64" transform="translate(775.79 288.85) rotate(180)"/><path class="cls-15" d="M386.29,105.52a1.61,1.61,0,1,0,1.6-1.61A1.6,1.6,0,0,0,386.29,105.52Z"/><polyline class="cls-16" points="254.09 69.12 65.45 12.56 13.94 62.48"/><polygon class="cls-17" points="234.79 109.5 273.39 109.5 254.09 69.12 234.79 109.5"/><polygon class="cls-18" points="254.09 69.12 18.1 69.12 18.1 62.48 243.82 62.48 254.09 69.12"/><path class="cls-19" d="M256,69.12a1.86,1.86,0,1,1-1.86-1.87A1.86,1.86,0,0,1,256,69.12Z"/><line class="cls-18" x1="243.82" y1="62.48" x2="243.82" y2="69.12"/><line class="cls-18" x1="243.82" y1="69.12" x2="237.18" y2="62.48"/><line class="cls-18" x1="243.82" y1="62.48" x2="237.18" y2="69.12"/><line class="cls-18" x1="237.18" y1="69.12" x2="230.54" y2="62.48"/><line class="cls-18" x1="237.18" y1="62.48" x2="230.54" y2="69.12"/><line class="cls-18" x1="230.54" y1="69.12" x2="223.9" y2="62.48"/><line class="cls-18" x1="230.54" y1="62.48" x2="223.9" y2="69.12"/><line class="cls-18" x1="223.9" y1="69.12" x2="217.26" y2="62.48"/><line class="cls-18" x1="223.9" y1="62.48" x2="217.26" y2="69.12"/><line class="cls-18" x1="217.26" y1="69.12" x2="210.63" y2="62.48"/><line class="cls-18" x1="217.26" y1="62.48" x2="210.63" y2="69.12"/><line class="cls-18" x1="210.63" y1="69.12" x2="203.99" y2="62.48"/><line class="cls-18" x1="210.63" y1="62.48" x2="203.99" y2="69.12"/><line class="cls-18" x1="203.99" y1="69.12" x2="197.35" y2="62.48"/><line class="cls-18" x1="203.99" y1="62.48" x2="197.35" y2="69.12"/><line class="cls-18" x1="197.35" y1="69.12" x2="190.71" y2="62.48"/><line class="cls-18" x1="197.35" y1="62.48" x2="190.71" y2="69.12"/><line class="cls-18" x1="190.71" y1="69.12" x2="184.07" y2="62.48"/><line class="cls-18" x1="190.71" y1="62.48" x2="184.07" y2="69.12"/><line class="cls-18" x1="184.07" y1="69.12" x2="177.43" y2="62.48"/><line class="cls-18" x1="184.07" y1="62.48" x2="177.43" y2="69.12"/><line class="cls-18" x1="177.43" y1="69.12" x2="170.8" y2="62.48"/><line class="cls-18" x1="177.43" y1="62.48" x2="170.8" y2="69.12"/><line class="cls-18" x1="170.8" y1="69.12" x2="164.16" y2="62.48"/><line class="cls-18" x1="170.8" y1="62.48" x2="164.16" y2="69.12"/><line class="cls-18" x1="164.16" y1="69.12" x2="157.52" y2="62.48"/><line class="cls-18" x1="164.16" y1="62.48" x2="157.52" y2="69.12"/><line class="cls-18" x1="157.52" y1="69.12" x2="150.88" y2="62.48"/><line class="cls-18" x1="157.52" y1="62.48" x2="150.88" y2="69.12"/><line class="cls-18" x1="150.88" y1="69.12" x2="144.24" y2="62.48"/><line class="cls-18" x1="150.88" y1="62.48" x2="144.24" y2="69.12"/><line class="cls-18" x1="144.24" y1="69.12" x2="137.6" y2="62.48"/><line class="cls-18" x1="144.24" y1="62.48" x2="137.6" y2="69.12"/><line class="cls-18" x1="137.6" y1="69.12" x2="130.97" y2="62.48"/><line class="cls-18" x1="137.6" y1="62.48" x2="130.97" y2="69.12"/><line class="cls-18" x1="130.97" y1="69.12" x2="124.33" y2="62.48"/><line class="cls-18" x1="130.97" y1="62.48" x2="124.33" y2="69.12"/><line class="cls-18" x1="124.33" y1="69.12" x2="117.69" y2="62.48"/><line class="cls-18" x1="124.33" y1="62.48" x2="117.69" y2="69.12"/><line class="cls-18" x1="117.69" y1="69.12" x2="111.05" y2="62.48"/><line class="cls-18" x1="117.69" y1="62.48" x2="111.05" y2="69.12"/><line class="cls-18" x1="111.05" y1="69.12" x2="104.41" y2="62.48"/><line class="cls-18" x1="111.05" y1="62.48" x2="104.41" y2="69.12"/><line class="cls-18" x1="104.41" y1="69.12" x2="97.77" y2="62.48"/><line class="cls-18" x1="104.41" y1="62.48" x2="97.77" y2="69.12"/><line class="cls-18" x1="97.77" y1="69.12" x2="91.14" y2="62.48"/><line class="cls-18" x1="97.77" y1="62.48" x2="91.14" y2="69.12"/><line class="cls-18" x1="91.14" y1="69.12" x2="84.5" y2="62.48"/><line class="cls-18" x1="91.14" y1="62.48" x2="84.5" y2="69.12"/><line class="cls-18" x1="84.5" y1="69.12" x2="77.86" y2="62.48"/><line class="cls-18" x1="84.5" y1="62.48" x2="77.86" y2="69.12"/><line class="cls-18" x1="77.86" y1="69.12" x2="71.22" y2="62.48"/><line class="cls-18" x1="77.86" y1="62.48" x2="71.22" y2="69.12"/><line class="cls-18" x1="71.22" y1="69.12" x2="64.58" y2="62.48"/><line class="cls-18" x1="71.22" y1="62.48" x2="64.58" y2="69.12"/><line class="cls-18" x1="64.58" y1="69.12" x2="57.94" y2="62.48"/><line class="cls-18" x1="64.58" y1="62.48" x2="57.94" y2="69.12"/><line class="cls-18" x1="57.94" y1="69.12" x2="51.31" y2="62.48"/><line class="cls-18" x1="57.94" y1="62.48" x2="51.31" y2="69.12"/><line class="cls-18" x1="51.31" y1="69.12" x2="44.67" y2="62.48"/><line class="cls-18" x1="51.31" y1="62.48" x2="44.67" y2="69.12"/><line class="cls-18" x1="44.67" y1="69.12" x2="38.03" y2="62.48"/><line class="cls-18" x1="44.67" y1="62.48" x2="38.03" y2="69.12"/><line class="cls-18" x1="38.03" y1="69.12" x2="31.39" y2="62.48"/><line class="cls-18" x1="38.03" y1="62.48" x2="31.39" y2="69.12"/><line class="cls-18" x1="31.39" y1="69.12" x2="24.75" y2="62.48"/><line class="cls-18" x1="31.39" y1="62.48" x2="24.75" y2="69.12"/><line class="cls-18" x1="24.75" y1="69.12" x2="18.11" y2="62.48"/><line class="cls-18" x1="24.75" y1="62.48" x2="18.11" y2="69.12"/><line class="cls-20" x1="89.49" y1="71.06" x2="77.09" y2="83.47"/><line class="cls-20" x1="77.09" y1="71.06" x2="89.49" y2="83.47"/><line class="cls-20" x1="89.49" y1="83.47" x2="77.09" y2="95.88"/><line class="cls-20" x1="77.09" y1="83.47" x2="89.49" y2="95.88"/><line class="cls-20" x1="89.49" y1="95.88" x2="77.09" y2="108.29"/><line class="cls-20" x1="77.09" y1="95.88" x2="89.49" y2="108.29"/><line class="cls-20" x1="89.49" y1="108.29" x2="77.09" y2="120.69"/><line class="cls-20" x1="77.09" y1="108.29" x2="89.49" y2="120.69"/><line class="cls-20" x1="89.49" y1="120.69" x2="77.09" y2="133.1"/><line class="cls-20" x1="77.09" y1="120.69" x2="89.49" y2="133.1"/><line class="cls-20" x1="89.49" y1="133.1" x2="77.09" y2="145.51"/><line class="cls-20" x1="77.09" y1="133.1" x2="89.49" y2="145.51"/><line class="cls-20" x1="89.49" y1="145.51" x2="77.09" y2="157.92"/><line class="cls-20" x1="77.09" y1="145.51" x2="89.49" y2="157.92"/><line class="cls-20" x1="89.49" y1="157.92" x2="77.09" y2="170.32"/><line class="cls-20" x1="77.09" y1="157.92" x2="89.49" y2="170.32"/><line class="cls-20" x1="89.49" y1="170.32" x2="77.09" y2="182.73"/><line class="cls-20" x1="77.09" y1="170.32" x2="89.49" y2="182.73"/><line class="cls-20" x1="89.49" y1="182.73" x2="77.09" y2="195.14"/><line class="cls-20" x1="77.09" y1="182.73" x2="89.49" y2="195.14"/><line class="cls-20" x1="89.49" y1="195.14" x2="77.09" y2="207.55"/><line class="cls-20" x1="77.09" y1="195.14" x2="89.49" y2="207.55"/><line class="cls-20" x1="89.49" y1="207.55" x2="77.09" y2="219.95"/><line class="cls-20" x1="77.09" y1="207.55" x2="89.49" y2="219.95"/><line class="cls-20" x1="89.49" y1="219.95" x2="77.09" y2="232.36"/><line class="cls-20" x1="77.09" y1="219.95" x2="89.49" y2="232.36"/><line class="cls-20" x1="89.49" y1="232.36" x2="77.09" y2="244.77"/><line class="cls-20" x1="77.09" y1="232.36" x2="89.49" y2="244.77"/><line class="cls-20" x1="89.49" y1="244.77" x2="77.09" y2="257.18"/><line class="cls-20" x1="77.09" y1="244.77" x2="89.49" y2="257.18"/><line class="cls-20" x1="89.49" y1="257.18" x2="77.09" y2="269.58"/><line class="cls-20" x1="77.09" y1="257.18" x2="89.49" y2="269.58"/><line class="cls-20" x1="89.49" y1="269.58" x2="77.09" y2="281.99"/><line class="cls-20" x1="77.09" y1="269.58" x2="89.49" y2="281.99"/><line class="cls-20" x1="89.49" y1="281.99" x2="77.09" y2="294.4"/><line class="cls-20" x1="77.09" y1="281.99" x2="89.49" y2="294.4"/><line class="cls-20" x1="89.49" y1="294.4" x2="77.09" y2="306.81"/><line class="cls-20" x1="77.09" y1="294.4" x2="89.49" y2="306.81"/><rect class="cls-20" x="77.09" y="69.12" width="12.41" height="237.72"/><rect class="cls-21" x="59.3" y="306.81" width="47.99" height="24.55"/><rect class="cls-22" x="65.23" y="311.99" width="36.11" height="14.17"/><rect class="cls-22" x="63.37" y="97.56" width="39.83" height="13.33"/><polygon class="cls-23" points="65.45 60.5 77.86 60.5 65.45 12.56 65.45 60.5"/><polyline class="cls-23" points="65.45 60.5 76.54 55.42 65.45 55.42"/><polyline class="cls-23" points="65.45 55.42 75.37 50.87 65.45 50.87"/><polyline class="cls-23" points="65.45 50.87 74.29 46.81 65.45 46.81"/><polyline class="cls-23" points="65.45 46.81 73.35 43.19 65.45 43.19"/><polyline class="cls-23" points="65.45 43.19 72.56 39.93 65.45 39.93"/><polyline class="cls-23" points="65.45 39.93 71.76 37.04 65.45 37.04"/><polyline class="cls-23" points="65.45 36.96 71.1 34.36 65.45 34.36"/><polyline class="cls-23" points="65.45 34.36 70.49 32.05 65.45 32.05"/><polyline class="cls-23" points="65.45 32.05 69.95 29.99 65.45 29.99"/><path class="cls-19" d="M67.32,12.56a1.87,1.87,0,1,1-1.87-1.86A1.87,1.87,0,0,1,67.32,12.56Z"/><rect class="cls-21" x="233.75" y="108.85" width="40.67" height="11.85"/><polygon class="cls-21" points="94.17 38.52 71.03 38.52 71.03 60.45 61.78 60.45 61.78 71.09 105.67 71.09 105.67 48.84 94.17 38.52"/><rect class="cls-21" x="11.34" y="60.5" width="22.86" height="10.59"/><path class="cls-2" d="M0,331.35H646.34a0,0,0,0,1,0,0v37.93a37.62,37.62,0,0,1-37.62,37.62H37.62A37.62,37.62,0,0,1,0,369.29V331.35a0,0,0,0,1,0,0Z"/><ellipse class="cls-6" cx="303.65" cy="381.22" rx="183.43" ry="9.14"/><polygon class="cls-24" points="442.54 279.87 440.62 279.87 432.78 341.18 434.7 341.18 442.54 279.87"/><polygon class="cls-25" points="440.97 279.87 442.89 279.87 450.74 341.18 448.82 341.18 440.97 279.87"/><path class="cls-26" d="M444.51,279.87a2.75,2.75,0,1,1-2.75-2.75A2.75,2.75,0,0,1,444.51,279.87Z"/><polygon class="cls-24" points="500.83 279.87 498.9 279.87 491.06 341.18 492.98 341.18 500.83 279.87"/><polygon class="cls-25" points="499.26 279.87 501.18 279.87 509.02 341.18 507.1 341.18 499.26 279.87"/><circle class="cls-26" cx="500.04" cy="279.87" r="2.75"/><rect class="cls-27" x="434.7" y="283.26" width="72.4" height="11.1"/><polygon class="cls-28" points="443.23 294.36 438.09 294.36 444.92 283.26 450.06 283.26 443.23 294.36"/><polygon class="cls-28" points="456.64 294.36 451.5 294.36 458.33 283.26 463.47 283.26 456.64 294.36"/><polygon class="cls-28" points="470.05 294.36 464.92 294.36 471.75 283.26 476.88 283.26 470.05 294.36"/><polygon class="cls-28" points="483.46 294.36 478.33 294.36 485.16 283.26 490.3 283.26 483.46 294.36"/><polygon class="cls-28" points="496.88 294.36 491.74 294.36 498.57 283.26 503.71 283.26 496.88 294.36"/><rect class="cls-27" x="434.7" y="298.01" width="72.4" height="11.1"/><polygon class="cls-28" points="443.23 309.1 438.09 309.1 444.92 298 450.06 298 443.23 309.1"/><polygon class="cls-28" points="456.64 309.1 451.5 309.1 458.33 298 463.47 298 456.64 309.1"/><polygon class="cls-28" points="470.05 309.1 464.92 309.1 471.75 298 476.88 298 470.05 309.1"/><polygon class="cls-28" points="483.46 309.1 478.33 309.1 485.16 298 490.3 298 483.46 309.1"/><polygon class="cls-28" points="496.88 309.1 491.74 309.1 498.57 298 503.71 298 496.88 309.1"/><path class="cls-29" d="M240.36,340.3h19.21l-8.73-37a.9.9,0,0,0-1.75,0Z"/><path class="cls-29" d="M262.06,341.18H237.87a.56.56,0,0,1-.56-.56h0a.57.57,0,0,1,.56-.57h24.19a.57.57,0,0,1,.56.57h0A.56.56,0,0,1,262.06,341.18Z"/><polygon class="cls-25" points="246.92 312.49 246.17 315.67 253.76 315.67 253.01 312.49 246.92 312.49"/><polygon class="cls-25" points="245.18 319.87 244.43 323.06 255.5 323.06 254.75 319.87 245.18 319.87"/><polygon class="cls-25" points="257.25 330.44 256.49 327.26 243.44 327.26 242.68 330.44 257.25 330.44"/><path class="cls-29" d="M274.4,340.3h19.22l-8.73-37a.91.91,0,0,0-1.76,0Z"/><path class="cls-29" d="M296.1,341.18H271.92a.56.56,0,0,1-.56-.56h0a.57.57,0,0,1,.56-.57H296.1a.58.58,0,0,1,.57.57h0A.57.57,0,0,1,296.1,341.18Z"/><polygon class="cls-25" points="280.97 312.49 280.22 315.67 287.81 315.67 287.05 312.49 280.97 312.49"/><polygon class="cls-25" points="279.23 319.87 278.47 323.06 289.55 323.06 288.8 319.87 279.23 319.87"/><polygon class="cls-25" points="291.29 330.44 290.54 327.26 277.48 327.26 276.73 330.44 291.29 330.44"/><path class="cls-30" d="M446.8,83.94s.56.93.42,3.93c3.1,1.16,4.3,3.24,2.82,6.3.7,4.16-4.07,7.91-8.37,6.61-4.86.47-20.36-3.56-18.65-11-.65-2.5.43-6.39.43-6.39Z"/><path class="cls-31" d="M465.24,356.76v10.39s.91,8.43.91,14.92h-37.9s.7-8.41,10.07-9a4.52,4.52,0,0,0,2.22-.77l7.44-5V356.76Z"/><path class="cls-32" d="M428.25,382.07h37.9c0-1.11,0-2.28-.08-3.46H429.31A10.48,10.48,0,0,0,428.25,382.07Z"/><path class="cls-31" d="M423.3,356.76l1.4,10.39s.91,8.43.91,14.92h-37.9s.71-8.41,10.08-9a4.55,4.55,0,0,0,2.22-.77l7.43-5L406,356.76Z"/><path class="cls-32" d="M387.71,382.07h37.9c0-1.11,0-2.28-.07-3.46H388.78A10.66,10.66,0,0,0,387.71,382.07Z"/><polygon class="cls-33" points="477.62 186.99 476.88 224.93 488.26 224.93 497.8 186.99 477.62 186.99"/><path class="cls-34" d="M480,193.89l14.42,6.62L497.8,187H477.62l-.06,3A4.15,4.15,0,0,0,480,193.89Z"/><polygon class="cls-34" points="400.9 180.88 415.34 192.91 408.58 202.54 391.09 191.71 400.9 180.88"/><path class="cls-35" d="M486.23,140.14A40.15,40.15,0,0,0,462,114.73l-19.86-7.42L430.7,108.6,417.42,114a40.11,40.11,0,0,0-20.26,18l-18.84,34.62s-11.43,15.59,9.26,27.42l11.29-13.57,9.74-14.72,58.56,2.08L474,182h25.55Z"/><path class="cls-36" d="M409,165.07l.61-27.11a1.07,1.07,0,0,0-2.12-.2l-6.58,39.6Z"/><line class="cls-37" x1="391.09" y1="168.2" x2="399.43" y2="177.36"/><path class="cls-38" d="M416.87,132.43h39s8.36,29.32,11.3,35.4V358.66H442l-10.3-133.73h-3.33L416.22,289.5l9.39,69.16H399.24l-10.68-55a70,70,0,0,1,.47-28.93L406.73,197V165.75Z"/><line class="cls-39" x1="419.63" y1="221.56" x2="446.02" y2="221.56"/><line class="cls-39" x1="431.58" y1="201.84" x2="431.72" y2="224.93"/><path class="cls-39" d="M427.22,200.89v8.87a14.37,14.37,0,0,0,4.5,10.45h0"/><path class="cls-40" d="M452.17,199s-.83,19.43,15,19.43V198.87Z"/><polygon class="cls-41" points="419.35 132.43 416.64 137.74 425.04 139.7 429.94 132.43 419.35 132.43"/><path class="cls-41" d="M455.87,132.43h-5.56l-2.71,5.31,8.4,2,1.38-2C456.46,134.51,455.87,132.43,455.87,132.43Z"/><polygon class="cls-41" points="406.73 196.98 467.17 196.98 467.17 200.18 406 200.18 406.73 196.98"/><rect class="cls-42" x="423.76" y="195.13" width="13.6" height="7.4"/><rect class="cls-38" x="443.22" y="194.51" width="2.79" height="9.02"/><rect class="cls-38" x="459.59" y="194.51" width="2.79" height="9.02"/><rect class="cls-38" x="418.23" y="194.51" width="2.79" height="9.02"/><path class="cls-42" d="M396.52,196.35h19.24a0,0,0,0,1,0,0v13.17a0,0,0,0,1,0,0H401.68a5.16,5.16,0,0,1-5.16-5.16v-8A0,0,0,0,1,396.52,196.35Z"/><path class="cls-43" d="M415.76,198.21h-7.08a2.23,2.23,0,0,0-2.23,2.23h0a2.1,2.1,0,0,1-2.09,2.1h-7.84"/><polygon class="cls-44" points="399.24 358.66 425.61 358.66 424.69 351.91 397.93 351.91 399.24 358.66"/><polygon class="cls-44" points="441.5 351.91 442.02 358.66 467.17 358.66 467.17 351.91 441.5 351.91"/><path class="cls-45" d="M417.42,147.84h34.75s3.6,22.07-17.38,22.07S417.42,147.84,417.42,147.84Z"/><polygon class="cls-38" points="423.92 137.74 416.64 137.74 420.39 111.94 428.11 108.85 423.92 137.74"/><polygon class="cls-38" points="454.88 137.74 447.6 137.74 451.63 109.96 458.52 112.67 454.88 137.74"/><path class="cls-45" d="M421.66,135.21a1.12,1.12,0,1,1-1.11-1.11A1.11,1.11,0,0,1,421.66,135.21Z"/><path class="cls-45" d="M452.77,135.21a1.11,1.11,0,1,1-1.11-1.11A1.11,1.11,0,0,1,452.77,135.21Z"/><path class="cls-33" d="M424.82,82.73V91.5c-2.68,3.66-1.5,10.33,4.25,11.31v9.43s7.33,5.1,16.69-1l-2.62-13.73a3.71,3.71,0,0,0,3.14-3.93c-.13-3.47-3.92-4-6.21-1.64a7.33,7.33,0,0,1-.2-4c-2.42-.32-2.49-5.23-2.49-5.23Z"/><path class="cls-34" d="M429.07,102.81c3,.45,6.59.59,9.07-.93a.63.63,0,0,1,.94.63c-.84,5.85-5.17,9.11-10,8.59Z"/><polyline class="cls-46" points="430.54 90.37 430.54 93.63 432.31 93.63"/><path class="cls-46" d="M429.67,95.16s2,.83,5.56-.42"/><path class="cls-46" d="M444.8,94.43c1.08-1.84-2.56-3.75-3.68-.48"/><path class="cls-47" d="M428.84,90.3c0,.64-.34,1.15-.76,1.15s-.76-.51-.76-1.15.34-1.14.76-1.14S428.84,89.67,428.84,90.3Z"/><path class="cls-47" d="M434.67,90.3c0,.64-.34,1.15-.76,1.15s-.76-.51-.76-1.15.34-1.14.76-1.14S434.67,89.67,434.67,90.3Z"/><path class="cls-48" d="M427.07,88a2.81,2.81,0,0,1,2.48,0"/><path class="cls-48" d="M432.68,88a2.79,2.79,0,0,1,2.47,0"/><path class="cls-49" d="M502.58,259.17H458.72L465.1,247a4.75,4.75,0,0,1,4.2-2.54H492a4.75,4.75,0,0,1,4.2,2.54Zm-39-3h34.07l-4.06-7.74a1.93,1.93,0,0,0-1.73-1.05H469.4a2,2,0,0,0-1.73,1.05Z"/><polygon class="cls-50" points="497.69 256.21 463.62 256.21 465.51 252.6 462.17 252.6 458.72 259.18 502.58 259.18 499.14 252.6 495.8 252.6 497.69 256.21"/><path class="cls-44" d="M449.73,263.13h61.84a0,0,0,0,1,0,0v21.34a3.93,3.93,0,0,1-3.93,3.93h-54a3.93,3.93,0,0,1-3.93-3.93V263.13A0,0,0,0,1,449.73,263.13Z"/><rect class="cls-50" x="449.73" y="263.13" width="61.84" height="2.52"/><path class="cls-49" d="M451.93,254.46h57.44a3,3,0,0,1,3,3v6.72a0,0,0,0,1,0,0H448.93a0,0,0,0,1,0,0v-6.72A3,3,0,0,1,451.93,254.46Z"/><rect class="cls-51" x="458.79" y="261.33" width="5.41" height="9.72"/><rect class="cls-51" x="497.1" y="261.33" width="5.41" height="9.72"/><path class="cls-52" d="M499.64,188.93H475.25A2.31,2.31,0,0,1,473,187l-.73-4.37a2.3,2.3,0,0,1,2.27-2.68h24.39a2.31,2.31,0,0,1,2.27,1.91l.73,4.37A2.3,2.3,0,0,1,499.64,188.93Z"/><rect class="cls-52" x="390.71" y="174.96" width="6.52" height="22.55" rx="1.56" transform="translate(203.55 -205.73) rotate(38.79)"/><path class="cls-31" d="M478,222.74H488a2.12,2.12,0,0,1,2.07,2.6l-2,8.36.69,9.86a5.67,5.67,0,0,1-.28,2.16l-.31.91a3.65,3.65,0,0,1-3.46,2.48h-7.51a1.55,1.55,0,0,1-1.55-1.55V246a1.79,1.79,0,0,0-1.79-1.79h-.57s.3-8.53,3.58-10.76l-.95-8.32A2.12,2.12,0,0,1,478,222.74Z"/><path class="cls-31" d="M435.76,70.09h0a10.72,10.72,0,0,0-11.66,11c-5.47,1.52-7.38,3.64-7.38,3.64H447.6V83.07A13,13,0,0,0,435.76,70.09Z"/><path class="cls-53" d="M436.58,70.21c-.27,0-.54-.09-.82-.12h0a10.72,10.72,0,0,0-11.66,11h4.56A12.1,12.1,0,0,1,436.58,70.21Z"/><path class="cls-54" d="M308.63,368.75a23.56,23.56,0,0,1,1.09,13.32H272s-1.32-3.66,2.87-5.27c5.05-1.95,12.61-3.89,12.61-3.89l4.24-4.16Z"/><path class="cls-25" d="M271.91,379.67a4.39,4.39,0,0,0,0,2.4h37.76a18.88,18.88,0,0,0,.42-2.4Z"/><path class="cls-54" d="M354.71,368.75a23.56,23.56,0,0,1,1.09,13.32H318.05s-1.32-3.66,2.86-5.27c5-1.95,12.61-3.89,12.61-3.89l4.24-4.16Z"/><path class="cls-25" d="M318,379.67a4.28,4.28,0,0,0,.05,2.4H355.8a18.88,18.88,0,0,0,.42-2.4Z"/><path class="cls-32" d="M286.92,197.17V370.41H311s4.48-64.13-1.37-84.68L319,213l16.1,157.42H356.8s3.61-65-8.33-84.68c0,0,5.55-30.26,5.55-88.56l-33.66-8.06Z"/><path class="cls-55" d="M320.36,189.11l-33.44,8.06v5.17l67,9.6c.07-4.71.12-9.63.12-14.77Z"/><line class="cls-56" x1="319.04" y1="212.99" x2="319.04" y2="191.06"/><path class="cls-56" d="M314.87,193.09v10.37c0,3.52,1.39,5.09,4.17,6.11"/><line class="cls-56" x1="309.62" y1="211.51" x2="329.22" y2="211.88"/><path class="cls-56" d="M343.85,194.73s-4.36,17,10,20.63"/><path class="cls-56" d="M294.85,195.26s1.61,15.42-7.93,19.21"/><polygon class="cls-33" points="378.3 191.54 359.29 206 354.56 195.57 364 181.9 378.3 191.54"/><path class="cls-57" d="M354.56,194.11s8,2.22,8.33,12.43L352.54,213V194.11Z"/><path class="cls-38" d="M325.89,98.88l16.61,1.87a30.1,30.1,0,0,1,20.9,12.09c8.15,11.11,21,28.83,30.21,42.92a19.1,19.1,0,0,1-2.14,23.63l-13.73,14.44L362.47,181.9l8.19-11.66s-3.47.41-1.11-3.61L355,143l-2.09,38h-70.1v-8.74s-9.72,10.27-23.18,9.44-14.16-18.19-6.66-31.1c4.85-8.36,17.41-26.1,25.66-37.56a30.11,30.11,0,0,1,20.6-12.26l15.23-2Z"/><path class="cls-41" d="M268.35,153.3l17.59-4.2,6.57-26.9S275.57,138.21,268.35,153.3Z"/><polygon class="cls-41" points="354.98 143.03 348.26 130.98 340.19 160.17 353.49 170.1 354.98 143.03"/><path class="cls-26" d="M342.85,99.62c-2.51-.47-5.06-.82-7.59-1.08l-18.6,26.26L304.83,98.89c-5.31.6-8.64,1.23-8.64,1.23L281.4,163v33.43a3.22,3.22,0,0,0,3.22,3.22H309a7.64,7.64,0,0,0,7.63-7.64h0a7.64,7.64,0,0,0,7.64,7.64h29.82a3.22,3.22,0,0,0,3.22-3.22V165C338.18,160.38,342.85,99.62,342.85,99.62Z"/><rect class="cls-42" x="281.4" y="166.9" width="75.93" height="11.66"/><rect class="cls-42" x="281.4" y="180.37" width="75.93" height="11.66"/><line class="cls-58" x1="316.66" y1="192.03" x2="316.66" y2="124.8"/><line class="cls-59" x1="354.98" y1="143.03" x2="346.46" y2="127.76"/><line class="cls-59" x1="370.59" y1="165.65" x2="376.63" y2="159.06"/><path class="cls-59" d="M372.19,168.92a16.56,16.56,0,0,1,8.88-4.79"/><polygon class="cls-33" points="282.15 150 308.63 143.58 310.09 153.3 284.46 170.1 282.15 150"/><path class="cls-60" d="M292.06,147.6l-9.91,2.4,2.31,20.1,1.83-1.2a10.36,10.36,0,0,0,4.64-7.75C291.36,156.37,291.77,151.36,292.06,147.6Z"/><rect class="cls-47" x="325.68" y="106.53" width="1" height="18.85" transform="translate(39.73 -78.44) rotate(14.59)"/><rect class="cls-47" x="319.73" y="124.07" width="13.15" height="22.93" rx="2.17" transform="translate(44.67 -77.84) rotate(14.59)"/><rect class="cls-61" x="322.49" y="124.53" width="12.95" height="8.91" rx="1.38" transform="translate(43.11 -78.72) rotate(14.59)"/><rect class="cls-61" x="319.43" y="134.36" width="12.95" height="12.7" rx="1.38" transform="translate(45.96 -77.57) rotate(14.59)"/><path class="cls-47" d="M331.41,138.43l-9.19-2.4a.4.4,0,0,1-.29-.49h0a.39.39,0,0,1,.49-.29l9.2,2.39a.42.42,0,0,1,.29.5h0A.42.42,0,0,1,331.41,138.43Z"/><path class="cls-47" d="M330.91,140.36l-9.2-2.39a.41.41,0,0,1-.29-.5h0a.42.42,0,0,1,.49-.29l9.2,2.4a.4.4,0,0,1,.29.49h0A.39.39,0,0,1,330.91,140.36Z"/><path class="cls-47" d="M330.4,142.3l-9.19-2.39a.41.41,0,0,1-.29-.5h0a.41.41,0,0,1,.49-.29l9.2,2.4a.4.4,0,0,1,.29.49h0A.41.41,0,0,1,330.4,142.3Z"/><path class="cls-47" d="M329.9,144.24l-9.2-2.39a.41.41,0,0,1-.29-.5h0a.41.41,0,0,1,.5-.29l9.19,2.4a.39.39,0,0,1,.29.49h0A.39.39,0,0,1,329.9,144.24Z"/><path class="cls-47" d="M329.4,146.18l-9.2-2.4a.39.39,0,0,1-.29-.49h0a.39.39,0,0,1,.49-.29l9.2,2.39a.41.41,0,0,1,.29.5h0A.42.42,0,0,1,329.4,146.18Z"/><rect class="cls-31" x="324.13" y="127.83" width="9.79" height="1.82" transform="translate(43.05 -78.74) rotate(14.59)"/><rect class="cls-25" x="327.35" y="106.78" width="1.49" height="3.63" transform="translate(37.95 -79.17) rotate(14.59)"/><path class="cls-31" d="M346.39,206.18l8.58-6.06a2.46,2.46,0,0,1,3.86,1.73l1.08,9.67a4.42,4.42,0,0,1-2.44,4.45l-4.74,2.33a3.22,3.22,0,0,1-4.37-1.62l-3-6.93A3,3,0,0,1,346.39,206.18Z"/><line class="cls-62" x1="356.92" y1="204.31" x2="345.87" y2="210.87"/><line class="cls-62" x1="357.63" y1="208.11" x2="347.45" y2="214.15"/><line class="cls-62" x1="357.96" y1="211.73" x2="348.67" y2="217.24"/><polygon class="cls-63" points="326.74 95.2 330.69 100.76 320.35 111.79 317.85 106.98 314.71 111.33 308.55 100.06 312.72 95.2 326.74 95.2"/><path class="cls-47" d="M329.93,70.46,326.5,82.57s-8.09-3.88-8.09-12.33Z"/><path class="cls-33" d="M306.52,70.24v9.58s-3.06,8.7,6.29,10.69l-1.2,8,6.24,8.47,9.49-7.4-.56-16.52c2.46-2.45,3.11-6.94.84-7.87s-3.75,1.57-3.84,3.24c0,0-3.61-2.31-3.61-8.19Z"/><path class="cls-34" d="M312.81,90.51a10,10,0,0,0,8.48-2.75.73.73,0,0,1,1.19.7c-1,5.11-5.05,9.77-10.75,9.21Z"/><ellipse class="cls-47" cx="308.55" cy="77.24" rx="0.87" ry="1.34"/><ellipse class="cls-47" cx="314.49" cy="77.24" rx="0.87" ry="1.34"/><path class="cls-46" d="M311.05,76.22l-.6,3.36a.49.49,0,0,0,.44.57l1.83.13"/><path class="cls-64" d="M313.15,74.42a3.81,3.81,0,0,1,2.9,0"/><path class="cls-64" d="M307.1,74.42a3.81,3.81,0,0,1,2.9,0"/><path class="cls-25" d="M311.42,82.57l3.94-.61s0,4.36-1.53,4.61S311.42,82.57,311.42,82.57Z"/><path class="cls-31" d="M318.57,56.64h0a10.72,10.72,0,0,0-11.66,11c-5.47,1.52-7.38,3.64-7.38,3.64h30.89V69.62A13,13,0,0,0,318.57,56.64Z"/><path class="cls-53" d="M319.4,56.75c-.28,0-.55-.09-.83-.11h0a10.72,10.72,0,0,0-11.66,11h4.56A12.13,12.13,0,0,1,319.4,56.75Z"/><path class="cls-47" d="M309.73,83.1a24.83,24.83,0,0,0,7.8-1.29s-2.8-2-4.81-.33A2.33,2.33,0,0,0,309.73,83.1Z"/><path class="cls-46" d="M325,80.28c0-2.22,1-4,2.08-4.06s1,1.19.28,2.67"/><path class="cls-63" d="M371.77,185.74a20.08,20.08,0,0,0-4.58-13L361.12,182,378,195.57l7.77-7.43C382.93,186.48,377,185,371.77,185.74Z"/><path class="cls-63" d="M284,147.75l1.95,25-9.35,8.06s-2.38-12.91,4.35-18.54c-8.76-2-6.85-12.28-6.85-12.28Z"/><path class="cls-31" d="M304.3,144.93l2.43,8.86a2.17,2.17,0,0,0,3.61,1l3.89-3.82s4.61-1.69,8.49-8.42l7.5-2.11a.76.76,0,0,0,.55-.79l-.42-5.3a1,1,0,0,0-1.15-.87l-8.23,1.6,7.77-3.09a1.15,1.15,0,0,0,.68-1.39h0a1.16,1.16,0,0,0-1.47-.78l-8.88,2.91a4,4,0,0,0-1.73,1.13l-6.92,7.81-4.31.57A2.18,2.18,0,0,0,304.3,144.93Z"/><line class="cls-62" x1="321.29" y1="137.43" x2="330.44" y2="135.39"/><line class="cls-62" x1="321.67" y1="140.03" x2="330.63" y2="137.84"/><rect class="cls-25" x="579.57" y="138.94" width="5.92" height="228.5"/><polygon class="cls-24" points="585.5 367.44 579.58 367.44 579.58 354.3 585.5 339.12 585.5 367.44"/><path class="cls-25" d="M621.75,367.44H543.33A2.43,2.43,0,0,1,540.9,365h0a2.43,2.43,0,0,1,2.43-2.43h78.42a2.43,2.43,0,0,1,2.43,2.43h0A2.43,2.43,0,0,1,621.75,367.44Z"/><rect class="cls-27" x="553.32" y="79.45" width="58.43" height="58.43" rx="5.13" transform="translate(93.79 443.74) rotate(-45)"/><rect class="cls-65" x="556.02" y="82.15" width="53.03" height="53.03" rx="2.97" transform="translate(93.79 443.74) rotate(-45)"/><path class="cls-28" d="M588.76,117.41l-7.65-7.64V97.42l0,0a3.41,3.41,0,0,0,1.65.43,3.47,3.47,0,1,0-3.47-3.47,3.44,3.44,0,0,0,.43,1.65l0,0h-7.08a2.44,2.44,0,0,0-2.44,2.44v.38l-2.48-2.48-1.4,1.4,5.83,5.83-.59.59a4.58,4.58,0,0,0-1.36,3.28v15.92h2v-15l5.58,5.58a3.69,3.69,0,0,1,1.09,2.64v6.8h2v-6.8a5.64,5.64,0,0,0-1.67-4L572.61,106a2.79,2.79,0,0,1,.34-.43l.59-.59,13.82,13.82-4.57,4.58h16v-16Zm-16.59-16.58V98.47a.47.47,0,0,1,.47-.47h5.1l-4.2,4.2Zm7,7-4.2-4.19,4.2-4.2Z"/><polygon class="cls-24" points="61.76 225.03 57.32 225.03 39.18 366.81 43.62 366.81 61.76 225.03"/><polygon class="cls-25" points="58.13 225.03 62.57 225.03 80.71 366.81 76.27 366.81 58.13 225.03"/><path class="cls-26" d="M66.31,225A6.36,6.36,0,1,1,60,218.68,6.35,6.35,0,0,1,66.31,225Z"/><polygon class="cls-24" points="196.55 225.03 192.1 225.03 173.97 366.81 178.41 366.81 196.55 225.03"/><polygon class="cls-25" points="192.91 225.03 197.36 225.03 215.5 366.81 211.05 366.81 192.91 225.03"/><path class="cls-26" d="M201.09,225a6.36,6.36,0,1,1-6.36-6.36A6.35,6.35,0,0,1,201.09,225Z"/><rect class="cls-27" x="43.62" y="232.86" width="167.44" height="25.66"/><polygon class="cls-28" points="63.34 258.52 51.46 258.52 67.26 232.86 79.14 232.86 63.34 258.52"/><polygon class="cls-28" points="94.36 258.52 82.48 258.52 98.28 232.86 110.16 232.86 94.36 258.52"/><polygon class="cls-28" points="125.38 258.52 113.5 258.52 129.3 232.86 141.17 232.86 125.38 258.52"/><polygon class="cls-28" points="156.4 258.52 144.52 258.52 160.32 232.86 172.19 232.86 156.4 258.52"/><polygon class="cls-28" points="187.42 258.52 175.54 258.52 191.34 232.86 203.21 232.86 187.42 258.52"/><rect class="cls-27" x="43.62" y="266.97" width="167.44" height="25.66"/><polygon class="cls-28" points="63.34 292.63 51.46 292.63 67.26 266.97 79.14 266.97 63.34 292.63"/><polygon class="cls-28" points="94.36 292.63 82.48 292.63 98.28 266.97 110.16 266.97 94.36 292.63"/><polygon class="cls-28" points="125.38 292.63 113.5 292.63 129.3 266.97 141.17 266.97 125.38 292.63"/><polygon class="cls-28" points="156.4 292.63 144.52 292.63 160.32 266.97 172.19 266.97 156.4 292.63"/><polygon class="cls-28" points="187.42 292.63 175.54 292.63 191.34 266.97 203.21 266.97 187.42 292.63"/><path class="cls-41" d="M162.9,97.93s-7.63-.73-9.38,5.61c-1.87,6.77,1.44,8.56-1.19,12.59s-2.26,7.63.94,9.43,9.44.83,10.87-3.85-1-7.82-2.55-11.89.2-7.4,3.35-7.64Z"/><path class="cls-66" d="M164.94,102.18l-2-4.25a12,12,0,0,0-5.05.78,16.52,16.52,0,0,0,3.9,5.4A4,4,0,0,1,164.94,102.18Z"/><path class="cls-67" d="M200.8,133.66c5.94,3.72,9.15,9.68,14.36,20.33s10.28,18.74,10.28,18.74l-10.37,19.72-21-28.18Z"/><polygon class="cls-67" points="142.88 136.18 163.99 123.04 181.27 123.04 200.03 133.87 203.36 205.5 145.34 205.5 142.88 136.18"/><path class="cls-25" d="M223.31,362.08l11.84,9.16s9.81,1.21,10.18,10.83H208.41c-.61-6.66,2.22-13.32,2.22-13.32l-.74-6.67Z"/><path class="cls-25" d="M161.39,362.08l10.66,9.16s9.81,1.21,10.18,10.83H145.31c-.61-6.66,2.22-13.32,2.22-13.32l.45-6.67Z"/><path class="cls-38" d="M202.11,204.87l24.16,158.05H207.94s-16.93-57-16.1-79l-15.13-55.63h-3.59l-9.56,134.66h-17.1s-2.42-55.61,1.75-79c0,0-11-45.08-3.71-79Z"/><path class="cls-41" d="M202.11,204.87H144.5a114.2,114.2,0,0,0-2.19,16.47c27.93,2.85,52.43-4.64,61.14-7.75Z"/><line class="cls-68" x1="176.02" y1="204.87" x2="176.02" y2="228.26"/><path class="cls-68" d="M180,204.87v8.19a9.76,9.76,0,0,1-4,7.86l0,0"/><path class="cls-68" d="M142,229.08c13-4,16.8-20.89,17.43-24.21"/><path class="cls-38" d="M208.41,382.07h36.92a11.7,11.7,0,0,0-.32-2.4H208.33A19.31,19.31,0,0,0,208.41,382.07Z"/><path class="cls-38" d="M145.31,382.07h36.92a11.7,11.7,0,0,0-.32-2.4H145.23A21.46,21.46,0,0,0,145.31,382.07Z"/><line class="cls-45" x1="164.94" y1="225.12" x2="186.37" y2="225.12"/><path class="cls-26" d="M157.39,126.17l-14.24,9c8.07,5.55,12.73,19.94,11.91,33.95s-14.58,14.43-14.58,14.43L139,210.08h26.78a8,8,0,0,0,8-8.05v-56.8a7,7,0,0,0-2.88-5.63A34.68,34.68,0,0,1,160.4,127,2.1,2.1,0,0,0,157.39,126.17Z"/><path class="cls-26" d="M203.36,172.32c2.16-5.9,3.13-17.91,1-24a102.39,102.39,0,0,1-3.54-14.64l-15.47-9.13c.13,3.66,1.65,9.37-2.42,15.07-1.29,1.82-2.88,3.4-2.88,5.63V202a8,8,0,0,0,8,8.05h21.36Z"/><polygon class="cls-69" points="173.77 201.49 173.77 190.25 140.09 190.25 139.45 201.49 173.77 201.49"/><path class="cls-69" d="M173.77,188.42V177.18H152.54c-4.19,6.22-12.06,6.38-12.06,6.38l-.28,4.86Z"/><polygon class="cls-69" points="180.03 177.18 180.03 188.42 205.95 188.42 204.15 177.18 180.03 177.18"/><polygon class="cls-69" points="206.25 190.25 180.03 190.25 180.03 201.49 208.05 201.49 206.25 190.25"/><polygon class="cls-25" points="164.5 120.58 180.34 120.58 183.88 124.07 180.41 133.43 176.71 128.99 173.56 133.43 162.32 124.84 164.5 120.58"/><line class="cls-70" x1="176.71" y1="131.46" x2="176.71" y2="203.64"/><polygon class="cls-71" points="197.42 192.23 179.75 195.26 190.67 144.6 208.34 141.57 197.42 192.23"/><polygon class="cls-71" points="231.45 192.23 213.78 195.26 224.7 144.6 242.37 141.57 231.45 192.23"/><polygon class="cls-25" points="197.42 192.23 213.78 195.26 224.7 144.6 208.34 141.57 197.42 192.23"/><polygon class="cls-72" points="189.99 171.81 187.56 174.88 189.81 179.86 181.47 187.26 184.83 171.7 189.99 171.81"/><polygon class="cls-72" points="231.95 160.27 233.63 163.4 230.02 167.5 234.49 178.14 237.86 162.5 231.95 160.27"/><path class="cls-31" d="M240.85,163.23a2.51,2.51,0,0,0-1.4-1.51L233,159.13a.83.83,0,0,0-1.11.49.81.81,0,0,0,.34,1l4.8,3-5-1.69a1.63,1.63,0,0,0-2.07,1l-.88,2.6a1.63,1.63,0,0,0,.9,2l3.92,1.68a13.2,13.2,0,0,0,.95,2.16,4.1,4.1,0,0,1,.43,2.85l-.42,1.91.17,0a5.93,5.93,0,0,0,4.59-4l1.21-3.82A8.18,8.18,0,0,0,240.85,163.23Z"/><line class="cls-62" x1="237.44" y1="166" x2="229.82" y2="163.4"/><line class="cls-62" x1="236.81" y1="167.82" x2="229.2" y2="165.22"/><path class="cls-67" d="M142.89,136.18c-6.3,4.21-9.35,8.79-12.82,22.39s-14.9,45.82,12.82,48.87l8.69-46.37S150.15,141.69,142.89,136.18Z"/><path class="cls-73" d="M148.28,196.53c-1.5,6.37-4,11.25-5.5,10.89s-1.58-5.83-.08-12.21,4-11.25,5.51-10.89S149.78,190.15,148.28,196.53Z"/><line class="cls-70" x1="147.28" y1="184.01" x2="151.58" y2="161.07"/><path class="cls-70" d="M132.76,183.7a14.14,14.14,0,0,1,13.67,0"/><line class="cls-70" x1="141.36" y1="178.14" x2="145.94" y2="182.38"/><path class="cls-33" d="M148.21,184.32l21.37-3.44.75,8.05L141.74,200.8S143.64,185.75,148.21,184.32Z"/><path class="cls-34" d="M169.58,180.88l-10,1.61a16.15,16.15,0,0,0,5.13,7.72,1.88,1.88,0,0,0,1.89.28l3.76-1.56Z"/><path class="cls-31" d="M166.47,180s-.26,6.08,2.75,10.83l8.89-6.18s2.67.66,6.42-4.19l4.49-.34a1.72,1.72,0,0,0,1.59-1.72v-2.89a1.72,1.72,0,0,0-1.72-1.72h-5.54l6.59-1.55a.87.87,0,0,0,.67-.85h0a.87.87,0,0,0-.94-.87l-8.1.62a2.69,2.69,0,0,0-2,1.09l-5.23,7.12Z"/><line class="cls-62" x1="182.12" y1="176.1" x2="190.61" y2="176.1"/><line class="cls-62" x1="182.12" y1="178.14" x2="190.61" y2="178.14"/><path class="cls-33" d="M185.64,90.9l.56,8.75a9.38,9.38,0,0,1-5.14,14.53l.28,9.18-4.77,5.17-9.85-5.18a2.18,2.18,0,0,1-1.16-2.14l1.27-13.12,3.48-6.77a11.08,11.08,0,0,0,1.22-5.42l-.14-4.26Z"/><path class="cls-41" d="M161.83,93.83s-1.9,9.85,5,14.26c0,0,7.65-10.33,6.89-15.86Z"/><circle class="cls-33" cx="167.15" cy="102" r="3.82"/><path class="cls-46" d="M165,102a2.2,2.2,0,1,1,4.39,0"/><path class="cls-34" d="M181.06,114.18c-4.28.62-7.41-.35-9-1.83a.72.72,0,0,0-1.23.51c.17,4.42,3.34,9.54,10.46,10.06Z"/><path class="cls-74" d="M177.4,98.62c0,.83-.34,1.52-.84,1.54s-.94-.62-1-1.45.33-1.51.83-1.53S177.36,97.8,177.4,98.62Z"/><path class="cls-74" d="M184.42,98.28c0,.82-.33,1.51-.83,1.53s-1-.62-1-1.44.34-1.51.84-1.54S184.38,97.45,184.42,98.28Z"/><path class="cls-75" d="M174.79,96.3a8.18,8.18,0,0,1,3-.24"/><path class="cls-75" d="M181.67,95.76a8.25,8.25,0,0,1,3.05-.24"/><path class="cls-46" d="M180.74,97.66l.27,3.24s1.11-.14,1.35.64-2,1.07-2,1.07"/><path class="cls-25" d="M177.18,103.67h6.33s-.46,6.2-2.63,6.43S177.18,103.67,177.18,103.67Z"/><path class="cls-31" d="M172.74,78.51h0a10.73,10.73,0,0,1,12.33,10.24c5.55,1.18,7.59,3.17,7.59,3.17l-30.83,1.91-.1-1.64A13,13,0,0,1,172.74,78.51Z"/><path class="cls-53" d="M171.93,78.67c.27,0,.54-.12.81-.16h0a10.73,10.73,0,0,1,12.33,10.24l-4.56.28A12.12,12.12,0,0,0,171.93,78.67Z"/><path class="cls-26" d="M504.26,379.54H559.6L534.46,273.05a2.6,2.6,0,0,0-5.06,0Z"/><path class="cls-26" d="M566.75,382.07H497.11a1.62,1.62,0,0,1-1.62-1.62h0a1.62,1.62,0,0,1,1.62-1.63h69.64a1.63,1.63,0,0,1,1.63,1.63h0A1.63,1.63,0,0,1,566.75,382.07Z"/><polygon class="cls-25" points="523.17 299.43 521.01 308.61 542.86 308.61 540.69 299.43 523.17 299.43"/><polygon class="cls-25" points="518.15 320.7 515.98 329.88 547.88 329.88 545.71 320.7 518.15 320.7"/><polygon class="cls-25" points="552.9 351.15 550.74 341.98 513.13 341.98 510.96 351.15 552.9 351.15"/></g></g></svg>