<svg xmlns="http://www.w3.org/2000/svg" viewBox="0 0 128.18 93.62"><defs><style>.cls-1{fill:#ef6c45;}.cls-2{fill:#fff;}.cls-3{fill:#f7a583;}.cls-4{fill:#d69073;}.cls-5{fill:#bdbbbc;}.cls-6{fill:#919191;}.cls-7{fill:#6a6968;}</style></defs><g id="Capa_2" data-name="Capa 2"><g id="Capa_1-2" data-name="Capa 1"><rect class="cls-1" y="43.64" width="17.99" height="47.05"/><path class="cls-2" d="M9,86.55a3.17,3.17,0,0,1,0-6.34,3.17,3.17,0,0,1,0,6.34Z"/><path class="cls-3" d="M94.1,67.29l31.12-12.92S132,58.76,125,65.09L73.19,93.37,18.24,80.45V54.61L45,48.52,86.8,60.46c-.24-.24,7.3,1.46,7.3,6.83,0,0-.49,7.31-7.54,5.61l-23.1-5.61"/><path class="cls-4" d="M59.08,62.9c1.71,4.39,14.11,7.8,22.13,9.51,3.4.73,8,1.7,10.94-.49,1.46-1,2.19-2.92,1.95-5.36v0C90.45,77,62.73,64.85,59.08,62.9Z"/><path class="cls-4" d="M125.22,54.37l-.49.24a3.56,3.56,0,0,1,.25,1.71A6,6,0,0,1,123.76,60c-2.92,4.39-8.27,7.07-12.89,9.51-2.43,1.22-5.1,2.44-7.53,3.9-2.92,1.71-5.6,3.42-8.51,5.12-7.3,4.15-15.32,7.8-23.83,7.32-2.92-.25-5.84-1-8.75-1.47-2.44-.48-5.11-.73-7.54-1.21-5.59-1-10.94-2-16.29-4.15-1-.49-2.19-1-3.16-1.46a12.45,12.45,0,0,1-5.11-2.44,11.88,11.88,0,0,1-3.65-6.58c-1.21-5.12-.73-10.24-.48-15.36l-8,1.7V80.7l55,12.92,51.79-28.28C131.79,58.76,125.22,54.37,125.22,54.37Z"/><path class="cls-5" d="M92.15,40.23a11.46,11.46,0,1,1,11.43-11.46A11.43,11.43,0,0,1,92.15,40.23Zm27.72-6.83.24-7.8-4.62-.24a26.21,26.21,0,0,0-1.21-4.64l4.38-2.44L115,11.46l-4.62,2.44a37.84,37.84,0,0,0-3.16-3.17l2.67-4.64-6.56-3.9-2.92,4.64a26.13,26.13,0,0,0-4.13-1.22V0H88.51V5.61c-1.22.24-2.19.48-3.17.73L82.67,1.46,75.86,5.12l2.43,4.63a17,17,0,0,0-3.16,2.68L70.76,9.51l-4.14,6.58,4.14,2.68a33.66,33.66,0,0,0-1.71,4.39l-4.62-.24-.24,7.8,4.38.24a28.1,28.1,0,0,0,1,4.88l-3.65,1.95,3.65,6.83,3.4-2a18.38,18.38,0,0,0,3.65,3.91l-1.94,3.16,6.56,3.91,1.7-2.93a19.23,19.23,0,0,0,5.35,1.46v3.42H96V53.15a20.92,20.92,0,0,0,4.14-1l1.7,3.17,6.81-3.65L107,48.52a22.5,22.5,0,0,0,3.41-3.42l3.16,1.95,4.13-6.58-3.4-2.19a29,29,0,0,0,1.21-4.88Z"/><path class="cls-6" d="M94.83,40a10.68,10.68,0,0,1-2.68.25A11.43,11.43,0,0,1,80.72,28.77v-.49a24.16,24.16,0,0,1-2.43-11A35.29,35.29,0,0,1,82.67,2.68l-.24-.49L75.62,5.85l2.43,4.63a16.35,16.35,0,0,0-3.16,2.69l-4.38-2.93-4.13,6.58,4.13,2.68a33.58,33.58,0,0,0-1.7,4.39l-4.62-.24L64,31.45l4.37.24a29.05,29.05,0,0,0,1,4.88l-3.65,2,3.65,6.83,3.4-2a18.32,18.32,0,0,0,3.65,3.9L74.4,50.47,81,54.37l1.7-2.93A19.13,19.13,0,0,0,88,52.9v3.42H95.8V53.15a20.65,20.65,0,0,0,4.13-1l1.7,3.17,6.81-3.65-1.7-3.17a23,23,0,0,0,3.41-3.42l3.16,1.95,4.13-6.58-.73-.49C109.9,41.69,101.88,42.18,94.83,40Z"/><path class="cls-7" d="M92.15,40.23a11.46,11.46,0,1,1,11.43-11.46A11.43,11.43,0,0,1,92.15,40.23Zm0-28.53a16.83,16.83,0,1,0,16.78,16.82A16.83,16.83,0,0,0,92.15,11.7Z"/></g></g></svg>