<?xml version="1.0" encoding="utf-8"?>
<!-- Generator: Adobe Illustrator 25.2.3, SVG Export Plug-In . SVG Version: 6.00 Build 0)  -->
<svg version="1.1" id="Capa_1" xmlns="http://www.w3.org/2000/svg" xmlns:xlink="http://www.w3.org/1999/xlink" x="0px" y="0px"
	 viewBox="0 0 1102.8 800" style="enable-background:new 0 0 1102.8 800;" xml:space="preserve">
<style type="text/css">
	.st0{fill:#EC6C3D;}
	.st1{fill:#BBBBBB;}
</style>
<path class="st0" d="M914.9,81H451.7c-29.7,0-53.9,16.7-53.9,37.2v165c0,20.5,24.2,37.2,53.9,37.2h40.7v65.5c0,4.5,3.8,8.6,9.9,10.5
	c2.2,0.7,4.6,1,7,1c3.9,0,7.8-1,11-2.8l74.6-74.3h320.2c29.7,0,53.9-16.7,53.9-37.2v-165C968.8,97.7,944.6,81,914.9,81z
	 M527.2,193.8l-17.1,16.6l4,23.5c0.3,1.7-0.4,3.4-1.8,4.4c-0.8,0.6-1.7,0.9-2.7,0.9c-0.7,0-1.4-0.2-2.1-0.5l-21.1-11.1l-21.1,11.1
	c-1.5,0.8-3.4,0.7-4.8-0.3s-2.1-2.7-1.8-4.4l4-23.5l-17.1-16.6c-1.2-1.2-1.7-3-1.1-4.6c0.5-1.6,1.9-2.8,3.7-3.1l23.6-3.4l10.6-21.4
	c0.8-1.5,2.3-2.5,4.1-2.5s3.3,1,4.1,2.5l10.6,21.4l23.6,3.4c1.7,0.2,3.1,1.4,3.7,3.1C528.8,190.8,528.4,192.6,527.2,193.8z
	 M635.6,193.8l-17.1,16.6l4,23.5c0.3,1.7-0.4,3.4-1.8,4.4c-0.8,0.6-1.7,0.9-2.7,0.9c-0.7,0-1.4-0.2-2.1-0.5l-21.1-11.1l-21.1,11.1
	c-1.5,0.8-3.4,0.7-4.8-0.3c-1.4-1-2.1-2.7-1.8-4.4l4-23.5L554,193.9c-1.2-1.2-1.7-3-1.1-4.6c0.5-1.6,1.9-2.8,3.7-3.1l23.6-3.4
	l10.6-21.4c0.8-1.5,2.3-2.5,4.1-2.5c1.7,0,3.3,1,4.1,2.5l10.6,21.4l23.6,3.4c1.7,0.2,3.1,1.4,3.7,3.1
	C637.3,190.8,636.9,192.6,635.6,193.8z M744.1,193.8L727,210.4l4,23.5c0.3,1.7-0.4,3.4-1.8,4.4c-0.8,0.6-1.7,0.9-2.7,0.9
	c-0.7,0-1.4-0.2-2.1-0.5l-21.1-11.1l-21.1,11.1c-1.5,0.8-3.4,0.7-4.8-0.3c-1.4-1-2.1-2.7-1.8-4.4l4-23.5l-17.1-16.6
	c-1.2-1.2-1.7-3-1.1-4.6c0.5-1.6,1.9-2.8,3.7-3.1l23.6-3.4l10.6-21.4c0.8-1.5,2.3-2.5,4-2.5s3.3,1,4.1,2.5l10.6,21.4l23.6,3.4
	c1.7,0.2,3.1,1.4,3.6,3.1C745.8,190.8,745.3,192.6,744.1,193.8z M850.7,193.8l-17.1,16.6l4,23.5c0.3,1.7-0.4,3.4-1.8,4.4
	c-0.8,0.6-1.7,0.9-2.7,0.9c-0.7,0-1.4-0.2-2.1-0.5l-21.1-11.1l-21.1,11.1c-1.5,0.8-3.4,0.7-4.8-0.3c-1.4-1-2.1-2.7-1.8-4.4l4-23.5
	l-17.1-16.6c-1.2-1.2-1.7-3-1.1-4.6c0.5-1.6,1.9-2.8,3.7-3.1l23.6-3.4l10.6-21.4c0.8-1.5,2.3-2.5,4-2.5s3.3,1,4.1,2.5l10.6,21.4
	l23.6,3.4c1.7,0.2,3.1,1.4,3.6,3.1C852.4,190.8,851.9,192.6,850.7,193.8z M948.8,193.8l-17.1,16.6l4,23.5c0.3,1.7-0.4,3.4-1.8,4.4
	c-0.8,0.6-1.7,0.9-2.7,0.9c-0.7,0-1.4-0.2-2.1-0.5L908,227.6l-21.1,11.1c-1.5,0.8-3.4,0.7-4.8-0.3c-1.4-1-2.1-2.7-1.8-4.4l4-23.5
	l-17.1-16.6c-1.2-1.2-1.7-3-1.1-4.6c0.5-1.6,1.9-2.8,3.7-3.1l23.6-3.4l10.6-21.4c0.8-1.5,2.3-2.5,4-2.5s3.3,1,4.1,2.5l10.6,21.4
	l23.6,3.4c1.7,0.2,3.1,1.4,3.6,3.1C950.5,190.8,950,192.6,948.8,193.8z"/>
<path class="st1" d="M922.2,75H459.6c-29.7,0-53.8,16.7-53.8,37.2v165c0,20.5,24.2,37.2,53.8,37.2h40.6v65.5c0,4.5,3.8,8.6,9.8,10.5
	c2.2,0.7,4.6,1,6.9,1c3.9,0,7.8-1,11-2.8l74.8-74.3h319.5c29.7,0,53.8-16.7,53.8-37.2v-165C976,91.7,951.9,75,922.2,75z
	 M535.2,187.8l-17.1,16.6l4,23.5c0.3,1.7-0.4,3.4-1.8,4.4c-0.8,0.6-1.7,0.9-2.7,0.9c-0.7,0-1.4-0.2-2.1-0.5l-21.1-11.1l-21.1,11.1
	c-1.5,0.8-3.4,0.7-4.8-0.3s-2.1-2.7-1.8-4.4l4-23.5l-17.1-16.6c-1.2-1.2-1.7-3-1.1-4.6c0.5-1.6,1.9-2.8,3.7-3.1l23.6-3.4l10.6-21.4
	c0.8-1.5,2.3-2.5,4.1-2.5s3.3,1,4.1,2.5l10.6,21.4l23.6,3.4c1.7,0.2,3.1,1.4,3.7,3.1C536.8,184.8,536.4,186.6,535.2,187.8z
	 M643.6,187.8l-17.1,16.6l4,23.5c0.3,1.7-0.4,3.4-1.8,4.4c-0.8,0.6-1.7,0.9-2.7,0.9c-0.7,0-1.4-0.2-2.1-0.5l-21.1-11.1l-21.1,11.1
	c-1.5,0.8-3.4,0.7-4.8-0.3c-1.4-1-2.1-2.7-1.8-4.4l4-23.5L562,187.9c-1.2-1.2-1.7-3-1.1-4.6c0.5-1.6,1.9-2.8,3.7-3.1l23.6-3.4
	l10.6-21.4c0.8-1.5,2.3-2.5,4.1-2.5c1.7,0,3.3,1,4.1,2.5l10.6,21.4l23.6,3.4c1.7,0.2,3.1,1.4,3.7,3.1
	C645.3,184.8,644.9,186.6,643.6,187.8z M752.1,187.8L735,204.4l4,23.5c0.3,1.7-0.4,3.4-1.8,4.4c-0.8,0.6-1.7,0.9-2.7,0.9
	c-0.7,0-1.4-0.2-2.1-0.5l-21.1-11.1l-21.1,11.1c-1.5,0.8-3.4,0.7-4.8-0.3c-1.4-1-2.1-2.7-1.8-4.4l4-23.5l-17.1-16.6
	c-1.2-1.2-1.7-3-1.1-4.6c0.5-1.6,1.9-2.8,3.7-3.1l23.6-3.4l10.6-21.4c0.8-1.5,2.3-2.5,4-2.5s3.3,1,4.1,2.5l10.6,21.4l23.6,3.4
	c1.7,0.2,3.1,1.4,3.6,3.1C753.8,184.8,753.3,186.6,752.1,187.8z M857.9,187.8l-17.1,16.6l4,23.5c0.3,1.7-0.4,3.4-1.8,4.4
	c-0.8,0.6-1.7,0.9-2.7,0.9c-0.7,0-1.4-0.2-2.1-0.5l-21.1-11.1L796,232.7c-1.5,0.8-3.4,0.7-4.8-0.3c-1.4-1-2.1-2.7-1.8-4.4l4-23.5
	l-17.1-16.6c-1.2-1.2-1.7-3-1.1-4.6c0.5-1.6,1.9-2.8,3.7-3.1l23.6-3.4l10.6-21.4c0.8-1.5,2.3-2.5,4-2.5s3.3,1,4.1,2.5l10.6,21.4
	l23.6,3.4c1.7,0.2,3.1,1.4,3.6,3.1C859.6,184.8,859.1,186.6,857.9,187.8z M957.3,187.8l-17.1,16.6l4,23.5c0.3,1.7-0.4,3.4-1.8,4.4
	c-0.8,0.6-1.7,0.9-2.7,0.9c-0.7,0-1.4-0.2-2.1-0.5l-21.1-11.1l-21.1,11.1c-1.5,0.8-3.4,0.7-4.8-0.3c-1.4-1-2.1-2.7-1.8-4.4l4-23.5
	l-17.1-16.6c-1.2-1.2-1.7-3-1.1-4.6c0.5-1.6,1.9-2.8,3.7-3.1l23.6-3.4l10.6-21.4c0.8-1.5,2.3-2.5,4-2.5s3.3,1,4.1,2.5l10.6,21.4
	l23.6,3.4c1.7,0.2,3.1,1.4,3.6,3.1C959,184.8,958.5,186.6,957.3,187.8z"/>
<g>
	<path class="st0" d="M255.7,188.9c-78.2,0-121.5,40.5-120.7,118.6c1.1,107,46.6,171.9,120.7,170.7c0,0,120.7,4.9,120.7-170.7
		C376.3,229.4,335.6,188.9,255.7,188.9z"/>
	<path class="st0" d="M469.1,559.4l-120.6-48.1l-28.2-23.8c-7.5-6.3-18.5-5.8-25.4,1l-39.2,39l-39.4-39c-6.9-6.9-17.9-7.3-25.4-1
		l-28.2,23.8L42.1,559.5C3.3,574.9,3.3,712.4,0,725h511.3C507.9,712.4,507.9,574.9,469.1,559.4z"/>
</g>
</svg>
