<svg xmlns="http://www.w3.org/2000/svg" viewBox="0 0 100.19 102.97"><defs><style>.cls-1{fill:#535b66;}.cls-2{fill:#fab99c;}.cls-3{fill:#fff;}.cls-4{fill:#ef6c45;}</style></defs><g id="Capa_2" data-name="Capa 2"><g id="Capa_1-2" data-name="Capa 1"><path class="cls-1" d="M100.19,79.32V75.14H0v4.18L50.1,103Z"/><path class="cls-2" d="M100.19,75.14,50.1,52.88,0,75.14,50.1,98.8Z"/><path class="cls-3" d="M58.45,2.09a34.2,34.2,0,0,1-8.35.69,34.12,34.12,0,0,1-8.35-.69c-9,25.05-18.09,48.7-26.44,70.27A69.12,69.12,0,0,0,50.1,82.1a69.11,69.11,0,0,0,34.78-9.74C77.23,50.79,68.19,27.83,58.45,2.09Z"/><path class="cls-4" d="M15.31,72.36A69.12,69.12,0,0,0,50.1,82.1a69.11,69.11,0,0,0,34.78-9.74c-1.39-4.17-3.47-9-4.87-13.22a69.32,69.32,0,0,1-59.83,0C18.79,64,16.7,68.19,15.31,72.36Z"/><path class="cls-4" d="M25.74,45.92a67.32,67.32,0,0,0,49.4,0c-2.08-4.87-3.48-9-5.56-13.91a62.26,62.26,0,0,1-39,0C29.22,36.18,27.14,41.05,25.74,45.92Z"/><path class="cls-4" d="M58.45,2.09a34.2,34.2,0,0,1-8.35.69,34.12,34.12,0,0,1-8.35-.69C39.66,7,38.27,12.52,36.18,17.39a65.67,65.67,0,0,0,28.53,0C62.62,12.52,60.53,7.65,58.45,2.09Z"/><path class="cls-1" d="M58.45,2.09c0,1.39-4.18,2.08-8.35,2.08-4.87,0-8.35-.69-8.35-2.08S45.92,0,50.1,0C55,.7,58.45,1.39,58.45,2.09Z"/></g></g></svg>